<svg version="1.1" xmlns="http://www.w3.org/2000/svg" xmlns:xlink="http://www.w3.org/1999/xlink" width="620" height="548"><defs/><g><text fill="#eeeeee" stroke="none" font-family="Arial" font-size="24px" font-style="normal" font-weight="normal" text-decoration="none" x="0" y="0">UNREGISTERED</text><text fill="#eeeeee" stroke="none" font-family="Arial" font-size="24px" font-style="normal" font-weight="normal" text-decoration="none" x="0" y="30">UNREGISTERED</text><text fill="#eeeeee" stroke="none" font-family="Arial" font-size="24px" font-style="normal" font-weight="normal" text-decoration="none" x="0" y="60">UNREGISTERED</text><text fill="#eeeeee" stroke="none" font-family="Arial" font-size="24px" font-style="normal" font-weight="normal" text-decoration="none" x="0" y="90">UNREGISTERED</text><text fill="#eeeeee" stroke="none" font-family="Arial" font-size="24px" font-style="normal" font-weight="normal" text-decoration="none" x="0" y="120">UNREGISTERED</text><text fill="#eeeeee" stroke="none" font-family="Arial" font-size="24px" font-style="normal" font-weight="normal" text-decoration="none" x="0" y="150">UNREGISTERED</text><text fill="#eeeeee" stroke="none" font-family="Arial" font-size="24px" font-style="normal" font-weight="normal" text-decoration="none" x="0" y="180">UNREGISTERED</text><text fill="#eeeeee" stroke="none" font-family="Arial" font-size="24px" font-style="normal" font-weight="normal" text-decoration="none" x="0" y="210">UNREGISTERED</text><text fill="#eeeeee" stroke="none" font-family="Arial" font-size="24px" font-style="normal" font-weight="normal" text-decoration="none" x="0" y="240">UNREGISTERED</text><text fill="#eeeeee" stroke="none" font-family="Arial" font-size="24px" font-style="normal" font-weight="normal" text-decoration="none" x="0" y="270">UNREGISTERED</text><text fill="#eeeeee" stroke="none" font-family="Arial" font-size="24px" font-style="normal" font-weight="normal" text-decoration="none" x="0" y="300">UNREGISTERED</text><text fill="#eeeeee" stroke="none" font-family="Arial" font-size="24px" font-style="normal" font-weight="normal" text-decoration="none" x="0" y="330">UNREGISTERED</text><text fill="#eeeeee" stroke="none" font-family="Arial" font-size="24px" font-style="normal" font-weight="normal" text-decoration="none" x="0" y="360">UNREGISTERED</text><text fill="#eeeeee" stroke="none" font-family="Arial" font-size="24px" font-style="normal" font-weight="normal" text-decoration="none" x="0" y="390">UNREGISTERED</text><text fill="#eeeeee" stroke="none" font-family="Arial" font-size="24px" font-style="normal" font-weight="normal" text-decoration="none" x="0" y="420">UNREGISTERED</text><text fill="#eeeeee" stroke="none" font-family="Arial" font-size="24px" font-style="normal" font-weight="normal" text-decoration="none" x="0" y="450">UNREGISTERED</text><text fill="#eeeeee" stroke="none" font-family="Arial" font-size="24px" font-style="normal" font-weight="normal" text-decoration="none" x="0" y="480">UNREGISTERED</text><text fill="#eeeeee" stroke="none" font-family="Arial" font-size="24px" font-style="normal" font-weight="normal" text-decoration="none" x="0" y="510">UNREGISTERED</text><text fill="#eeeeee" stroke="none" font-family="Arial" font-size="24px" font-style="normal" font-weight="normal" text-decoration="none" x="0" y="540">UNREGISTERED</text><text fill="#eeeeee" stroke="none" font-family="Arial" font-size="24px" font-style="normal" font-weight="normal" text-decoration="none" x="200" y="0">UNREGISTERED</text><text fill="#eeeeee" stroke="none" font-family="Arial" font-size="24px" font-style="normal" font-weight="normal" text-decoration="none" x="200" y="30">UNREGISTERED</text><text fill="#eeeeee" stroke="none" font-family="Arial" font-size="24px" font-style="normal" font-weight="normal" text-decoration="none" x="200" y="60">UNREGISTERED</text><text fill="#eeeeee" stroke="none" font-family="Arial" font-size="24px" font-style="normal" font-weight="normal" text-decoration="none" x="200" y="90">UNREGISTERED</text><text fill="#eeeeee" stroke="none" font-family="Arial" font-size="24px" font-style="normal" font-weight="normal" text-decoration="none" x="200" y="120">UNREGISTERED</text><text fill="#eeeeee" stroke="none" font-family="Arial" font-size="24px" font-style="normal" font-weight="normal" text-decoration="none" x="200" y="150">UNREGISTERED</text><text fill="#eeeeee" stroke="none" font-family="Arial" font-size="24px" font-style="normal" font-weight="normal" text-decoration="none" x="200" y="180">UNREGISTERED</text><text fill="#eeeeee" stroke="none" font-family="Arial" font-size="24px" font-style="normal" font-weight="normal" text-decoration="none" x="200" y="210">UNREGISTERED</text><text fill="#eeeeee" stroke="none" font-family="Arial" font-size="24px" font-style="normal" font-weight="normal" text-decoration="none" x="200" y="240">UNREGISTERED</text><text fill="#eeeeee" stroke="none" font-family="Arial" font-size="24px" font-style="normal" font-weight="normal" text-decoration="none" x="200" y="270">UNREGISTERED</text><text fill="#eeeeee" stroke="none" font-family="Arial" font-size="24px" font-style="normal" font-weight="normal" text-decoration="none" x="200" y="300">UNREGISTERED</text><text fill="#eeeeee" stroke="none" font-family="Arial" font-size="24px" font-style="normal" font-weight="normal" text-decoration="none" x="200" y="330">UNREGISTERED</text><text fill="#eeeeee" stroke="none" font-family="Arial" font-size="24px" font-style="normal" font-weight="normal" text-decoration="none" x="200" y="360">UNREGISTERED</text><text fill="#eeeeee" stroke="none" font-family="Arial" font-size="24px" font-style="normal" font-weight="normal" text-decoration="none" x="200" y="390">UNREGISTERED</text><text fill="#eeeeee" stroke="none" font-family="Arial" font-size="24px" font-style="normal" font-weight="normal" text-decoration="none" x="200" y="420">UNREGISTERED</text><text fill="#eeeeee" stroke="none" font-family="Arial" font-size="24px" font-style="normal" font-weight="normal" text-decoration="none" x="200" y="450">UNREGISTERED</text><text fill="#eeeeee" stroke="none" font-family="Arial" font-size="24px" font-style="normal" font-weight="normal" text-decoration="none" x="200" y="480">UNREGISTERED</text><text fill="#eeeeee" stroke="none" font-family="Arial" font-size="24px" font-style="normal" font-weight="normal" text-decoration="none" x="200" y="510">UNREGISTERED</text><text fill="#eeeeee" stroke="none" font-family="Arial" font-size="24px" font-style="normal" font-weight="normal" text-decoration="none" x="200" y="540">UNREGISTERED</text><text fill="#eeeeee" stroke="none" font-family="Arial" font-size="24px" font-style="normal" font-weight="normal" text-decoration="none" x="400" y="0">UNREGISTERED</text><text fill="#eeeeee" stroke="none" font-family="Arial" font-size="24px" font-style="normal" font-weight="normal" text-decoration="none" x="400" y="30">UNREGISTERED</text><text fill="#eeeeee" stroke="none" font-family="Arial" font-size="24px" font-style="normal" font-weight="normal" text-decoration="none" x="400" y="60">UNREGISTERED</text><text fill="#eeeeee" stroke="none" font-family="Arial" font-size="24px" font-style="normal" font-weight="normal" text-decoration="none" x="400" y="90">UNREGISTERED</text><text fill="#eeeeee" stroke="none" font-family="Arial" font-size="24px" font-style="normal" font-weight="normal" text-decoration="none" x="400" y="120">UNREGISTERED</text><text fill="#eeeeee" stroke="none" font-family="Arial" font-size="24px" font-style="normal" font-weight="normal" text-decoration="none" x="400" y="150">UNREGISTERED</text><text fill="#eeeeee" stroke="none" font-family="Arial" font-size="24px" font-style="normal" font-weight="normal" text-decoration="none" x="400" y="180">UNREGISTERED</text><text fill="#eeeeee" stroke="none" font-family="Arial" font-size="24px" font-style="normal" font-weight="normal" text-decoration="none" x="400" y="210">UNREGISTERED</text><text fill="#eeeeee" stroke="none" font-family="Arial" font-size="24px" font-style="normal" font-weight="normal" text-decoration="none" x="400" y="240">UNREGISTERED</text><text fill="#eeeeee" stroke="none" font-family="Arial" font-size="24px" font-style="normal" font-weight="normal" text-decoration="none" x="400" y="270">UNREGISTERED</text><text fill="#eeeeee" stroke="none" font-family="Arial" font-size="24px" font-style="normal" font-weight="normal" text-decoration="none" x="400" y="300">UNREGISTERED</text><text fill="#eeeeee" stroke="none" font-family="Arial" font-size="24px" font-style="normal" font-weight="normal" text-decoration="none" x="400" y="330">UNREGISTERED</text><text fill="#eeeeee" stroke="none" font-family="Arial" font-size="24px" font-style="normal" font-weight="normal" text-decoration="none" x="400" y="360">UNREGISTERED</text><text fill="#eeeeee" stroke="none" font-family="Arial" font-size="24px" font-style="normal" font-weight="normal" text-decoration="none" x="400" y="390">UNREGISTERED</text><text fill="#eeeeee" stroke="none" font-family="Arial" font-size="24px" font-style="normal" font-weight="normal" text-decoration="none" x="400" y="420">UNREGISTERED</text><text fill="#eeeeee" stroke="none" font-family="Arial" font-size="24px" font-style="normal" font-weight="normal" text-decoration="none" x="400" y="450">UNREGISTERED</text><text fill="#eeeeee" stroke="none" font-family="Arial" font-size="24px" font-style="normal" font-weight="normal" text-decoration="none" x="400" y="480">UNREGISTERED</text><text fill="#eeeeee" stroke="none" font-family="Arial" font-size="24px" font-style="normal" font-weight="normal" text-decoration="none" x="400" y="510">UNREGISTERED</text><text fill="#eeeeee" stroke="none" font-family="Arial" font-size="24px" font-style="normal" font-weight="normal" text-decoration="none" x="400" y="540">UNREGISTERED</text><text fill="#eeeeee" stroke="none" font-family="Arial" font-size="24px" font-style="normal" font-weight="normal" text-decoration="none" x="600" y="0">UNREGISTERED</text><text fill="#eeeeee" stroke="none" font-family="Arial" font-size="24px" font-style="normal" font-weight="normal" text-decoration="none" x="600" y="30">UNREGISTERED</text><text fill="#eeeeee" stroke="none" font-family="Arial" font-size="24px" font-style="normal" font-weight="normal" text-decoration="none" x="600" y="60">UNREGISTERED</text><text fill="#eeeeee" stroke="none" font-family="Arial" font-size="24px" font-style="normal" font-weight="normal" text-decoration="none" x="600" y="90">UNREGISTERED</text><text fill="#eeeeee" stroke="none" font-family="Arial" font-size="24px" font-style="normal" font-weight="normal" text-decoration="none" x="600" y="120">UNREGISTERED</text><text fill="#eeeeee" stroke="none" font-family="Arial" font-size="24px" font-style="normal" font-weight="normal" text-decoration="none" x="600" y="150">UNREGISTERED</text><text fill="#eeeeee" stroke="none" font-family="Arial" font-size="24px" font-style="normal" font-weight="normal" text-decoration="none" x="600" y="180">UNREGISTERED</text><text fill="#eeeeee" stroke="none" font-family="Arial" font-size="24px" font-style="normal" font-weight="normal" text-decoration="none" x="600" y="210">UNREGISTERED</text><text fill="#eeeeee" stroke="none" font-family="Arial" font-size="24px" font-style="normal" font-weight="normal" text-decoration="none" x="600" y="240">UNREGISTERED</text><text fill="#eeeeee" stroke="none" font-family="Arial" font-size="24px" font-style="normal" font-weight="normal" text-decoration="none" x="600" y="270">UNREGISTERED</text><text fill="#eeeeee" stroke="none" font-family="Arial" font-size="24px" font-style="normal" font-weight="normal" text-decoration="none" x="600" y="300">UNREGISTERED</text><text fill="#eeeeee" stroke="none" font-family="Arial" font-size="24px" font-style="normal" font-weight="normal" text-decoration="none" x="600" y="330">UNREGISTERED</text><text fill="#eeeeee" stroke="none" font-family="Arial" font-size="24px" font-style="normal" font-weight="normal" text-decoration="none" x="600" y="360">UNREGISTERED</text><text fill="#eeeeee" stroke="none" font-family="Arial" font-size="24px" font-style="normal" font-weight="normal" text-decoration="none" x="600" y="390">UNREGISTERED</text><text fill="#eeeeee" stroke="none" font-family="Arial" font-size="24px" font-style="normal" font-weight="normal" text-decoration="none" x="600" y="420">UNREGISTERED</text><text fill="#eeeeee" stroke="none" font-family="Arial" font-size="24px" font-style="normal" font-weight="normal" text-decoration="none" x="600" y="450">UNREGISTERED</text><text fill="#eeeeee" stroke="none" font-family="Arial" font-size="24px" font-style="normal" font-weight="normal" text-decoration="none" x="600" y="480">UNREGISTERED</text><text fill="#eeeeee" stroke="none" font-family="Arial" font-size="24px" font-style="normal" font-weight="normal" text-decoration="none" x="600" y="510">UNREGISTERED</text><text fill="#eeeeee" stroke="none" font-family="Arial" font-size="24px" font-style="normal" font-weight="normal" text-decoration="none" x="600" y="540">UNREGISTERED</text><g transform="translate(-166,-206) scale(1,1)"><rect fill="#ffffff" stroke="none" x="176" y="216" width="272" height="21"/></g><g transform="translate(-166,-206) scale(1,1)"><path fill="none" stroke="#000000" d="M 176 216 L 448 216 L 448 237 L 176 237 L 176 216 Z Z" stroke-miterlimit="10" stroke-width="2"/></g><g transform="translate(-166,-206) scale(1,1)"><path fill="none" stroke="#000000" d="M 176 744 L 176 216 L 448 216 L 448 744" stroke-miterlimit="10" stroke-width="2"/></g><g transform="translate(-166,-206) scale(1,1)"><g><path fill="none" stroke="none"/><text fill="#000000" stroke="none" font-family="Arial" font-size="13px" font-style="normal" font-weight="normal" text-decoration="none" x="285.984130859375" y="233">Benutzer</text></g></g><g transform="translate(-166,-206) scale(1,1)"><rect fill="#ffffff" stroke="none" x="448" y="216" width="328" height="21"/></g><g transform="translate(-166,-206) scale(1,1)"><path fill="none" stroke="#000000" d="M 448 216 L 776 216 L 776 237 L 448 237 L 448 216 Z Z" stroke-miterlimit="10" stroke-width="2"/></g><g transform="translate(-166,-206) scale(1,1)"><path fill="none" stroke="#000000" d="M 448 744 L 448 216 L 776 216 L 776 744" stroke-miterlimit="10" stroke-width="2"/></g><g transform="translate(-166,-206) scale(1,1)"><g><path fill="none" stroke="none"/><text fill="#000000" stroke="none" font-family="Arial" font-size="13px" font-style="normal" font-weight="normal" text-decoration="none" x="590.3291015625" y="233">System</text></g></g><g transform="translate(-166,-206) scale(1,1)"><path fill="#000000" stroke="none" d="M 283 281.5 C 283 276.2532944 287.2532944 272 292.5 272 C 297.7467056 272 302 276.2532944 302 281.5 C 302 286.7467056 297.7467056 291 292.5 291 C 287.2532944 291 283 286.7467056 283 281.5 Z"/></g><g transform="translate(-166,-206) scale(1,1)"><path fill="#ffffff" stroke="none" d="M 252 400 L 333.4345703125 400 Q 343.4345703125 400 343.4345703125 410 L 343.4345703125 430 Q 343.4345703125 440 333.4345703125 440 L 252 440 Q 242 440 242 430 L 242 410 Q 242 400 252 400 Z"/></g><g transform="translate(-166,-206) scale(1,1)"><path fill="none" stroke="#000000" d="M 252 400 L 333.4345703125 400 Q 343.4345703125 400 343.4345703125 410 L 343.4345703125 430 Q 343.4345703125 440 333.4345703125 440 L 252 440 Q 242 440 242 430 L 242 410 Q 242 400 252 400 Z" stroke-miterlimit="10"/></g><g transform="translate(-166,-206) scale(1,1)"><g><path fill="none" stroke="none"/><text fill="#000000" stroke="none" font-family="Arial" font-size="13px" font-style="normal" font-weight="bold" text-decoration="none" x="249.8388671875" y="419.5">Medium öffnen</text></g></g><g transform="translate(-166,-206) scale(1,1)"><path fill="#ffffff" stroke="none" d="M 226 527 L 359.47900390625 527 Q 369.47900390625 527 369.47900390625 537 L 369.47900390625 557 Q 369.47900390625 567 359.47900390625 567 L 226 567 Q 216 567 216 557 L 216 537 Q 216 527 226 527 Z"/></g><g transform="translate(-166,-206) scale(1,1)"><path fill="none" stroke="#000000" d="M 226 527 L 359.47900390625 527 Q 369.47900390625 527 369.47900390625 537 L 369.47900390625 557 Q 369.47900390625 567 359.47900390625 567 L 226 567 Q 216 567 216 557 L 216 537 Q 216 527 226 527 Z" stroke-miterlimit="10"/></g><g transform="translate(-166,-206) scale(1,1)"><g><path fill="none" stroke="none"/><text fill="#000000" stroke="none" font-family="Arial" font-size="13px" font-style="normal" font-weight="bold" text-decoration="none" x="225.1591796875" y="546.5">Beobachten auswählen</text></g></g><g transform="translate(-166,-206) scale(1,1)"><path fill="none" stroke="#000000" d="M 292 441 L 292 526" stroke-miterlimit="10"/></g><g transform="translate(-166,-206) scale(1,1)"><path fill="none" stroke="#000000" d="M 287.790482243984 515.8373251423759 L 292 526 L 296.209517756016 515.8373251423759" stroke-miterlimit="10"/></g><g transform="translate(-166,-206) scale(1,1)"><path fill="#ffffff" stroke="none" d="M 505 527 L 719.41162109375 527 Q 729.41162109375 527 729.41162109375 537 L 729.41162109375 557 Q 729.41162109375 567 719.41162109375 567 L 505 567 Q 495 567 495 557 L 495 537 Q 495 527 505 527 Z"/></g><g transform="translate(-166,-206) scale(1,1)"><path fill="none" stroke="#000000" d="M 505 527 L 719.41162109375 527 Q 729.41162109375 527 729.41162109375 537 L 729.41162109375 557 Q 729.41162109375 567 719.41162109375 567 L 505 567 Q 495 567 495 557 L 495 537 Q 495 527 505 527 Z" stroke-miterlimit="10"/></g><g transform="translate(-166,-206) scale(1,1)"><g><path fill="none" stroke="none"/><text fill="#000000" stroke="none" font-family="Arial" font-size="13px" font-style="normal" font-weight="bold" text-decoration="none" x="510.033935546875" y="546.5">Medium auf "beobachtet" umstellen</text></g></g><g transform="translate(-166,-206) scale(1,1)"><path fill="none" stroke="#000000" d="M 370 547 L 494 547" stroke-miterlimit="10"/></g><g transform="translate(-166,-206) scale(1,1)"><path fill="none" stroke="#000000" d="M 483.83732514237585 551.209517756016 L 494 547 L 483.83732514237585 542.790482243984" stroke-miterlimit="10"/></g><g transform="translate(-166,-206) scale(1,1)"><path fill="none" stroke="#000000" d="M 612 568 L 612 639" stroke-miterlimit="10"/></g><g transform="translate(-166,-206) scale(1,1)"><path fill="none" stroke="#000000" d="M 607.790482243984 628.8373251423759 L 612 639 L 616.209517756016 628.8373251423759" stroke-miterlimit="10"/></g><g transform="translate(-166,-206) scale(1,1)"><path fill="none" stroke="#000000" d="M 292 292 L 292 399" stroke-miterlimit="10"/></g><g transform="translate(-166,-206) scale(1,1)"><path fill="none" stroke="#000000" d="M 287.790482243984 388.83732514237585 L 292 399 L 296.209517756016 388.83732514237585" stroke-miterlimit="10"/></g><g transform="translate(-166,-206) scale(1,1)"><path fill="none" stroke="#000000" d="M 600 652.5 C 600 645.59644 605.59644 640 612.5 640 C 619.40356 640 625 645.59644 625 652.5 C 625 659.40356 619.40356 665 612.5 665 C 605.59644 665 600 659.40356 600 652.5 Z" stroke-miterlimit="10"/></g><g transform="translate(-166,-206) scale(1,1)"><path fill="#000000" stroke="none" d="M 605 652.5 C 605 648.357864 608.357864 645 612.5 645 C 616.642136 645 620 648.357864 620 652.5 C 620 656.642136 616.642136 660 612.5 660 C 608.357864 660 605 656.642136 605 652.5 Z"/></g></g></svg>