<svg version="1.1" xmlns="http://www.w3.org/2000/svg" xmlns:xlink="http://www.w3.org/1999/xlink" width="548" height="492"><defs/><g><text fill="#eeeeee" stroke="none" font-family="Arial" font-size="24px" font-style="normal" font-weight="normal" text-decoration="none" x="0" y="0">UNREGISTERED</text><text fill="#eeeeee" stroke="none" font-family="Arial" font-size="24px" font-style="normal" font-weight="normal" text-decoration="none" x="0" y="30">UNREGISTERED</text><text fill="#eeeeee" stroke="none" font-family="Arial" font-size="24px" font-style="normal" font-weight="normal" text-decoration="none" x="0" y="60">UNREGISTERED</text><text fill="#eeeeee" stroke="none" font-family="Arial" font-size="24px" font-style="normal" font-weight="normal" text-decoration="none" x="0" y="90">UNREGISTERED</text><text fill="#eeeeee" stroke="none" font-family="Arial" font-size="24px" font-style="normal" font-weight="normal" text-decoration="none" x="0" y="120">UNREGISTERED</text><text fill="#eeeeee" stroke="none" font-family="Arial" font-size="24px" font-style="normal" font-weight="normal" text-decoration="none" x="0" y="150">UNREGISTERED</text><text fill="#eeeeee" stroke="none" font-family="Arial" font-size="24px" font-style="normal" font-weight="normal" text-decoration="none" x="0" y="180">UNREGISTERED</text><text fill="#eeeeee" stroke="none" font-family="Arial" font-size="24px" font-style="normal" font-weight="normal" text-decoration="none" x="0" y="210">UNREGISTERED</text><text fill="#eeeeee" stroke="none" font-family="Arial" font-size="24px" font-style="normal" font-weight="normal" text-decoration="none" x="0" y="240">UNREGISTERED</text><text fill="#eeeeee" stroke="none" font-family="Arial" font-size="24px" font-style="normal" font-weight="normal" text-decoration="none" x="0" y="270">UNREGISTERED</text><text fill="#eeeeee" stroke="none" font-family="Arial" font-size="24px" font-style="normal" font-weight="normal" text-decoration="none" x="0" y="300">UNREGISTERED</text><text fill="#eeeeee" stroke="none" font-family="Arial" font-size="24px" font-style="normal" font-weight="normal" text-decoration="none" x="0" y="330">UNREGISTERED</text><text fill="#eeeeee" stroke="none" font-family="Arial" font-size="24px" font-style="normal" font-weight="normal" text-decoration="none" x="0" y="360">UNREGISTERED</text><text fill="#eeeeee" stroke="none" font-family="Arial" font-size="24px" font-style="normal" font-weight="normal" text-decoration="none" x="0" y="390">UNREGISTERED</text><text fill="#eeeeee" stroke="none" font-family="Arial" font-size="24px" font-style="normal" font-weight="normal" text-decoration="none" x="0" y="420">UNREGISTERED</text><text fill="#eeeeee" stroke="none" font-family="Arial" font-size="24px" font-style="normal" font-weight="normal" text-decoration="none" x="0" y="450">UNREGISTERED</text><text fill="#eeeeee" stroke="none" font-family="Arial" font-size="24px" font-style="normal" font-weight="normal" text-decoration="none" x="0" y="480">UNREGISTERED</text><text fill="#eeeeee" stroke="none" font-family="Arial" font-size="24px" font-style="normal" font-weight="normal" text-decoration="none" x="200" y="0">UNREGISTERED</text><text fill="#eeeeee" stroke="none" font-family="Arial" font-size="24px" font-style="normal" font-weight="normal" text-decoration="none" x="200" y="30">UNREGISTERED</text><text fill="#eeeeee" stroke="none" font-family="Arial" font-size="24px" font-style="normal" font-weight="normal" text-decoration="none" x="200" y="60">UNREGISTERED</text><text fill="#eeeeee" stroke="none" font-family="Arial" font-size="24px" font-style="normal" font-weight="normal" text-decoration="none" x="200" y="90">UNREGISTERED</text><text fill="#eeeeee" stroke="none" font-family="Arial" font-size="24px" font-style="normal" font-weight="normal" text-decoration="none" x="200" y="120">UNREGISTERED</text><text fill="#eeeeee" stroke="none" font-family="Arial" font-size="24px" font-style="normal" font-weight="normal" text-decoration="none" x="200" y="150">UNREGISTERED</text><text fill="#eeeeee" stroke="none" font-family="Arial" font-size="24px" font-style="normal" font-weight="normal" text-decoration="none" x="200" y="180">UNREGISTERED</text><text fill="#eeeeee" stroke="none" font-family="Arial" font-size="24px" font-style="normal" font-weight="normal" text-decoration="none" x="200" y="210">UNREGISTERED</text><text fill="#eeeeee" stroke="none" font-family="Arial" font-size="24px" font-style="normal" font-weight="normal" text-decoration="none" x="200" y="240">UNREGISTERED</text><text fill="#eeeeee" stroke="none" font-family="Arial" font-size="24px" font-style="normal" font-weight="normal" text-decoration="none" x="200" y="270">UNREGISTERED</text><text fill="#eeeeee" stroke="none" font-family="Arial" font-size="24px" font-style="normal" font-weight="normal" text-decoration="none" x="200" y="300">UNREGISTERED</text><text fill="#eeeeee" stroke="none" font-family="Arial" font-size="24px" font-style="normal" font-weight="normal" text-decoration="none" x="200" y="330">UNREGISTERED</text><text fill="#eeeeee" stroke="none" font-family="Arial" font-size="24px" font-style="normal" font-weight="normal" text-decoration="none" x="200" y="360">UNREGISTERED</text><text fill="#eeeeee" stroke="none" font-family="Arial" font-size="24px" font-style="normal" font-weight="normal" text-decoration="none" x="200" y="390">UNREGISTERED</text><text fill="#eeeeee" stroke="none" font-family="Arial" font-size="24px" font-style="normal" font-weight="normal" text-decoration="none" x="200" y="420">UNREGISTERED</text><text fill="#eeeeee" stroke="none" font-family="Arial" font-size="24px" font-style="normal" font-weight="normal" text-decoration="none" x="200" y="450">UNREGISTERED</text><text fill="#eeeeee" stroke="none" font-family="Arial" font-size="24px" font-style="normal" font-weight="normal" text-decoration="none" x="200" y="480">UNREGISTERED</text><text fill="#eeeeee" stroke="none" font-family="Arial" font-size="24px" font-style="normal" font-weight="normal" text-decoration="none" x="400" y="0">UNREGISTERED</text><text fill="#eeeeee" stroke="none" font-family="Arial" font-size="24px" font-style="normal" font-weight="normal" text-decoration="none" x="400" y="30">UNREGISTERED</text><text fill="#eeeeee" stroke="none" font-family="Arial" font-size="24px" font-style="normal" font-weight="normal" text-decoration="none" x="400" y="60">UNREGISTERED</text><text fill="#eeeeee" stroke="none" font-family="Arial" font-size="24px" font-style="normal" font-weight="normal" text-decoration="none" x="400" y="90">UNREGISTERED</text><text fill="#eeeeee" stroke="none" font-family="Arial" font-size="24px" font-style="normal" font-weight="normal" text-decoration="none" x="400" y="120">UNREGISTERED</text><text fill="#eeeeee" stroke="none" font-family="Arial" font-size="24px" font-style="normal" font-weight="normal" text-decoration="none" x="400" y="150">UNREGISTERED</text><text fill="#eeeeee" stroke="none" font-family="Arial" font-size="24px" font-style="normal" font-weight="normal" text-decoration="none" x="400" y="180">UNREGISTERED</text><text fill="#eeeeee" stroke="none" font-family="Arial" font-size="24px" font-style="normal" font-weight="normal" text-decoration="none" x="400" y="210">UNREGISTERED</text><text fill="#eeeeee" stroke="none" font-family="Arial" font-size="24px" font-style="normal" font-weight="normal" text-decoration="none" x="400" y="240">UNREGISTERED</text><text fill="#eeeeee" stroke="none" font-family="Arial" font-size="24px" font-style="normal" font-weight="normal" text-decoration="none" x="400" y="270">UNREGISTERED</text><text fill="#eeeeee" stroke="none" font-family="Arial" font-size="24px" font-style="normal" font-weight="normal" text-decoration="none" x="400" y="300">UNREGISTERED</text><text fill="#eeeeee" stroke="none" font-family="Arial" font-size="24px" font-style="normal" font-weight="normal" text-decoration="none" x="400" y="330">UNREGISTERED</text><text fill="#eeeeee" stroke="none" font-family="Arial" font-size="24px" font-style="normal" font-weight="normal" text-decoration="none" x="400" y="360">UNREGISTERED</text><text fill="#eeeeee" stroke="none" font-family="Arial" font-size="24px" font-style="normal" font-weight="normal" text-decoration="none" x="400" y="390">UNREGISTERED</text><text fill="#eeeeee" stroke="none" font-family="Arial" font-size="24px" font-style="normal" font-weight="normal" text-decoration="none" x="400" y="420">UNREGISTERED</text><text fill="#eeeeee" stroke="none" font-family="Arial" font-size="24px" font-style="normal" font-weight="normal" text-decoration="none" x="400" y="450">UNREGISTERED</text><text fill="#eeeeee" stroke="none" font-family="Arial" font-size="24px" font-style="normal" font-weight="normal" text-decoration="none" x="400" y="480">UNREGISTERED</text><g transform="translate(-118,-238) scale(1,1)"><rect fill="#ffffff" stroke="none" x="128" y="248" width="264" height="21"/></g><g transform="translate(-118,-238) scale(1,1)"><path fill="none" stroke="#000000" d="M 128 248 L 392 248 L 392 269 L 128 269 L 128 248 Z Z" stroke-miterlimit="10" stroke-width="2"/></g><g transform="translate(-118,-238) scale(1,1)"><path fill="none" stroke="#000000" d="M 128 720 L 128 248 L 392 248 L 392 720" stroke-miterlimit="10" stroke-width="2"/></g><g transform="translate(-118,-238) scale(1,1)"><g><path fill="none" stroke="none"/><text fill="#000000" stroke="none" font-family="Arial" font-size="13px" font-style="normal" font-weight="normal" text-decoration="none" x="233.984130859375" y="265">Benutzer</text></g></g><g transform="translate(-118,-238) scale(1,1)"><path fill="none" stroke="#000000" d="M 152 577.5 C 152 570.59644 157.59644 565 164.5 565 C 171.40356 565 177 570.59644 177 577.5 C 177 584.40356 171.40356 590 164.5 590 C 157.59644 590 152 584.40356 152 577.5 Z" stroke-miterlimit="10"/></g><g transform="translate(-118,-238) scale(1,1)"><path fill="#000000" stroke="none" d="M 157 577.5 C 157 573.357864 160.357864 570 164.5 570 C 168.642136 570 172 573.357864 172 577.5 C 172 581.642136 168.642136 585 164.5 585 C 160.357864 585 157 581.642136 157 577.5 Z"/></g><g transform="translate(-118,-238) scale(1,1)"><path fill="#ffffff" stroke="none" d="M 256 577 L 267 568 L 278 577 L 267 586 L 256 577"/></g><g transform="translate(-118,-238) scale(1,1)"><path fill="none" stroke="#000000" d="M 256 577 L 267 568 L 278 577 L 267 586 L 256 577 L 256 577" stroke-miterlimit="10"/></g><g transform="translate(-118,-238) scale(1,1)"><rect fill="#ffffff" stroke="none" x="392" y="248" width="264" height="21"/></g><g transform="translate(-118,-238) scale(1,1)"><path fill="none" stroke="#000000" d="M 392 248 L 656 248 L 656 269 L 392 269 L 392 248 Z Z" stroke-miterlimit="10" stroke-width="2"/></g><g transform="translate(-118,-238) scale(1,1)"><path fill="none" stroke="#000000" d="M 392 720 L 392 248 L 656 248 L 656 720" stroke-miterlimit="10" stroke-width="2"/></g><g transform="translate(-118,-238) scale(1,1)"><g><path fill="none" stroke="none"/><text fill="#000000" stroke="none" font-family="Arial" font-size="13px" font-style="normal" font-weight="normal" text-decoration="none" x="502.3291015625" y="265">System</text></g></g><g transform="translate(-118,-238) scale(1,1)"><path fill="#000000" stroke="none" d="M 258 313.5 C 258 308.2532944 262.2532944 304 267.5 304 C 272.7467056 304 277 308.2532944 277 313.5 C 277 318.7467056 272.7467056 323 267.5 323 C 262.2532944 323 258 318.7467056 258 313.5 Z"/></g><g transform="translate(-118,-238) scale(1,1)"><path fill="#ffffff" stroke="none" d="M 200 440 L 334.9326171875 440 Q 344.9326171875 440 344.9326171875 450 L 344.9326171875 470 Q 344.9326171875 480 334.9326171875 480 L 200 480 Q 190 480 190 470 L 190 450 Q 190 440 200 440 Z"/></g><g transform="translate(-118,-238) scale(1,1)"><path fill="none" stroke="#000000" d="M 200 440 L 334.9326171875 440 Q 344.9326171875 440 344.9326171875 450 L 344.9326171875 470 Q 344.9326171875 480 334.9326171875 480 L 200 480 Q 190 480 190 470 L 190 450 Q 190 440 200 440 Z" stroke-miterlimit="10"/></g><g transform="translate(-118,-238) scale(1,1)"><g><path fill="none" stroke="none"/><text fill="#000000" stroke="none" font-family="Arial" font-size="13px" font-style="normal" font-weight="bold" text-decoration="none" x="199.536865234375" y="459.5">Reservierung entfernen</text></g></g><g transform="translate(-118,-238) scale(1,1)"><path fill="none" stroke="#000000" d="M 267 481 L 267 567" stroke-miterlimit="10"/></g><g transform="translate(-118,-238) scale(1,1)"><path fill="none" stroke="#000000" d="M 262.790482243984 556.8373251423759 L 267 567 L 271.209517756016 556.8373251423759" stroke-miterlimit="10"/></g><g transform="translate(-118,-238) scale(1,1)"><g><path fill="none" stroke="none"/><text fill="#000000" stroke="none" font-family="Arial" font-size="13px" font-style="normal" font-weight="normal" text-decoration="none" x="278.5" y="520.5">[bestätigen]</text></g></g><g transform="translate(-118,-238) scale(1,1)"><path fill="none" stroke="#000000" d="M 255 577 L 178 577" stroke-miterlimit="10"/></g><g transform="translate(-118,-238) scale(1,1)"><path fill="none" stroke="#000000" d="M 188.16267485762415 572.790482243984 L 178 577 L 188.16267485762415 581.209517756016" stroke-miterlimit="10"/></g><g transform="translate(-118,-238) scale(1,1)"><g><path fill="none" stroke="none"/><text fill="#000000" stroke="none" font-family="Arial" font-size="13px" font-style="normal" font-weight="normal" text-decoration="none" x="202.5" y="570.5">[nein]</text></g></g><g transform="translate(-118,-238) scale(1,1)"><path fill="#ffffff" stroke="none" d="M 466 557 L 605.2744140625 557 Q 615.2744140625 557 615.2744140625 567 L 615.2744140625 587 Q 615.2744140625 597 605.2744140625 597 L 466 597 Q 456 597 456 587 L 456 567 Q 456 557 466 557 Z"/></g><g transform="translate(-118,-238) scale(1,1)"><path fill="none" stroke="#000000" d="M 466 557 L 605.2744140625 557 Q 615.2744140625 557 615.2744140625 567 L 615.2744140625 587 Q 615.2744140625 597 605.2744140625 597 L 466 597 Q 456 597 456 587 L 456 567 Q 456 557 466 557 Z" stroke-miterlimit="10"/></g><g transform="translate(-118,-238) scale(1,1)"><g><path fill="none" stroke="none"/><text fill="#000000" stroke="none" font-family="Arial" font-size="13px" font-style="normal" font-weight="bold" text-decoration="none" x="466.27001953125" y="576.5">Reservierung stornieren</text></g></g><g transform="translate(-118,-238) scale(1,1)"><path fill="none" stroke="#000000" d="M 279 577 L 455 577" stroke-miterlimit="10"/></g><g transform="translate(-118,-238) scale(1,1)"><path fill="none" stroke="#000000" d="M 444.83732514237585 581.209517756016 L 455 577 L 444.83732514237585 572.790482243984" stroke-miterlimit="10"/></g><g transform="translate(-118,-238) scale(1,1)"><g><path fill="none" stroke="none"/><text fill="#000000" stroke="none" font-family="Arial" font-size="13px" font-style="normal" font-weight="normal" text-decoration="none" x="302.84912109375" y="568.5">[ja]</text></g></g><g transform="translate(-118,-238) scale(1,1)"><path fill="none" stroke="#000000" d="M 535 598 L 535 647" stroke-miterlimit="10"/></g><g transform="translate(-118,-238) scale(1,1)"><path fill="none" stroke="#000000" d="M 530.790482243984 636.8373251423759 L 535 647 L 539.209517756016 636.8373251423759" stroke-miterlimit="10"/></g><g transform="translate(-118,-238) scale(1,1)"><path fill="none" stroke="#000000" d="M 267 324 L 267 439" stroke-miterlimit="10"/></g><g transform="translate(-118,-238) scale(1,1)"><path fill="none" stroke="#000000" d="M 262.790482243984 428.83732514237585 L 267 439 L 271.209517756016 428.83732514237585" stroke-miterlimit="10"/></g><g transform="translate(-118,-238) scale(1,1)"><path fill="none" stroke="#000000" d="M 523 660.5 C 523 653.59644 528.59644 648 535.5 648 C 542.40356 648 548 653.59644 548 660.5 C 548 667.40356 542.40356 673 535.5 673 C 528.59644 673 523 667.40356 523 660.5 Z" stroke-miterlimit="10"/></g><g transform="translate(-118,-238) scale(1,1)"><path fill="#000000" stroke="none" d="M 528 660.5 C 528 656.357864 531.357864 653 535.5 653 C 539.642136 653 543 656.357864 543 660.5 C 543 664.642136 539.642136 668 535.5 668 C 531.357864 668 528 664.642136 528 660.5 Z"/></g></g></svg>