<svg version="1.1" xmlns="http://www.w3.org/2000/svg" xmlns:xlink="http://www.w3.org/1999/xlink" width="500" height="620"><defs/><g><text fill="#eeeeee" stroke="none" font-family="Arial" font-size="24px" font-style="normal" font-weight="normal" text-decoration="none" x="0" y="0">UNREGISTERED</text><text fill="#eeeeee" stroke="none" font-family="Arial" font-size="24px" font-style="normal" font-weight="normal" text-decoration="none" x="0" y="30">UNREGISTERED</text><text fill="#eeeeee" stroke="none" font-family="Arial" font-size="24px" font-style="normal" font-weight="normal" text-decoration="none" x="0" y="60">UNREGISTERED</text><text fill="#eeeeee" stroke="none" font-family="Arial" font-size="24px" font-style="normal" font-weight="normal" text-decoration="none" x="0" y="90">UNREGISTERED</text><text fill="#eeeeee" stroke="none" font-family="Arial" font-size="24px" font-style="normal" font-weight="normal" text-decoration="none" x="0" y="120">UNREGISTERED</text><text fill="#eeeeee" stroke="none" font-family="Arial" font-size="24px" font-style="normal" font-weight="normal" text-decoration="none" x="0" y="150">UNREGISTERED</text><text fill="#eeeeee" stroke="none" font-family="Arial" font-size="24px" font-style="normal" font-weight="normal" text-decoration="none" x="0" y="180">UNREGISTERED</text><text fill="#eeeeee" stroke="none" font-family="Arial" font-size="24px" font-style="normal" font-weight="normal" text-decoration="none" x="0" y="210">UNREGISTERED</text><text fill="#eeeeee" stroke="none" font-family="Arial" font-size="24px" font-style="normal" font-weight="normal" text-decoration="none" x="0" y="240">UNREGISTERED</text><text fill="#eeeeee" stroke="none" font-family="Arial" font-size="24px" font-style="normal" font-weight="normal" text-decoration="none" x="0" y="270">UNREGISTERED</text><text fill="#eeeeee" stroke="none" font-family="Arial" font-size="24px" font-style="normal" font-weight="normal" text-decoration="none" x="0" y="300">UNREGISTERED</text><text fill="#eeeeee" stroke="none" font-family="Arial" font-size="24px" font-style="normal" font-weight="normal" text-decoration="none" x="0" y="330">UNREGISTERED</text><text fill="#eeeeee" stroke="none" font-family="Arial" font-size="24px" font-style="normal" font-weight="normal" text-decoration="none" x="0" y="360">UNREGISTERED</text><text fill="#eeeeee" stroke="none" font-family="Arial" font-size="24px" font-style="normal" font-weight="normal" text-decoration="none" x="0" y="390">UNREGISTERED</text><text fill="#eeeeee" stroke="none" font-family="Arial" font-size="24px" font-style="normal" font-weight="normal" text-decoration="none" x="0" y="420">UNREGISTERED</text><text fill="#eeeeee" stroke="none" font-family="Arial" font-size="24px" font-style="normal" font-weight="normal" text-decoration="none" x="0" y="450">UNREGISTERED</text><text fill="#eeeeee" stroke="none" font-family="Arial" font-size="24px" font-style="normal" font-weight="normal" text-decoration="none" x="0" y="480">UNREGISTERED</text><text fill="#eeeeee" stroke="none" font-family="Arial" font-size="24px" font-style="normal" font-weight="normal" text-decoration="none" x="0" y="510">UNREGISTERED</text><text fill="#eeeeee" stroke="none" font-family="Arial" font-size="24px" font-style="normal" font-weight="normal" text-decoration="none" x="0" y="540">UNREGISTERED</text><text fill="#eeeeee" stroke="none" font-family="Arial" font-size="24px" font-style="normal" font-weight="normal" text-decoration="none" x="0" y="570">UNREGISTERED</text><text fill="#eeeeee" stroke="none" font-family="Arial" font-size="24px" font-style="normal" font-weight="normal" text-decoration="none" x="0" y="600">UNREGISTERED</text><text fill="#eeeeee" stroke="none" font-family="Arial" font-size="24px" font-style="normal" font-weight="normal" text-decoration="none" x="200" y="0">UNREGISTERED</text><text fill="#eeeeee" stroke="none" font-family="Arial" font-size="24px" font-style="normal" font-weight="normal" text-decoration="none" x="200" y="30">UNREGISTERED</text><text fill="#eeeeee" stroke="none" font-family="Arial" font-size="24px" font-style="normal" font-weight="normal" text-decoration="none" x="200" y="60">UNREGISTERED</text><text fill="#eeeeee" stroke="none" font-family="Arial" font-size="24px" font-style="normal" font-weight="normal" text-decoration="none" x="200" y="90">UNREGISTERED</text><text fill="#eeeeee" stroke="none" font-family="Arial" font-size="24px" font-style="normal" font-weight="normal" text-decoration="none" x="200" y="120">UNREGISTERED</text><text fill="#eeeeee" stroke="none" font-family="Arial" font-size="24px" font-style="normal" font-weight="normal" text-decoration="none" x="200" y="150">UNREGISTERED</text><text fill="#eeeeee" stroke="none" font-family="Arial" font-size="24px" font-style="normal" font-weight="normal" text-decoration="none" x="200" y="180">UNREGISTERED</text><text fill="#eeeeee" stroke="none" font-family="Arial" font-size="24px" font-style="normal" font-weight="normal" text-decoration="none" x="200" y="210">UNREGISTERED</text><text fill="#eeeeee" stroke="none" font-family="Arial" font-size="24px" font-style="normal" font-weight="normal" text-decoration="none" x="200" y="240">UNREGISTERED</text><text fill="#eeeeee" stroke="none" font-family="Arial" font-size="24px" font-style="normal" font-weight="normal" text-decoration="none" x="200" y="270">UNREGISTERED</text><text fill="#eeeeee" stroke="none" font-family="Arial" font-size="24px" font-style="normal" font-weight="normal" text-decoration="none" x="200" y="300">UNREGISTERED</text><text fill="#eeeeee" stroke="none" font-family="Arial" font-size="24px" font-style="normal" font-weight="normal" text-decoration="none" x="200" y="330">UNREGISTERED</text><text fill="#eeeeee" stroke="none" font-family="Arial" font-size="24px" font-style="normal" font-weight="normal" text-decoration="none" x="200" y="360">UNREGISTERED</text><text fill="#eeeeee" stroke="none" font-family="Arial" font-size="24px" font-style="normal" font-weight="normal" text-decoration="none" x="200" y="390">UNREGISTERED</text><text fill="#eeeeee" stroke="none" font-family="Arial" font-size="24px" font-style="normal" font-weight="normal" text-decoration="none" x="200" y="420">UNREGISTERED</text><text fill="#eeeeee" stroke="none" font-family="Arial" font-size="24px" font-style="normal" font-weight="normal" text-decoration="none" x="200" y="450">UNREGISTERED</text><text fill="#eeeeee" stroke="none" font-family="Arial" font-size="24px" font-style="normal" font-weight="normal" text-decoration="none" x="200" y="480">UNREGISTERED</text><text fill="#eeeeee" stroke="none" font-family="Arial" font-size="24px" font-style="normal" font-weight="normal" text-decoration="none" x="200" y="510">UNREGISTERED</text><text fill="#eeeeee" stroke="none" font-family="Arial" font-size="24px" font-style="normal" font-weight="normal" text-decoration="none" x="200" y="540">UNREGISTERED</text><text fill="#eeeeee" stroke="none" font-family="Arial" font-size="24px" font-style="normal" font-weight="normal" text-decoration="none" x="200" y="570">UNREGISTERED</text><text fill="#eeeeee" stroke="none" font-family="Arial" font-size="24px" font-style="normal" font-weight="normal" text-decoration="none" x="200" y="600">UNREGISTERED</text><text fill="#eeeeee" stroke="none" font-family="Arial" font-size="24px" font-style="normal" font-weight="normal" text-decoration="none" x="400" y="0">UNREGISTERED</text><text fill="#eeeeee" stroke="none" font-family="Arial" font-size="24px" font-style="normal" font-weight="normal" text-decoration="none" x="400" y="30">UNREGISTERED</text><text fill="#eeeeee" stroke="none" font-family="Arial" font-size="24px" font-style="normal" font-weight="normal" text-decoration="none" x="400" y="60">UNREGISTERED</text><text fill="#eeeeee" stroke="none" font-family="Arial" font-size="24px" font-style="normal" font-weight="normal" text-decoration="none" x="400" y="90">UNREGISTERED</text><text fill="#eeeeee" stroke="none" font-family="Arial" font-size="24px" font-style="normal" font-weight="normal" text-decoration="none" x="400" y="120">UNREGISTERED</text><text fill="#eeeeee" stroke="none" font-family="Arial" font-size="24px" font-style="normal" font-weight="normal" text-decoration="none" x="400" y="150">UNREGISTERED</text><text fill="#eeeeee" stroke="none" font-family="Arial" font-size="24px" font-style="normal" font-weight="normal" text-decoration="none" x="400" y="180">UNREGISTERED</text><text fill="#eeeeee" stroke="none" font-family="Arial" font-size="24px" font-style="normal" font-weight="normal" text-decoration="none" x="400" y="210">UNREGISTERED</text><text fill="#eeeeee" stroke="none" font-family="Arial" font-size="24px" font-style="normal" font-weight="normal" text-decoration="none" x="400" y="240">UNREGISTERED</text><text fill="#eeeeee" stroke="none" font-family="Arial" font-size="24px" font-style="normal" font-weight="normal" text-decoration="none" x="400" y="270">UNREGISTERED</text><text fill="#eeeeee" stroke="none" font-family="Arial" font-size="24px" font-style="normal" font-weight="normal" text-decoration="none" x="400" y="300">UNREGISTERED</text><text fill="#eeeeee" stroke="none" font-family="Arial" font-size="24px" font-style="normal" font-weight="normal" text-decoration="none" x="400" y="330">UNREGISTERED</text><text fill="#eeeeee" stroke="none" font-family="Arial" font-size="24px" font-style="normal" font-weight="normal" text-decoration="none" x="400" y="360">UNREGISTERED</text><text fill="#eeeeee" stroke="none" font-family="Arial" font-size="24px" font-style="normal" font-weight="normal" text-decoration="none" x="400" y="390">UNREGISTERED</text><text fill="#eeeeee" stroke="none" font-family="Arial" font-size="24px" font-style="normal" font-weight="normal" text-decoration="none" x="400" y="420">UNREGISTERED</text><text fill="#eeeeee" stroke="none" font-family="Arial" font-size="24px" font-style="normal" font-weight="normal" text-decoration="none" x="400" y="450">UNREGISTERED</text><text fill="#eeeeee" stroke="none" font-family="Arial" font-size="24px" font-style="normal" font-weight="normal" text-decoration="none" x="400" y="480">UNREGISTERED</text><text fill="#eeeeee" stroke="none" font-family="Arial" font-size="24px" font-style="normal" font-weight="normal" text-decoration="none" x="400" y="510">UNREGISTERED</text><text fill="#eeeeee" stroke="none" font-family="Arial" font-size="24px" font-style="normal" font-weight="normal" text-decoration="none" x="400" y="540">UNREGISTERED</text><text fill="#eeeeee" stroke="none" font-family="Arial" font-size="24px" font-style="normal" font-weight="normal" text-decoration="none" x="400" y="570">UNREGISTERED</text><text fill="#eeeeee" stroke="none" font-family="Arial" font-size="24px" font-style="normal" font-weight="normal" text-decoration="none" x="400" y="600">UNREGISTERED</text><g transform="translate(-86,-110) scale(1,1)"><path fill="none" stroke="#000000" d="M 242 188 L 242 233" stroke-miterlimit="10"/></g><g transform="translate(-86,-110) scale(1,1)"><path fill="none" stroke="#000000" d="M 237.790482243984 222.83732514237585 L 242 233 L 246.209517756016 222.83732514237585" stroke-miterlimit="10"/></g><g transform="translate(-86,-110) scale(1,1)"><path fill="#ffffff" stroke="none" d="M 231 418 L 242 409 L 253 418 L 242 427 L 231 418"/></g><g transform="translate(-86,-110) scale(1,1)"><path fill="none" stroke="#000000" d="M 231 418 L 242 409 L 253 418 L 242 427 L 231 418 L 231 418" stroke-miterlimit="10"/></g><g transform="translate(-86,-110) scale(1,1)"><path fill="none" stroke="#000000" d="M 245 275 L 251 320" stroke-miterlimit="10"/></g><g transform="translate(-86,-110) scale(1,1)"><path fill="none" stroke="#000000" d="M 245.48427163655893 310.4828186619813 L 251 320 L 253.82945453292294 309.37012760913274" stroke-miterlimit="10"/></g><g transform="translate(-86,-110) scale(1,1)"><path fill="none" stroke="#000000" d="M 251 362 L 244 408" stroke-miterlimit="10"/></g><g transform="translate(-86,-110) scale(1,1)"><path fill="none" stroke="#000000" d="M 241.36728455059213 397.3196999404301 L 244 408 L 249.69050165001806 398.5862764555601" stroke-miterlimit="10"/></g><g transform="translate(-86,-110) scale(1,1)"><path fill="none" stroke="#000000" d="M 120 418.5 C 120 411.59644 125.59644 406 132.5 406 C 139.40356 406 145 411.59644 145 418.5 C 145 425.40356 139.40356 431 132.5 431 C 125.59644 431 120 425.40356 120 418.5 Z" stroke-miterlimit="10"/></g><g transform="translate(-86,-110) scale(1,1)"><path fill="#000000" stroke="none" d="M 125 418.5 C 125 414.357864 128.357864 411 132.5 411 C 136.642136 411 140 414.357864 140 418.5 C 140 422.642136 136.642136 426 132.5 426 C 128.357864 426 125 422.642136 125 418.5 Z"/></g><g transform="translate(-86,-110) scale(1,1)"><path fill="none" stroke="#000000" d="M 230 418 L 146 418" stroke-miterlimit="10"/></g><g transform="translate(-86,-110) scale(1,1)"><path fill="none" stroke="#000000" d="M 156.16267485762415 413.790482243984 L 146 418 L 156.16267485762415 422.209517756016" stroke-miterlimit="10"/></g><g transform="translate(-86,-110) scale(1,1)"><g><path fill="none" stroke="none"/><text fill="#000000" stroke="none" font-family="Arial" font-size="13px" font-style="normal" font-weight="normal" text-decoration="none" x="151.5" y="444.5">[abbrechen]</text></g></g><g transform="translate(-86,-110) scale(1,1)"><path fill="#ffffff" stroke="none" d="M 415 398 L 543.41357421875 398 Q 553.41357421875 398 553.41357421875 408 L 553.41357421875 428 Q 553.41357421875 438 543.41357421875 438 L 415 438 Q 405 438 405 428 L 405 408 Q 405 398 415 398 Z"/></g><g transform="translate(-86,-110) scale(1,1)"><path fill="none" stroke="#000000" d="M 415 398 L 543.41357421875 398 Q 553.41357421875 398 553.41357421875 408 L 553.41357421875 428 Q 553.41357421875 438 543.41357421875 438 L 415 438 Q 405 438 405 428 L 405 408 Q 405 398 415 398 Z" stroke-miterlimit="10"/></g><g transform="translate(-86,-110) scale(1,1)"><g><path fill="none" stroke="none"/><text fill="#000000" stroke="none" font-family="Arial" font-size="13px" font-style="normal" font-weight="bold" text-decoration="none" x="414.156005859375" y="417.5">Prüfen ob ausgeliehen</text></g></g><g transform="translate(-86,-110) scale(1,1)"><path fill="none" stroke="#000000" d="M 254 418 L 404 418" stroke-miterlimit="10"/></g><g transform="translate(-86,-110) scale(1,1)"><path fill="none" stroke="#000000" d="M 393.83732514237585 422.209517756016 L 404 418 L 393.83732514237585 413.790482243984" stroke-miterlimit="10"/></g><g transform="translate(-86,-110) scale(1,1)"><g><path fill="none" stroke="none"/><text fill="#000000" stroke="none" font-family="Arial" font-size="13px" font-style="normal" font-weight="normal" text-decoration="none" x="294.5" y="444.5">[bestätigen]</text></g></g><g transform="translate(-86,-110) scale(1,1)"><path fill="#ffffff" stroke="none" d="M 468 500 L 479 491 L 490 500 L 479 509 L 468 500"/></g><g transform="translate(-86,-110) scale(1,1)"><path fill="none" stroke="#000000" d="M 468 500 L 479 491 L 490 500 L 479 509 L 468 500 L 468 500" stroke-miterlimit="10"/></g><g transform="translate(-86,-110) scale(1,1)"><path fill="#000000" stroke="none" d="M 233 177.5 C 233 172.2532944 237.2532944 168 242.5 168 C 247.7467056 168 252 172.2532944 252 177.5 C 252 182.7467056 247.7467056 187 242.5 187 C 237.2532944 187 233 182.7467056 233 177.5 Z"/></g><g transform="translate(-86,-110) scale(1,1)"><path fill="#ffffff" stroke="none" d="M 197 234 L 287.84814453125 234 Q 297.84814453125 234 297.84814453125 244 L 297.84814453125 264 Q 297.84814453125 274 287.84814453125 274 L 197 274 Q 187 274 187 264 L 187 244 Q 187 234 197 234 Z"/></g><g transform="translate(-86,-110) scale(1,1)"><path fill="none" stroke="#000000" d="M 197 234 L 287.84814453125 234 Q 297.84814453125 234 297.84814453125 244 L 297.84814453125 264 Q 297.84814453125 274 287.84814453125 274 L 197 274 Q 187 274 187 264 L 187 244 Q 187 234 197 234 Z" stroke-miterlimit="10"/></g><g transform="translate(-86,-110) scale(1,1)"><g><path fill="none" stroke="none"/><text fill="#000000" stroke="none" font-family="Arial" font-size="13px" font-style="normal" font-weight="bold" text-decoration="none" x="195.095947265625" y="253.5">Medium löschen</text></g></g><g transform="translate(-86,-110) scale(1,1)"><path fill="#ffffff" stroke="none" d="M 187 321 L 321.9453125 321 Q 331.9453125 321 331.9453125 331 L 331.9453125 351 Q 331.9453125 361 321.9453125 361 L 187 361 Q 177 361 177 351 L 177 331 Q 177 321 187 321 Z"/></g><g transform="translate(-86,-110) scale(1,1)"><path fill="none" stroke="#000000" d="M 187 321 L 321.9453125 321 Q 331.9453125 321 331.9453125 331 L 331.9453125 351 Q 331.9453125 361 321.9453125 361 L 187 361 Q 177 361 177 351 L 177 331 Q 177 321 187 321 Z" stroke-miterlimit="10"/></g><g transform="translate(-86,-110) scale(1,1)"><g><path fill="none" stroke="none"/><text fill="#000000" stroke="none" font-family="Arial" font-size="13px" font-style="normal" font-weight="bold" text-decoration="none" x="186.543212890625" y="340.5">Deaktivieren bestätigen</text></g></g><g transform="translate(-86,-110) scale(1,1)"><path fill="none" stroke="#000000" d="M 479 439 L 479 490" stroke-miterlimit="10"/></g><g transform="translate(-86,-110) scale(1,1)"><path fill="none" stroke="#000000" d="M 474.790482243984 479.83732514237585 L 479 490 L 483.209517756016 479.83732514237585" stroke-miterlimit="10"/></g><g transform="translate(-86,-110) scale(1,1)"><path fill="none" stroke="#000000" d="M 312 500.5 C 312 493.59644 317.59644 488 324.5 488 C 331.40356 488 337 493.59644 337 500.5 C 337 507.40356 331.40356 513 324.5 513 C 317.59644 513 312 507.40356 312 500.5 Z" stroke-miterlimit="10"/></g><g transform="translate(-86,-110) scale(1,1)"><path fill="#000000" stroke="none" d="M 317 500.5 C 317 496.357864 320.357864 493 324.5 493 C 328.642136 493 332 496.357864 332 500.5 C 332 504.642136 328.642136 508 324.5 508 C 320.357864 508 317 504.642136 317 500.5 Z"/></g><g transform="translate(-86,-110) scale(1,1)"><path fill="none" stroke="#000000" d="M 467 500 L 338 500" stroke-miterlimit="10"/></g><g transform="translate(-86,-110) scale(1,1)"><path fill="none" stroke="#000000" d="M 348.16267485762415 495.790482243984 L 338 500 L 348.16267485762415 504.209517756016" stroke-miterlimit="10"/></g><g transform="translate(-86,-110) scale(1,1)"><g><path fill="none" stroke="none"/><text fill="#000000" stroke="none" font-family="Arial" font-size="13px" font-style="normal" font-weight="normal" text-decoration="none" x="392.160400390625" y="521.5">[ja]</text></g></g><g transform="translate(-86,-110) scale(1,1)"><path fill="#ffffff" stroke="none" d="M 434 584 L 524.84814453125 584 Q 534.84814453125 584 534.84814453125 594 L 534.84814453125 614 Q 534.84814453125 624 524.84814453125 624 L 434 624 Q 424 624 424 614 L 424 594 Q 424 584 434 584 Z"/></g><g transform="translate(-86,-110) scale(1,1)"><path fill="none" stroke="#000000" d="M 434 584 L 524.84814453125 584 Q 534.84814453125 584 534.84814453125 594 L 534.84814453125 614 Q 534.84814453125 624 524.84814453125 624 L 434 624 Q 424 624 424 614 L 424 594 Q 424 584 434 584 Z" stroke-miterlimit="10"/></g><g transform="translate(-86,-110) scale(1,1)"><g><path fill="none" stroke="none"/><text fill="#000000" stroke="none" font-family="Arial" font-size="13px" font-style="normal" font-weight="bold" text-decoration="none" x="432.095947265625" y="603.5">Medium löschen</text></g></g><g transform="translate(-86,-110) scale(1,1)"><path fill="none" stroke="#000000" d="M 479 510 L 479 583" stroke-miterlimit="10"/></g><g transform="translate(-86,-110) scale(1,1)"><path fill="none" stroke="#000000" d="M 474.790482243984 572.8373251423759 L 479 583 L 483.209517756016 572.8373251423759" stroke-miterlimit="10"/></g><g transform="translate(-86,-110) scale(1,1)"><g><path fill="none" stroke="none"/><text fill="#000000" stroke="none" font-family="Arial" font-size="13px" font-style="normal" font-weight="normal" text-decoration="none" x="486.5" y="551.5">[nein]</text></g></g><g transform="translate(-86,-110) scale(1,1)"><path fill="none" stroke="#000000" d="M 467 676.5 C 467 669.59644 472.59644 664 479.5 664 C 486.40356 664 492 669.59644 492 676.5 C 492 683.40356 486.40356 689 479.5 689 C 472.59644 689 467 683.40356 467 676.5 Z" stroke-miterlimit="10"/></g><g transform="translate(-86,-110) scale(1,1)"><path fill="#000000" stroke="none" d="M 472 676.5 C 472 672.357864 475.357864 669 479.5 669 C 483.642136 669 487 672.357864 487 676.5 C 487 680.642136 483.642136 684 479.5 684 C 475.357864 684 472 680.642136 472 676.5 Z"/></g><g transform="translate(-86,-110) scale(1,1)"><path fill="none" stroke="#000000" d="M 479 625 L 479 663" stroke-miterlimit="10"/></g><g transform="translate(-86,-110) scale(1,1)"><path fill="none" stroke="#000000" d="M 474.790482243984 652.8373251423759 L 479 663 L 483.209517756016 652.8373251423759" stroke-miterlimit="10"/></g><g transform="translate(-86,-110) scale(1,1)"><rect fill="#ffffff" stroke="none" x="96" y="120" width="272" height="21"/></g><g transform="translate(-86,-110) scale(1,1)"><path fill="none" stroke="#000000" d="M 96 120 L 368 120 L 368 141 L 96 141 L 96 120 Z Z" stroke-miterlimit="10" stroke-width="2"/></g><g transform="translate(-86,-110) scale(1,1)"><path fill="none" stroke="#000000" d="M 96 720 L 96 120 L 368 120 L 368 720" stroke-miterlimit="10" stroke-width="2"/></g><g transform="translate(-86,-110) scale(1,1)"><g><path fill="none" stroke="none"/><text fill="#000000" stroke="none" font-family="Arial" font-size="13px" font-style="normal" font-weight="normal" text-decoration="none" x="213.575927734375" y="137">Admin</text></g></g><g transform="translate(-86,-110) scale(1,1)"><rect fill="#ffffff" stroke="none" x="368" y="120" width="208" height="21"/></g><g transform="translate(-86,-110) scale(1,1)"><path fill="none" stroke="#000000" d="M 368 120 L 576 120 L 576 141 L 368 141 L 368 120 Z Z" stroke-miterlimit="10" stroke-width="2"/></g><g transform="translate(-86,-110) scale(1,1)"><path fill="none" stroke="#000000" d="M 368 720 L 368 120 L 576 120 L 576 720" stroke-miterlimit="10" stroke-width="2"/></g><g transform="translate(-86,-110) scale(1,1)"><g><path fill="none" stroke="none"/><text fill="#000000" stroke="none" font-family="Arial" font-size="13px" font-style="normal" font-weight="normal" text-decoration="none" x="450.3291015625" y="137">System</text></g></g></g></svg>