<svg version="1.1" xmlns="http://www.w3.org/2000/svg" xmlns:xlink="http://www.w3.org/1999/xlink" width="676" height="532"><defs/><g><text fill="#eeeeee" stroke="none" font-family="Arial" font-size="24px" font-style="normal" font-weight="normal" text-decoration="none" x="0" y="0">UNREGISTERED</text><text fill="#eeeeee" stroke="none" font-family="Arial" font-size="24px" font-style="normal" font-weight="normal" text-decoration="none" x="0" y="30">UNREGISTERED</text><text fill="#eeeeee" stroke="none" font-family="Arial" font-size="24px" font-style="normal" font-weight="normal" text-decoration="none" x="0" y="60">UNREGISTERED</text><text fill="#eeeeee" stroke="none" font-family="Arial" font-size="24px" font-style="normal" font-weight="normal" text-decoration="none" x="0" y="90">UNREGISTERED</text><text fill="#eeeeee" stroke="none" font-family="Arial" font-size="24px" font-style="normal" font-weight="normal" text-decoration="none" x="0" y="120">UNREGISTERED</text><text fill="#eeeeee" stroke="none" font-family="Arial" font-size="24px" font-style="normal" font-weight="normal" text-decoration="none" x="0" y="150">UNREGISTERED</text><text fill="#eeeeee" stroke="none" font-family="Arial" font-size="24px" font-style="normal" font-weight="normal" text-decoration="none" x="0" y="180">UNREGISTERED</text><text fill="#eeeeee" stroke="none" font-family="Arial" font-size="24px" font-style="normal" font-weight="normal" text-decoration="none" x="0" y="210">UNREGISTERED</text><text fill="#eeeeee" stroke="none" font-family="Arial" font-size="24px" font-style="normal" font-weight="normal" text-decoration="none" x="0" y="240">UNREGISTERED</text><text fill="#eeeeee" stroke="none" font-family="Arial" font-size="24px" font-style="normal" font-weight="normal" text-decoration="none" x="0" y="270">UNREGISTERED</text><text fill="#eeeeee" stroke="none" font-family="Arial" font-size="24px" font-style="normal" font-weight="normal" text-decoration="none" x="0" y="300">UNREGISTERED</text><text fill="#eeeeee" stroke="none" font-family="Arial" font-size="24px" font-style="normal" font-weight="normal" text-decoration="none" x="0" y="330">UNREGISTERED</text><text fill="#eeeeee" stroke="none" font-family="Arial" font-size="24px" font-style="normal" font-weight="normal" text-decoration="none" x="0" y="360">UNREGISTERED</text><text fill="#eeeeee" stroke="none" font-family="Arial" font-size="24px" font-style="normal" font-weight="normal" text-decoration="none" x="0" y="390">UNREGISTERED</text><text fill="#eeeeee" stroke="none" font-family="Arial" font-size="24px" font-style="normal" font-weight="normal" text-decoration="none" x="0" y="420">UNREGISTERED</text><text fill="#eeeeee" stroke="none" font-family="Arial" font-size="24px" font-style="normal" font-weight="normal" text-decoration="none" x="0" y="450">UNREGISTERED</text><text fill="#eeeeee" stroke="none" font-family="Arial" font-size="24px" font-style="normal" font-weight="normal" text-decoration="none" x="0" y="480">UNREGISTERED</text><text fill="#eeeeee" stroke="none" font-family="Arial" font-size="24px" font-style="normal" font-weight="normal" text-decoration="none" x="0" y="510">UNREGISTERED</text><text fill="#eeeeee" stroke="none" font-family="Arial" font-size="24px" font-style="normal" font-weight="normal" text-decoration="none" x="200" y="0">UNREGISTERED</text><text fill="#eeeeee" stroke="none" font-family="Arial" font-size="24px" font-style="normal" font-weight="normal" text-decoration="none" x="200" y="30">UNREGISTERED</text><text fill="#eeeeee" stroke="none" font-family="Arial" font-size="24px" font-style="normal" font-weight="normal" text-decoration="none" x="200" y="60">UNREGISTERED</text><text fill="#eeeeee" stroke="none" font-family="Arial" font-size="24px" font-style="normal" font-weight="normal" text-decoration="none" x="200" y="90">UNREGISTERED</text><text fill="#eeeeee" stroke="none" font-family="Arial" font-size="24px" font-style="normal" font-weight="normal" text-decoration="none" x="200" y="120">UNREGISTERED</text><text fill="#eeeeee" stroke="none" font-family="Arial" font-size="24px" font-style="normal" font-weight="normal" text-decoration="none" x="200" y="150">UNREGISTERED</text><text fill="#eeeeee" stroke="none" font-family="Arial" font-size="24px" font-style="normal" font-weight="normal" text-decoration="none" x="200" y="180">UNREGISTERED</text><text fill="#eeeeee" stroke="none" font-family="Arial" font-size="24px" font-style="normal" font-weight="normal" text-decoration="none" x="200" y="210">UNREGISTERED</text><text fill="#eeeeee" stroke="none" font-family="Arial" font-size="24px" font-style="normal" font-weight="normal" text-decoration="none" x="200" y="240">UNREGISTERED</text><text fill="#eeeeee" stroke="none" font-family="Arial" font-size="24px" font-style="normal" font-weight="normal" text-decoration="none" x="200" y="270">UNREGISTERED</text><text fill="#eeeeee" stroke="none" font-family="Arial" font-size="24px" font-style="normal" font-weight="normal" text-decoration="none" x="200" y="300">UNREGISTERED</text><text fill="#eeeeee" stroke="none" font-family="Arial" font-size="24px" font-style="normal" font-weight="normal" text-decoration="none" x="200" y="330">UNREGISTERED</text><text fill="#eeeeee" stroke="none" font-family="Arial" font-size="24px" font-style="normal" font-weight="normal" text-decoration="none" x="200" y="360">UNREGISTERED</text><text fill="#eeeeee" stroke="none" font-family="Arial" font-size="24px" font-style="normal" font-weight="normal" text-decoration="none" x="200" y="390">UNREGISTERED</text><text fill="#eeeeee" stroke="none" font-family="Arial" font-size="24px" font-style="normal" font-weight="normal" text-decoration="none" x="200" y="420">UNREGISTERED</text><text fill="#eeeeee" stroke="none" font-family="Arial" font-size="24px" font-style="normal" font-weight="normal" text-decoration="none" x="200" y="450">UNREGISTERED</text><text fill="#eeeeee" stroke="none" font-family="Arial" font-size="24px" font-style="normal" font-weight="normal" text-decoration="none" x="200" y="480">UNREGISTERED</text><text fill="#eeeeee" stroke="none" font-family="Arial" font-size="24px" font-style="normal" font-weight="normal" text-decoration="none" x="200" y="510">UNREGISTERED</text><text fill="#eeeeee" stroke="none" font-family="Arial" font-size="24px" font-style="normal" font-weight="normal" text-decoration="none" x="400" y="0">UNREGISTERED</text><text fill="#eeeeee" stroke="none" font-family="Arial" font-size="24px" font-style="normal" font-weight="normal" text-decoration="none" x="400" y="30">UNREGISTERED</text><text fill="#eeeeee" stroke="none" font-family="Arial" font-size="24px" font-style="normal" font-weight="normal" text-decoration="none" x="400" y="60">UNREGISTERED</text><text fill="#eeeeee" stroke="none" font-family="Arial" font-size="24px" font-style="normal" font-weight="normal" text-decoration="none" x="400" y="90">UNREGISTERED</text><text fill="#eeeeee" stroke="none" font-family="Arial" font-size="24px" font-style="normal" font-weight="normal" text-decoration="none" x="400" y="120">UNREGISTERED</text><text fill="#eeeeee" stroke="none" font-family="Arial" font-size="24px" font-style="normal" font-weight="normal" text-decoration="none" x="400" y="150">UNREGISTERED</text><text fill="#eeeeee" stroke="none" font-family="Arial" font-size="24px" font-style="normal" font-weight="normal" text-decoration="none" x="400" y="180">UNREGISTERED</text><text fill="#eeeeee" stroke="none" font-family="Arial" font-size="24px" font-style="normal" font-weight="normal" text-decoration="none" x="400" y="210">UNREGISTERED</text><text fill="#eeeeee" stroke="none" font-family="Arial" font-size="24px" font-style="normal" font-weight="normal" text-decoration="none" x="400" y="240">UNREGISTERED</text><text fill="#eeeeee" stroke="none" font-family="Arial" font-size="24px" font-style="normal" font-weight="normal" text-decoration="none" x="400" y="270">UNREGISTERED</text><text fill="#eeeeee" stroke="none" font-family="Arial" font-size="24px" font-style="normal" font-weight="normal" text-decoration="none" x="400" y="300">UNREGISTERED</text><text fill="#eeeeee" stroke="none" font-family="Arial" font-size="24px" font-style="normal" font-weight="normal" text-decoration="none" x="400" y="330">UNREGISTERED</text><text fill="#eeeeee" stroke="none" font-family="Arial" font-size="24px" font-style="normal" font-weight="normal" text-decoration="none" x="400" y="360">UNREGISTERED</text><text fill="#eeeeee" stroke="none" font-family="Arial" font-size="24px" font-style="normal" font-weight="normal" text-decoration="none" x="400" y="390">UNREGISTERED</text><text fill="#eeeeee" stroke="none" font-family="Arial" font-size="24px" font-style="normal" font-weight="normal" text-decoration="none" x="400" y="420">UNREGISTERED</text><text fill="#eeeeee" stroke="none" font-family="Arial" font-size="24px" font-style="normal" font-weight="normal" text-decoration="none" x="400" y="450">UNREGISTERED</text><text fill="#eeeeee" stroke="none" font-family="Arial" font-size="24px" font-style="normal" font-weight="normal" text-decoration="none" x="400" y="480">UNREGISTERED</text><text fill="#eeeeee" stroke="none" font-family="Arial" font-size="24px" font-style="normal" font-weight="normal" text-decoration="none" x="400" y="510">UNREGISTERED</text><text fill="#eeeeee" stroke="none" font-family="Arial" font-size="24px" font-style="normal" font-weight="normal" text-decoration="none" x="600" y="0">UNREGISTERED</text><text fill="#eeeeee" stroke="none" font-family="Arial" font-size="24px" font-style="normal" font-weight="normal" text-decoration="none" x="600" y="30">UNREGISTERED</text><text fill="#eeeeee" stroke="none" font-family="Arial" font-size="24px" font-style="normal" font-weight="normal" text-decoration="none" x="600" y="60">UNREGISTERED</text><text fill="#eeeeee" stroke="none" font-family="Arial" font-size="24px" font-style="normal" font-weight="normal" text-decoration="none" x="600" y="90">UNREGISTERED</text><text fill="#eeeeee" stroke="none" font-family="Arial" font-size="24px" font-style="normal" font-weight="normal" text-decoration="none" x="600" y="120">UNREGISTERED</text><text fill="#eeeeee" stroke="none" font-family="Arial" font-size="24px" font-style="normal" font-weight="normal" text-decoration="none" x="600" y="150">UNREGISTERED</text><text fill="#eeeeee" stroke="none" font-family="Arial" font-size="24px" font-style="normal" font-weight="normal" text-decoration="none" x="600" y="180">UNREGISTERED</text><text fill="#eeeeee" stroke="none" font-family="Arial" font-size="24px" font-style="normal" font-weight="normal" text-decoration="none" x="600" y="210">UNREGISTERED</text><text fill="#eeeeee" stroke="none" font-family="Arial" font-size="24px" font-style="normal" font-weight="normal" text-decoration="none" x="600" y="240">UNREGISTERED</text><text fill="#eeeeee" stroke="none" font-family="Arial" font-size="24px" font-style="normal" font-weight="normal" text-decoration="none" x="600" y="270">UNREGISTERED</text><text fill="#eeeeee" stroke="none" font-family="Arial" font-size="24px" font-style="normal" font-weight="normal" text-decoration="none" x="600" y="300">UNREGISTERED</text><text fill="#eeeeee" stroke="none" font-family="Arial" font-size="24px" font-style="normal" font-weight="normal" text-decoration="none" x="600" y="330">UNREGISTERED</text><text fill="#eeeeee" stroke="none" font-family="Arial" font-size="24px" font-style="normal" font-weight="normal" text-decoration="none" x="600" y="360">UNREGISTERED</text><text fill="#eeeeee" stroke="none" font-family="Arial" font-size="24px" font-style="normal" font-weight="normal" text-decoration="none" x="600" y="390">UNREGISTERED</text><text fill="#eeeeee" stroke="none" font-family="Arial" font-size="24px" font-style="normal" font-weight="normal" text-decoration="none" x="600" y="420">UNREGISTERED</text><text fill="#eeeeee" stroke="none" font-family="Arial" font-size="24px" font-style="normal" font-weight="normal" text-decoration="none" x="600" y="450">UNREGISTERED</text><text fill="#eeeeee" stroke="none" font-family="Arial" font-size="24px" font-style="normal" font-weight="normal" text-decoration="none" x="600" y="480">UNREGISTERED</text><text fill="#eeeeee" stroke="none" font-family="Arial" font-size="24px" font-style="normal" font-weight="normal" text-decoration="none" x="600" y="510">UNREGISTERED</text><g transform="translate(-22,-174) scale(1,1)"><rect fill="#ffffff" stroke="none" x="328" y="184" width="360" height="21"/></g><g transform="translate(-22,-174) scale(1,1)"><path fill="none" stroke="#000000" d="M 328 184 L 688 184 L 688 205 L 328 205 L 328 184 Z Z" stroke-miterlimit="10" stroke-width="2"/></g><g transform="translate(-22,-174) scale(1,1)"><path fill="none" stroke="#000000" d="M 328 696 L 328 184 L 688 184 L 688 696" stroke-miterlimit="10" stroke-width="2"/></g><g transform="translate(-22,-174) scale(1,1)"><g><path fill="none" stroke="none"/><text fill="#000000" stroke="none" font-family="Arial" font-size="13px" font-style="normal" font-weight="normal" text-decoration="none" x="486.3291015625" y="201">System</text></g></g><g transform="translate(-22,-174) scale(1,1)"><rect fill="#ffffff" stroke="none" x="32" y="184" width="296" height="21"/></g><g transform="translate(-22,-174) scale(1,1)"><path fill="none" stroke="#000000" d="M 32 184 L 328 184 L 328 205 L 32 205 L 32 184 Z Z" stroke-miterlimit="10" stroke-width="2"/></g><g transform="translate(-22,-174) scale(1,1)"><path fill="none" stroke="#000000" d="M 32 696 L 32 184 L 328 184 L 328 696" stroke-miterlimit="10" stroke-width="2"/></g><g transform="translate(-22,-174) scale(1,1)"><g><path fill="none" stroke="none"/><text fill="#000000" stroke="none" font-family="Arial" font-size="13px" font-style="normal" font-weight="normal" text-decoration="none" x="153.984130859375" y="201">Benutzer</text></g></g><g transform="translate(-22,-174) scale(1,1)"><path fill="#ffffff" stroke="none" d="M 153 355 L 259.025390625 355 Q 269.025390625 355 269.025390625 365 L 269.025390625 385 Q 269.025390625 395 259.025390625 395 L 153 395 Q 143 395 143 385 L 143 365 Q 143 355 153 355 Z"/></g><g transform="translate(-22,-174) scale(1,1)"><path fill="none" stroke="#000000" d="M 153 355 L 259.025390625 355 Q 269.025390625 355 269.025390625 365 L 269.025390625 385 Q 269.025390625 395 259.025390625 395 L 153 395 Q 143 395 143 385 L 143 365 Q 143 355 153 355 Z" stroke-miterlimit="10"/></g><g transform="translate(-22,-174) scale(1,1)"><g><path fill="none" stroke="none"/><text fill="#000000" stroke="none" font-family="Arial" font-size="13px" font-style="normal" font-weight="bold" text-decoration="none" x="152.171875" y="374.5">Konto deaktivieren</text></g></g><g transform="translate(-22,-174) scale(1,1)"><path fill="#000000" stroke="none" d="M 197 257.5 C 197 252.2532944 201.2532944 248 206.5 248 C 211.7467056 248 216 252.2532944 216 257.5 C 216 262.7467056 211.7467056 267 206.5 267 C 201.2532944 267 197 262.7467056 197 257.5 Z"/></g><g transform="translate(-22,-174) scale(1,1)"><path fill="none" stroke="#000000" d="M 206 268 L 206 354" stroke-miterlimit="10"/></g><g transform="translate(-22,-174) scale(1,1)"><path fill="none" stroke="#000000" d="M 201.790482243984 343.83732514237585 L 206 354 L 210.209517756016 343.83732514237585" stroke-miterlimit="10"/></g><g transform="translate(-22,-174) scale(1,1)"><path fill="#ffffff" stroke="none" d="M 434 355 L 645.47265625 355 Q 655.47265625 355 655.47265625 365 L 655.47265625 385 Q 655.47265625 395 645.47265625 395 L 434 395 Q 424 395 424 385 L 424 365 Q 424 355 434 355 Z"/></g><g transform="translate(-22,-174) scale(1,1)"><path fill="none" stroke="#000000" d="M 434 355 L 645.47265625 355 Q 655.47265625 355 655.47265625 365 L 655.47265625 385 Q 655.47265625 395 645.47265625 395 L 434 395 Q 424 395 424 385 L 424 365 Q 424 355 434 355 Z" stroke-miterlimit="10"/></g><g transform="translate(-22,-174) scale(1,1)"><g><path fill="none" stroke="none"/><text fill="#000000" stroke="none" font-family="Arial" font-size="13px" font-style="normal" font-weight="bold" text-decoration="none" x="435.66015625" y="374.5">Prüfen ob noch Medien ausgeliehen</text></g></g><g transform="translate(-22,-174) scale(1,1)"><path fill="none" stroke="#000000" d="M 270 375 L 423 375" stroke-miterlimit="10"/></g><g transform="translate(-22,-174) scale(1,1)"><path fill="none" stroke="#000000" d="M 412.83732514237585 379.209517756016 L 423 375 L 412.83732514237585 370.790482243984" stroke-miterlimit="10"/></g><g transform="translate(-22,-174) scale(1,1)"><path fill="#ffffff" stroke="none" d="M 528 483 L 539 474 L 550 483 L 539 492 L 528 483"/></g><g transform="translate(-22,-174) scale(1,1)"><path fill="none" stroke="#000000" d="M 528 483 L 539 474 L 550 483 L 539 492 L 528 483 L 528 483" stroke-miterlimit="10"/></g><g transform="translate(-22,-174) scale(1,1)"><path fill="none" stroke="#000000" d="M 539 396 L 539 473" stroke-miterlimit="10"/></g><g transform="translate(-22,-174) scale(1,1)"><path fill="none" stroke="#000000" d="M 534.790482243984 462.83732514237585 L 539 473 L 543.209517756016 462.83732514237585" stroke-miterlimit="10"/></g><g transform="translate(-22,-174) scale(1,1)"><path fill="#ffffff" stroke="none" d="M 145 464 L 279.9453125 464 Q 289.9453125 464 289.9453125 474 L 289.9453125 494 Q 289.9453125 504 279.9453125 504 L 145 504 Q 135 504 135 494 L 135 474 Q 135 464 145 464 Z"/></g><g transform="translate(-22,-174) scale(1,1)"><path fill="none" stroke="#000000" d="M 145 464 L 279.9453125 464 Q 289.9453125 464 289.9453125 474 L 289.9453125 494 Q 289.9453125 504 279.9453125 504 L 145 504 Q 135 504 135 494 L 135 474 Q 135 464 145 464 Z" stroke-miterlimit="10"/></g><g transform="translate(-22,-174) scale(1,1)"><g><path fill="none" stroke="none"/><text fill="#000000" stroke="none" font-family="Arial" font-size="13px" font-style="normal" font-weight="bold" text-decoration="none" x="144.543212890625" y="483.5">Deaktivieren bestätigen</text></g></g><g transform="translate(-22,-174) scale(1,1)"><path fill="none" stroke="#000000" d="M 527 483 L 291 484" stroke-miterlimit="10"/></g><g transform="translate(-22,-174) scale(1,1)"><path fill="none" stroke="#000000" d="M 301.14474684589845 479.74745823857853 L 291 484 L 301.1804204049357 488.16641817137554" stroke-miterlimit="10"/></g><g transform="translate(-22,-174) scale(1,1)"><g><path fill="none" stroke="none"/><text fill="#000000" stroke="none" font-family="Arial" font-size="13px" font-style="normal" font-weight="normal" text-decoration="none" x="393.5" y="503.5">[nein]</text></g></g><g transform="translate(-22,-174) scale(1,1)"><path fill="#ffffff" stroke="none" d="M 201 563 L 212 554 L 223 563 L 212 572 L 201 563"/></g><g transform="translate(-22,-174) scale(1,1)"><path fill="none" stroke="#000000" d="M 201 563 L 212 554 L 223 563 L 212 572 L 201 563 L 201 563" stroke-miterlimit="10"/></g><g transform="translate(-22,-174) scale(1,1)"><path fill="none" stroke="#000000" d="M 212 505 L 212 553" stroke-miterlimit="10"/></g><g transform="translate(-22,-174) scale(1,1)"><path fill="none" stroke="#000000" d="M 207.790482243984 542.8373251423759 L 212 553 L 216.209517756016 542.8373251423759" stroke-miterlimit="10"/></g><g transform="translate(-22,-174) scale(1,1)"><path fill="none" stroke="#000000" d="M 64 563.5 C 64 556.59644 69.59644 551 76.5 551 C 83.40356 551 89 556.59644 89 563.5 C 89 570.40356 83.40356 576 76.5 576 C 69.59644 576 64 570.40356 64 563.5 Z" stroke-miterlimit="10"/></g><g transform="translate(-22,-174) scale(1,1)"><path fill="#000000" stroke="none" d="M 69 563.5 C 69 559.357864 72.357864 556 76.5 556 C 80.642136 556 84 559.357864 84 563.5 C 84 567.642136 80.642136 571 76.5 571 C 72.357864 571 69 567.642136 69 563.5 Z"/></g><g transform="translate(-22,-174) scale(1,1)"><path fill="none" stroke="#000000" d="M 200 563 L 90 563" stroke-miterlimit="10"/></g><g transform="translate(-22,-174) scale(1,1)"><path fill="none" stroke="#000000" d="M 100.16267485762415 558.790482243984 L 90 563 L 100.16267485762415 567.209517756016" stroke-miterlimit="10"/></g><g transform="translate(-22,-174) scale(1,1)"><g><path fill="none" stroke="none"/><text fill="#000000" stroke="none" font-family="Arial" font-size="13px" font-style="normal" font-weight="normal" text-decoration="none" x="108.5" y="587.5">[abbrechen]</text></g></g><g transform="translate(-22,-174) scale(1,1)"><path fill="none" stroke="#000000" d="M 416 636.5 C 416 629.59644 421.59644 624 428.5 624 C 435.40356 624 441 629.59644 441 636.5 C 441 643.40356 435.40356 649 428.5 649 C 421.59644 649 416 643.40356 416 636.5 Z" stroke-miterlimit="10"/></g><g transform="translate(-22,-174) scale(1,1)"><path fill="#000000" stroke="none" d="M 421 636.5 C 421 632.357864 424.357864 629 428.5 629 C 432.642136 629 436 632.357864 436 636.5 C 436 640.642136 432.642136 644 428.5 644 C 424.357864 644 421 640.642136 421 636.5 Z"/></g><g transform="translate(-22,-174) scale(1,1)"><path fill="none" stroke="#000000" d="M 527 556.5 C 527 549.59644 532.59644 544 539.5 544 C 546.40356 544 552 549.59644 552 556.5 C 552 563.40356 546.40356 569 539.5 569 C 532.59644 569 527 563.40356 527 556.5 Z" stroke-miterlimit="10"/></g><g transform="translate(-22,-174) scale(1,1)"><path fill="#000000" stroke="none" d="M 532 556.5 C 532 552.357864 535.357864 549 539.5 549 C 543.642136 549 547 552.357864 547 556.5 C 547 560.642136 543.642136 564 539.5 564 C 535.357864 564 532 560.642136 532 556.5 Z"/></g><g transform="translate(-22,-174) scale(1,1)"><path fill="none" stroke="#000000" d="M 539 493 L 539 543" stroke-miterlimit="10"/></g><g transform="translate(-22,-174) scale(1,1)"><path fill="none" stroke="#000000" d="M 534.790482243984 532.8373251423759 L 539 543 L 543.209517756016 532.8373251423759" stroke-miterlimit="10"/></g><g transform="translate(-22,-174) scale(1,1)"><g><path fill="none" stroke="none"/><text fill="#000000" stroke="none" font-family="Arial" font-size="13px" font-style="normal" font-weight="normal" text-decoration="none" x="543.84912109375" y="523.5">[ja]</text></g></g><g transform="translate(-22,-174) scale(1,1)"><path fill="#ffffff" stroke="none" d="M 377 543 L 479.41357421875 543 Q 489.41357421875 543 489.41357421875 553 L 489.41357421875 573 Q 489.41357421875 583 479.41357421875 583 L 377 583 Q 367 583 367 573 L 367 553 Q 367 543 377 543 Z"/></g><g transform="translate(-22,-174) scale(1,1)"><path fill="none" stroke="#000000" d="M 377 543 L 479.41357421875 543 Q 489.41357421875 543 489.41357421875 553 L 489.41357421875 573 Q 489.41357421875 583 479.41357421875 583 L 377 583 Q 367 583 367 573 L 367 553 Q 367 543 377 543 Z" stroke-miterlimit="10"/></g><g transform="translate(-22,-174) scale(1,1)"><g><path fill="none" stroke="none"/><text fill="#000000" stroke="none" font-family="Arial" font-size="13px" font-style="normal" font-weight="bold" text-decoration="none" x="375.81005859375" y="562.5">Konto deaktiveren</text></g></g><g transform="translate(-22,-174) scale(1,1)"><path fill="none" stroke="#000000" d="M 224 563 L 366 563" stroke-miterlimit="10"/></g><g transform="translate(-22,-174) scale(1,1)"><path fill="none" stroke="#000000" d="M 355.83732514237585 567.209517756016 L 366 563 L 355.83732514237585 558.790482243984" stroke-miterlimit="10"/></g><g transform="translate(-22,-174) scale(1,1)"><g><path fill="none" stroke="none"/><text fill="#000000" stroke="none" font-family="Arial" font-size="13px" font-style="normal" font-weight="normal" text-decoration="none" x="244.5" y="588.5">[bestätigen]</text></g></g><g transform="translate(-22,-174) scale(1,1)"><path fill="none" stroke="#000000" d="M 428 584 L 428 623" stroke-miterlimit="10"/></g><g transform="translate(-22,-174) scale(1,1)"><path fill="none" stroke="#000000" d="M 423.790482243984 612.8373251423759 L 428 623 L 432.209517756016 612.8373251423759" stroke-miterlimit="10"/></g></g></svg>