<svg version="1.1" xmlns="http://www.w3.org/2000/svg" xmlns:xlink="http://www.w3.org/1999/xlink" width="828" height="740"><defs/><g><text fill="#eeeeee" stroke="none" font-family="Arial" font-size="24px" font-style="normal" font-weight="normal" text-decoration="none" x="0" y="0">UNREGISTERED</text><text fill="#eeeeee" stroke="none" font-family="Arial" font-size="24px" font-style="normal" font-weight="normal" text-decoration="none" x="0" y="30">UNREGISTERED</text><text fill="#eeeeee" stroke="none" font-family="Arial" font-size="24px" font-style="normal" font-weight="normal" text-decoration="none" x="0" y="60">UNREGISTERED</text><text fill="#eeeeee" stroke="none" font-family="Arial" font-size="24px" font-style="normal" font-weight="normal" text-decoration="none" x="0" y="90">UNREGISTERED</text><text fill="#eeeeee" stroke="none" font-family="Arial" font-size="24px" font-style="normal" font-weight="normal" text-decoration="none" x="0" y="120">UNREGISTERED</text><text fill="#eeeeee" stroke="none" font-family="Arial" font-size="24px" font-style="normal" font-weight="normal" text-decoration="none" x="0" y="150">UNREGISTERED</text><text fill="#eeeeee" stroke="none" font-family="Arial" font-size="24px" font-style="normal" font-weight="normal" text-decoration="none" x="0" y="180">UNREGISTERED</text><text fill="#eeeeee" stroke="none" font-family="Arial" font-size="24px" font-style="normal" font-weight="normal" text-decoration="none" x="0" y="210">UNREGISTERED</text><text fill="#eeeeee" stroke="none" font-family="Arial" font-size="24px" font-style="normal" font-weight="normal" text-decoration="none" x="0" y="240">UNREGISTERED</text><text fill="#eeeeee" stroke="none" font-family="Arial" font-size="24px" font-style="normal" font-weight="normal" text-decoration="none" x="0" y="270">UNREGISTERED</text><text fill="#eeeeee" stroke="none" font-family="Arial" font-size="24px" font-style="normal" font-weight="normal" text-decoration="none" x="0" y="300">UNREGISTERED</text><text fill="#eeeeee" stroke="none" font-family="Arial" font-size="24px" font-style="normal" font-weight="normal" text-decoration="none" x="0" y="330">UNREGISTERED</text><text fill="#eeeeee" stroke="none" font-family="Arial" font-size="24px" font-style="normal" font-weight="normal" text-decoration="none" x="0" y="360">UNREGISTERED</text><text fill="#eeeeee" stroke="none" font-family="Arial" font-size="24px" font-style="normal" font-weight="normal" text-decoration="none" x="0" y="390">UNREGISTERED</text><text fill="#eeeeee" stroke="none" font-family="Arial" font-size="24px" font-style="normal" font-weight="normal" text-decoration="none" x="0" y="420">UNREGISTERED</text><text fill="#eeeeee" stroke="none" font-family="Arial" font-size="24px" font-style="normal" font-weight="normal" text-decoration="none" x="0" y="450">UNREGISTERED</text><text fill="#eeeeee" stroke="none" font-family="Arial" font-size="24px" font-style="normal" font-weight="normal" text-decoration="none" x="0" y="480">UNREGISTERED</text><text fill="#eeeeee" stroke="none" font-family="Arial" font-size="24px" font-style="normal" font-weight="normal" text-decoration="none" x="0" y="510">UNREGISTERED</text><text fill="#eeeeee" stroke="none" font-family="Arial" font-size="24px" font-style="normal" font-weight="normal" text-decoration="none" x="0" y="540">UNREGISTERED</text><text fill="#eeeeee" stroke="none" font-family="Arial" font-size="24px" font-style="normal" font-weight="normal" text-decoration="none" x="0" y="570">UNREGISTERED</text><text fill="#eeeeee" stroke="none" font-family="Arial" font-size="24px" font-style="normal" font-weight="normal" text-decoration="none" x="0" y="600">UNREGISTERED</text><text fill="#eeeeee" stroke="none" font-family="Arial" font-size="24px" font-style="normal" font-weight="normal" text-decoration="none" x="0" y="630">UNREGISTERED</text><text fill="#eeeeee" stroke="none" font-family="Arial" font-size="24px" font-style="normal" font-weight="normal" text-decoration="none" x="0" y="660">UNREGISTERED</text><text fill="#eeeeee" stroke="none" font-family="Arial" font-size="24px" font-style="normal" font-weight="normal" text-decoration="none" x="0" y="690">UNREGISTERED</text><text fill="#eeeeee" stroke="none" font-family="Arial" font-size="24px" font-style="normal" font-weight="normal" text-decoration="none" x="0" y="720">UNREGISTERED</text><text fill="#eeeeee" stroke="none" font-family="Arial" font-size="24px" font-style="normal" font-weight="normal" text-decoration="none" x="200" y="0">UNREGISTERED</text><text fill="#eeeeee" stroke="none" font-family="Arial" font-size="24px" font-style="normal" font-weight="normal" text-decoration="none" x="200" y="30">UNREGISTERED</text><text fill="#eeeeee" stroke="none" font-family="Arial" font-size="24px" font-style="normal" font-weight="normal" text-decoration="none" x="200" y="60">UNREGISTERED</text><text fill="#eeeeee" stroke="none" font-family="Arial" font-size="24px" font-style="normal" font-weight="normal" text-decoration="none" x="200" y="90">UNREGISTERED</text><text fill="#eeeeee" stroke="none" font-family="Arial" font-size="24px" font-style="normal" font-weight="normal" text-decoration="none" x="200" y="120">UNREGISTERED</text><text fill="#eeeeee" stroke="none" font-family="Arial" font-size="24px" font-style="normal" font-weight="normal" text-decoration="none" x="200" y="150">UNREGISTERED</text><text fill="#eeeeee" stroke="none" font-family="Arial" font-size="24px" font-style="normal" font-weight="normal" text-decoration="none" x="200" y="180">UNREGISTERED</text><text fill="#eeeeee" stroke="none" font-family="Arial" font-size="24px" font-style="normal" font-weight="normal" text-decoration="none" x="200" y="210">UNREGISTERED</text><text fill="#eeeeee" stroke="none" font-family="Arial" font-size="24px" font-style="normal" font-weight="normal" text-decoration="none" x="200" y="240">UNREGISTERED</text><text fill="#eeeeee" stroke="none" font-family="Arial" font-size="24px" font-style="normal" font-weight="normal" text-decoration="none" x="200" y="270">UNREGISTERED</text><text fill="#eeeeee" stroke="none" font-family="Arial" font-size="24px" font-style="normal" font-weight="normal" text-decoration="none" x="200" y="300">UNREGISTERED</text><text fill="#eeeeee" stroke="none" font-family="Arial" font-size="24px" font-style="normal" font-weight="normal" text-decoration="none" x="200" y="330">UNREGISTERED</text><text fill="#eeeeee" stroke="none" font-family="Arial" font-size="24px" font-style="normal" font-weight="normal" text-decoration="none" x="200" y="360">UNREGISTERED</text><text fill="#eeeeee" stroke="none" font-family="Arial" font-size="24px" font-style="normal" font-weight="normal" text-decoration="none" x="200" y="390">UNREGISTERED</text><text fill="#eeeeee" stroke="none" font-family="Arial" font-size="24px" font-style="normal" font-weight="normal" text-decoration="none" x="200" y="420">UNREGISTERED</text><text fill="#eeeeee" stroke="none" font-family="Arial" font-size="24px" font-style="normal" font-weight="normal" text-decoration="none" x="200" y="450">UNREGISTERED</text><text fill="#eeeeee" stroke="none" font-family="Arial" font-size="24px" font-style="normal" font-weight="normal" text-decoration="none" x="200" y="480">UNREGISTERED</text><text fill="#eeeeee" stroke="none" font-family="Arial" font-size="24px" font-style="normal" font-weight="normal" text-decoration="none" x="200" y="510">UNREGISTERED</text><text fill="#eeeeee" stroke="none" font-family="Arial" font-size="24px" font-style="normal" font-weight="normal" text-decoration="none" x="200" y="540">UNREGISTERED</text><text fill="#eeeeee" stroke="none" font-family="Arial" font-size="24px" font-style="normal" font-weight="normal" text-decoration="none" x="200" y="570">UNREGISTERED</text><text fill="#eeeeee" stroke="none" font-family="Arial" font-size="24px" font-style="normal" font-weight="normal" text-decoration="none" x="200" y="600">UNREGISTERED</text><text fill="#eeeeee" stroke="none" font-family="Arial" font-size="24px" font-style="normal" font-weight="normal" text-decoration="none" x="200" y="630">UNREGISTERED</text><text fill="#eeeeee" stroke="none" font-family="Arial" font-size="24px" font-style="normal" font-weight="normal" text-decoration="none" x="200" y="660">UNREGISTERED</text><text fill="#eeeeee" stroke="none" font-family="Arial" font-size="24px" font-style="normal" font-weight="normal" text-decoration="none" x="200" y="690">UNREGISTERED</text><text fill="#eeeeee" stroke="none" font-family="Arial" font-size="24px" font-style="normal" font-weight="normal" text-decoration="none" x="200" y="720">UNREGISTERED</text><text fill="#eeeeee" stroke="none" font-family="Arial" font-size="24px" font-style="normal" font-weight="normal" text-decoration="none" x="400" y="0">UNREGISTERED</text><text fill="#eeeeee" stroke="none" font-family="Arial" font-size="24px" font-style="normal" font-weight="normal" text-decoration="none" x="400" y="30">UNREGISTERED</text><text fill="#eeeeee" stroke="none" font-family="Arial" font-size="24px" font-style="normal" font-weight="normal" text-decoration="none" x="400" y="60">UNREGISTERED</text><text fill="#eeeeee" stroke="none" font-family="Arial" font-size="24px" font-style="normal" font-weight="normal" text-decoration="none" x="400" y="90">UNREGISTERED</text><text fill="#eeeeee" stroke="none" font-family="Arial" font-size="24px" font-style="normal" font-weight="normal" text-decoration="none" x="400" y="120">UNREGISTERED</text><text fill="#eeeeee" stroke="none" font-family="Arial" font-size="24px" font-style="normal" font-weight="normal" text-decoration="none" x="400" y="150">UNREGISTERED</text><text fill="#eeeeee" stroke="none" font-family="Arial" font-size="24px" font-style="normal" font-weight="normal" text-decoration="none" x="400" y="180">UNREGISTERED</text><text fill="#eeeeee" stroke="none" font-family="Arial" font-size="24px" font-style="normal" font-weight="normal" text-decoration="none" x="400" y="210">UNREGISTERED</text><text fill="#eeeeee" stroke="none" font-family="Arial" font-size="24px" font-style="normal" font-weight="normal" text-decoration="none" x="400" y="240">UNREGISTERED</text><text fill="#eeeeee" stroke="none" font-family="Arial" font-size="24px" font-style="normal" font-weight="normal" text-decoration="none" x="400" y="270">UNREGISTERED</text><text fill="#eeeeee" stroke="none" font-family="Arial" font-size="24px" font-style="normal" font-weight="normal" text-decoration="none" x="400" y="300">UNREGISTERED</text><text fill="#eeeeee" stroke="none" font-family="Arial" font-size="24px" font-style="normal" font-weight="normal" text-decoration="none" x="400" y="330">UNREGISTERED</text><text fill="#eeeeee" stroke="none" font-family="Arial" font-size="24px" font-style="normal" font-weight="normal" text-decoration="none" x="400" y="360">UNREGISTERED</text><text fill="#eeeeee" stroke="none" font-family="Arial" font-size="24px" font-style="normal" font-weight="normal" text-decoration="none" x="400" y="390">UNREGISTERED</text><text fill="#eeeeee" stroke="none" font-family="Arial" font-size="24px" font-style="normal" font-weight="normal" text-decoration="none" x="400" y="420">UNREGISTERED</text><text fill="#eeeeee" stroke="none" font-family="Arial" font-size="24px" font-style="normal" font-weight="normal" text-decoration="none" x="400" y="450">UNREGISTERED</text><text fill="#eeeeee" stroke="none" font-family="Arial" font-size="24px" font-style="normal" font-weight="normal" text-decoration="none" x="400" y="480">UNREGISTERED</text><text fill="#eeeeee" stroke="none" font-family="Arial" font-size="24px" font-style="normal" font-weight="normal" text-decoration="none" x="400" y="510">UNREGISTERED</text><text fill="#eeeeee" stroke="none" font-family="Arial" font-size="24px" font-style="normal" font-weight="normal" text-decoration="none" x="400" y="540">UNREGISTERED</text><text fill="#eeeeee" stroke="none" font-family="Arial" font-size="24px" font-style="normal" font-weight="normal" text-decoration="none" x="400" y="570">UNREGISTERED</text><text fill="#eeeeee" stroke="none" font-family="Arial" font-size="24px" font-style="normal" font-weight="normal" text-decoration="none" x="400" y="600">UNREGISTERED</text><text fill="#eeeeee" stroke="none" font-family="Arial" font-size="24px" font-style="normal" font-weight="normal" text-decoration="none" x="400" y="630">UNREGISTERED</text><text fill="#eeeeee" stroke="none" font-family="Arial" font-size="24px" font-style="normal" font-weight="normal" text-decoration="none" x="400" y="660">UNREGISTERED</text><text fill="#eeeeee" stroke="none" font-family="Arial" font-size="24px" font-style="normal" font-weight="normal" text-decoration="none" x="400" y="690">UNREGISTERED</text><text fill="#eeeeee" stroke="none" font-family="Arial" font-size="24px" font-style="normal" font-weight="normal" text-decoration="none" x="400" y="720">UNREGISTERED</text><text fill="#eeeeee" stroke="none" font-family="Arial" font-size="24px" font-style="normal" font-weight="normal" text-decoration="none" x="600" y="0">UNREGISTERED</text><text fill="#eeeeee" stroke="none" font-family="Arial" font-size="24px" font-style="normal" font-weight="normal" text-decoration="none" x="600" y="30">UNREGISTERED</text><text fill="#eeeeee" stroke="none" font-family="Arial" font-size="24px" font-style="normal" font-weight="normal" text-decoration="none" x="600" y="60">UNREGISTERED</text><text fill="#eeeeee" stroke="none" font-family="Arial" font-size="24px" font-style="normal" font-weight="normal" text-decoration="none" x="600" y="90">UNREGISTERED</text><text fill="#eeeeee" stroke="none" font-family="Arial" font-size="24px" font-style="normal" font-weight="normal" text-decoration="none" x="600" y="120">UNREGISTERED</text><text fill="#eeeeee" stroke="none" font-family="Arial" font-size="24px" font-style="normal" font-weight="normal" text-decoration="none" x="600" y="150">UNREGISTERED</text><text fill="#eeeeee" stroke="none" font-family="Arial" font-size="24px" font-style="normal" font-weight="normal" text-decoration="none" x="600" y="180">UNREGISTERED</text><text fill="#eeeeee" stroke="none" font-family="Arial" font-size="24px" font-style="normal" font-weight="normal" text-decoration="none" x="600" y="210">UNREGISTERED</text><text fill="#eeeeee" stroke="none" font-family="Arial" font-size="24px" font-style="normal" font-weight="normal" text-decoration="none" x="600" y="240">UNREGISTERED</text><text fill="#eeeeee" stroke="none" font-family="Arial" font-size="24px" font-style="normal" font-weight="normal" text-decoration="none" x="600" y="270">UNREGISTERED</text><text fill="#eeeeee" stroke="none" font-family="Arial" font-size="24px" font-style="normal" font-weight="normal" text-decoration="none" x="600" y="300">UNREGISTERED</text><text fill="#eeeeee" stroke="none" font-family="Arial" font-size="24px" font-style="normal" font-weight="normal" text-decoration="none" x="600" y="330">UNREGISTERED</text><text fill="#eeeeee" stroke="none" font-family="Arial" font-size="24px" font-style="normal" font-weight="normal" text-decoration="none" x="600" y="360">UNREGISTERED</text><text fill="#eeeeee" stroke="none" font-family="Arial" font-size="24px" font-style="normal" font-weight="normal" text-decoration="none" x="600" y="390">UNREGISTERED</text><text fill="#eeeeee" stroke="none" font-family="Arial" font-size="24px" font-style="normal" font-weight="normal" text-decoration="none" x="600" y="420">UNREGISTERED</text><text fill="#eeeeee" stroke="none" font-family="Arial" font-size="24px" font-style="normal" font-weight="normal" text-decoration="none" x="600" y="450">UNREGISTERED</text><text fill="#eeeeee" stroke="none" font-family="Arial" font-size="24px" font-style="normal" font-weight="normal" text-decoration="none" x="600" y="480">UNREGISTERED</text><text fill="#eeeeee" stroke="none" font-family="Arial" font-size="24px" font-style="normal" font-weight="normal" text-decoration="none" x="600" y="510">UNREGISTERED</text><text fill="#eeeeee" stroke="none" font-family="Arial" font-size="24px" font-style="normal" font-weight="normal" text-decoration="none" x="600" y="540">UNREGISTERED</text><text fill="#eeeeee" stroke="none" font-family="Arial" font-size="24px" font-style="normal" font-weight="normal" text-decoration="none" x="600" y="570">UNREGISTERED</text><text fill="#eeeeee" stroke="none" font-family="Arial" font-size="24px" font-style="normal" font-weight="normal" text-decoration="none" x="600" y="600">UNREGISTERED</text><text fill="#eeeeee" stroke="none" font-family="Arial" font-size="24px" font-style="normal" font-weight="normal" text-decoration="none" x="600" y="630">UNREGISTERED</text><text fill="#eeeeee" stroke="none" font-family="Arial" font-size="24px" font-style="normal" font-weight="normal" text-decoration="none" x="600" y="660">UNREGISTERED</text><text fill="#eeeeee" stroke="none" font-family="Arial" font-size="24px" font-style="normal" font-weight="normal" text-decoration="none" x="600" y="690">UNREGISTERED</text><text fill="#eeeeee" stroke="none" font-family="Arial" font-size="24px" font-style="normal" font-weight="normal" text-decoration="none" x="600" y="720">UNREGISTERED</text><text fill="#eeeeee" stroke="none" font-family="Arial" font-size="24px" font-style="normal" font-weight="normal" text-decoration="none" x="800" y="0">UNREGISTERED</text><text fill="#eeeeee" stroke="none" font-family="Arial" font-size="24px" font-style="normal" font-weight="normal" text-decoration="none" x="800" y="30">UNREGISTERED</text><text fill="#eeeeee" stroke="none" font-family="Arial" font-size="24px" font-style="normal" font-weight="normal" text-decoration="none" x="800" y="60">UNREGISTERED</text><text fill="#eeeeee" stroke="none" font-family="Arial" font-size="24px" font-style="normal" font-weight="normal" text-decoration="none" x="800" y="90">UNREGISTERED</text><text fill="#eeeeee" stroke="none" font-family="Arial" font-size="24px" font-style="normal" font-weight="normal" text-decoration="none" x="800" y="120">UNREGISTERED</text><text fill="#eeeeee" stroke="none" font-family="Arial" font-size="24px" font-style="normal" font-weight="normal" text-decoration="none" x="800" y="150">UNREGISTERED</text><text fill="#eeeeee" stroke="none" font-family="Arial" font-size="24px" font-style="normal" font-weight="normal" text-decoration="none" x="800" y="180">UNREGISTERED</text><text fill="#eeeeee" stroke="none" font-family="Arial" font-size="24px" font-style="normal" font-weight="normal" text-decoration="none" x="800" y="210">UNREGISTERED</text><text fill="#eeeeee" stroke="none" font-family="Arial" font-size="24px" font-style="normal" font-weight="normal" text-decoration="none" x="800" y="240">UNREGISTERED</text><text fill="#eeeeee" stroke="none" font-family="Arial" font-size="24px" font-style="normal" font-weight="normal" text-decoration="none" x="800" y="270">UNREGISTERED</text><text fill="#eeeeee" stroke="none" font-family="Arial" font-size="24px" font-style="normal" font-weight="normal" text-decoration="none" x="800" y="300">UNREGISTERED</text><text fill="#eeeeee" stroke="none" font-family="Arial" font-size="24px" font-style="normal" font-weight="normal" text-decoration="none" x="800" y="330">UNREGISTERED</text><text fill="#eeeeee" stroke="none" font-family="Arial" font-size="24px" font-style="normal" font-weight="normal" text-decoration="none" x="800" y="360">UNREGISTERED</text><text fill="#eeeeee" stroke="none" font-family="Arial" font-size="24px" font-style="normal" font-weight="normal" text-decoration="none" x="800" y="390">UNREGISTERED</text><text fill="#eeeeee" stroke="none" font-family="Arial" font-size="24px" font-style="normal" font-weight="normal" text-decoration="none" x="800" y="420">UNREGISTERED</text><text fill="#eeeeee" stroke="none" font-family="Arial" font-size="24px" font-style="normal" font-weight="normal" text-decoration="none" x="800" y="450">UNREGISTERED</text><text fill="#eeeeee" stroke="none" font-family="Arial" font-size="24px" font-style="normal" font-weight="normal" text-decoration="none" x="800" y="480">UNREGISTERED</text><text fill="#eeeeee" stroke="none" font-family="Arial" font-size="24px" font-style="normal" font-weight="normal" text-decoration="none" x="800" y="510">UNREGISTERED</text><text fill="#eeeeee" stroke="none" font-family="Arial" font-size="24px" font-style="normal" font-weight="normal" text-decoration="none" x="800" y="540">UNREGISTERED</text><text fill="#eeeeee" stroke="none" font-family="Arial" font-size="24px" font-style="normal" font-weight="normal" text-decoration="none" x="800" y="570">UNREGISTERED</text><text fill="#eeeeee" stroke="none" font-family="Arial" font-size="24px" font-style="normal" font-weight="normal" text-decoration="none" x="800" y="600">UNREGISTERED</text><text fill="#eeeeee" stroke="none" font-family="Arial" font-size="24px" font-style="normal" font-weight="normal" text-decoration="none" x="800" y="630">UNREGISTERED</text><text fill="#eeeeee" stroke="none" font-family="Arial" font-size="24px" font-style="normal" font-weight="normal" text-decoration="none" x="800" y="660">UNREGISTERED</text><text fill="#eeeeee" stroke="none" font-family="Arial" font-size="24px" font-style="normal" font-weight="normal" text-decoration="none" x="800" y="690">UNREGISTERED</text><text fill="#eeeeee" stroke="none" font-family="Arial" font-size="24px" font-style="normal" font-weight="normal" text-decoration="none" x="800" y="720">UNREGISTERED</text><g transform="translate(-78,-214) scale(1,1)"><path fill="#000000" stroke="none" d="M 204 273.5 C 204 268.2532944 208.2532944 264 213.5 264 C 218.7467056 264 223 268.2532944 223 273.5 C 223 278.7467056 218.7467056 283 213.5 283 C 208.2532944 283 204 278.7467056 204 273.5 Z"/></g><g transform="translate(-78,-214) scale(1,1)"><path fill="#ffffff" stroke="none" d="M 173 368 L 254.4345703125 368 Q 264.4345703125 368 264.4345703125 378 L 264.4345703125 398 Q 264.4345703125 408 254.4345703125 408 L 173 408 Q 163 408 163 398 L 163 378 Q 163 368 173 368 Z"/></g><g transform="translate(-78,-214) scale(1,1)"><path fill="none" stroke="#000000" d="M 173 368 L 254.4345703125 368 Q 264.4345703125 368 264.4345703125 378 L 264.4345703125 398 Q 264.4345703125 408 254.4345703125 408 L 173 408 Q 163 408 163 398 L 163 378 Q 163 368 173 368 Z" stroke-miterlimit="10"/></g><g transform="translate(-78,-214) scale(1,1)"><g><path fill="none" stroke="none"/><text fill="#000000" stroke="none" font-family="Arial" font-size="13px" font-style="normal" font-weight="bold" text-decoration="none" x="170.8388671875" y="387.5">Medium öffnen</text></g></g><g transform="translate(-78,-214) scale(1,1)"><path fill="#ffffff" stroke="none" d="M 120 507 L 304.09521484375 507 Q 314.09521484375 507 314.09521484375 517 L 314.09521484375 537 Q 314.09521484375 547 304.09521484375 547 L 120 547 Q 110 547 110 537 L 110 517 Q 110 507 120 507 Z"/></g><g transform="translate(-78,-214) scale(1,1)"><path fill="none" stroke="#000000" d="M 120 507 L 304.09521484375 507 Q 314.09521484375 507 314.09521484375 517 L 314.09521484375 537 Q 314.09521484375 547 304.09521484375 547 L 120 547 Q 110 547 110 537 L 110 517 Q 110 507 120 507 Z" stroke-miterlimit="10"/></g><g transform="translate(-78,-214) scale(1,1)"><g><path fill="none" stroke="none"/><text fill="#000000" stroke="none" font-family="Arial" font-size="13px" font-style="normal" font-weight="bold" text-decoration="none" x="121.796630859375" y="526.5">"Medium ausleihen" auswählen</text></g></g><g transform="translate(-78,-214) scale(1,1)"><path fill="#ffffff" stroke="none" d="M 634 507 L 857.03173828125 507 Q 867.03173828125 507 867.03173828125 517 L 867.03173828125 537 Q 867.03173828125 547 857.03173828125 547 L 634 547 Q 624 547 624 537 L 624 517 Q 624 507 634 507 Z"/></g><g transform="translate(-78,-214) scale(1,1)"><path fill="none" stroke="#000000" d="M 634 507 L 857.03173828125 507 Q 867.03173828125 507 867.03173828125 517 L 867.03173828125 537 Q 867.03173828125 547 857.03173828125 547 L 634 547 Q 624 547 624 537 L 624 517 Q 624 507 634 507 Z" stroke-miterlimit="10"/></g><g transform="translate(-78,-214) scale(1,1)"><g><path fill="none" stroke="none"/><text fill="#000000" stroke="none" font-family="Arial" font-size="13px" font-style="normal" font-weight="bold" text-decoration="none" x="636.39013671875" y="526.5">Prüfen ob Medium schon ausgeliehen</text></g></g><g transform="translate(-78,-214) scale(1,1)"><path fill="none" stroke="#000000" d="M 213 284 L 213 367" stroke-miterlimit="10"/></g><g transform="translate(-78,-214) scale(1,1)"><path fill="none" stroke="#000000" d="M 208.790482243984 356.83732514237585 L 213 367 L 217.209517756016 356.83732514237585" stroke-miterlimit="10"/></g><g transform="translate(-78,-214) scale(1,1)"><path fill="none" stroke="#000000" d="M 213 409 L 212 506" stroke-miterlimit="10"/></g><g transform="translate(-78,-214) scale(1,1)"><path fill="none" stroke="#000000" d="M 207.8954701992995 495.79447036576926 L 212 506 L 216.31405835430724 495.8812599343776" stroke-miterlimit="10"/></g><g transform="translate(-78,-214) scale(1,1)"><path fill="none" stroke="#000000" d="M 315 527 L 623 527" stroke-miterlimit="10"/></g><g transform="translate(-78,-214) scale(1,1)"><path fill="none" stroke="#000000" d="M 612.8373251423759 531.209517756016 L 623 527 L 612.8373251423758 522.790482243984" stroke-miterlimit="10"/></g><g transform="translate(-78,-214) scale(1,1)"><path fill="#ffffff" stroke="none" d="M 736 663 L 747 654 L 758 663 L 747 672 L 736 663"/></g><g transform="translate(-78,-214) scale(1,1)"><path fill="none" stroke="#000000" d="M 736 663 L 747 654 L 758 663 L 747 672 L 736 663 L 736 663" stroke-miterlimit="10"/></g><g transform="translate(-78,-214) scale(1,1)"><path fill="none" stroke="#000000" d="M 745 548 L 747 653" stroke-miterlimit="10"/></g><g transform="translate(-78,-214) scale(1,1)"><path fill="none" stroke="#000000" d="M 742.5977060144523 642.9193349591999 L 747 653 L 751.0152146792624 642.7590014608226" stroke-miterlimit="10"/></g><g transform="translate(-78,-214) scale(1,1)"><path fill="none" stroke="#000000" d="M 736 812.5 C 736 805.59644 741.59644 800 748.5 800 C 755.40356 800 761 805.59644 761 812.5 C 761 819.40356 755.40356 825 748.5 825 C 741.59644 825 736 819.40356 736 812.5 Z" stroke-miterlimit="10"/></g><g transform="translate(-78,-214) scale(1,1)"><path fill="#000000" stroke="none" d="M 741 812.5 C 741 808.357864 744.357864 805 748.5 805 C 752.642136 805 756 808.357864 756 812.5 C 756 816.642136 752.642136 820 748.5 820 C 744.357864 820 741 816.642136 741 812.5 Z"/></g><g transform="translate(-78,-214) scale(1,1)"><path fill="none" stroke="#000000" d="M 747 673 L 748 799" stroke-miterlimit="10"/></g><g transform="translate(-78,-214) scale(1,1)"><path fill="none" stroke="#000000" d="M 743.7099612030141 788.87105301029 L 748 799 L 752.1287315778009 788.8042373723948" stroke-miterlimit="10"/></g><g transform="translate(-78,-214) scale(1,1)"><g><path fill="none" stroke="none"/><text fill="#000000" stroke="none" font-family="Arial" font-size="13px" font-style="normal" font-weight="normal" text-decoration="none" x="751.84912109375" y="741.5">[ja]</text></g></g><g transform="translate(-78,-214) scale(1,1)"><path fill="#ffffff" stroke="none" d="M 490 643 L 601.83349609375 643 Q 611.83349609375 643 611.83349609375 653 L 611.83349609375 673 Q 611.83349609375 683 601.83349609375 683 L 490 683 Q 480 683 480 673 L 480 653 Q 480 643 490 643 Z"/></g><g transform="translate(-78,-214) scale(1,1)"><path fill="none" stroke="#000000" d="M 490 643 L 601.83349609375 643 Q 611.83349609375 643 611.83349609375 653 L 611.83349609375 673 Q 611.83349609375 683 601.83349609375 683 L 490 683 Q 480 683 480 673 L 480 653 Q 480 643 490 643 Z" stroke-miterlimit="10"/></g><g transform="translate(-78,-214) scale(1,1)"><g><path fill="none" stroke="none"/><text fill="#000000" stroke="none" font-family="Arial" font-size="13px" font-style="normal" font-weight="bold" text-decoration="none" x="488.47998046875" y="662.5">Medium reservieren</text></g></g><g transform="translate(-78,-214) scale(1,1)"><path fill="none" stroke="#000000" d="M 735 663 L 613 663" stroke-miterlimit="10"/></g><g transform="translate(-78,-214) scale(1,1)"><path fill="none" stroke="#000000" d="M 623.1626748576241 658.790482243984 L 613 663 L 623.1626748576241 667.209517756016" stroke-miterlimit="10"/></g><g transform="translate(-78,-214) scale(1,1)"><g><path fill="none" stroke="none"/><text fill="#000000" stroke="none" font-family="Arial" font-size="13px" font-style="normal" font-weight="normal" text-decoration="none" x="657.5" y="684.5">[nein]</text></g></g><g transform="translate(-78,-214) scale(1,1)"><path fill="#ffffff" stroke="none" d="M 400 665 L 411 656 L 422 665 L 411 674 L 400 665"/></g><g transform="translate(-78,-214) scale(1,1)"><path fill="none" stroke="#000000" d="M 400 665 L 411 656 L 422 665 L 411 674 L 400 665 L 400 665" stroke-miterlimit="10"/></g><g transform="translate(-78,-214) scale(1,1)"><path fill="none" stroke="#000000" d="M 479 664 L 423 665" stroke-miterlimit="10"/></g><g transform="translate(-78,-214) scale(1,1)"><path fill="none" stroke="#000000" d="M 433.08589694281176 660.6097058345732 L 423 665 L 433.23621289838786 669.0273993468339" stroke-miterlimit="10"/></g><g transform="translate(-78,-214) scale(1,1)"><path fill="#ffffff" stroke="none" d="M 167 643 L 258.55908203125 643 Q 268.55908203125 643 268.55908203125 653 L 268.55908203125 673 Q 268.55908203125 683 258.55908203125 683 L 167 683 Q 157 683 157 673 L 157 653 Q 157 643 167 643 Z"/></g><g transform="translate(-78,-214) scale(1,1)"><path fill="none" stroke="#000000" d="M 167 643 L 258.55908203125 643 Q 268.55908203125 643 268.55908203125 653 L 268.55908203125 673 Q 268.55908203125 683 258.55908203125 683 L 167 683 Q 157 683 157 673 L 157 653 Q 157 643 167 643 Z" stroke-miterlimit="10"/></g><g transform="translate(-78,-214) scale(1,1)"><g><path fill="none" stroke="none"/><text fill="#000000" stroke="none" font-family="Arial" font-size="13px" font-style="normal" font-weight="bold" text-decoration="none" x="164.721435546875" y="662.5">Medium abholen</text></g></g><g transform="translate(-78,-214) scale(1,1)"><path fill="none" stroke="#000000" d="M 399 665 L 270 664" stroke-miterlimit="10"/></g><g transform="translate(-78,-214) scale(1,1)"><path fill="none" stroke="#000000" d="M 280.1950004610659 659.8693867768978 L 270 664 L 280.12973858073406 668.2881693397053" stroke-miterlimit="10"/></g><g transform="translate(-78,-214) scale(1,1)"><path fill="none" stroke="#000000" d="M 212 548 L 212 642" stroke-miterlimit="10"/></g><g transform="translate(-78,-214) scale(1,1)"><path fill="none" stroke="#000000" d="M 207.790482243984 631.8373251423759 L 212 642 L 216.209517756016 631.8373251423759" stroke-miterlimit="10"/></g><g transform="translate(-78,-214) scale(1,1)"><path fill="#ffffff" stroke="none" d="M 490 784 L 629.2744140625 784 Q 639.2744140625 784 639.2744140625 794 L 639.2744140625 814 Q 639.2744140625 824 629.2744140625 824 L 490 824 Q 480 824 480 814 L 480 794 Q 480 784 490 784 Z"/></g><g transform="translate(-78,-214) scale(1,1)"><path fill="none" stroke="#000000" d="M 490 784 L 629.2744140625 784 Q 639.2744140625 784 639.2744140625 794 L 639.2744140625 814 Q 639.2744140625 824 629.2744140625 824 L 490 824 Q 480 824 480 814 L 480 794 Q 480 784 490 784 Z" stroke-miterlimit="10"/></g><g transform="translate(-78,-214) scale(1,1)"><g><path fill="none" stroke="none"/><text fill="#000000" stroke="none" font-family="Arial" font-size="13px" font-style="normal" font-weight="bold" text-decoration="none" x="490.27001953125" y="803.5">Reservierung stornieren</text></g></g><g transform="translate(-78,-214) scale(1,1)"><path fill="none" stroke="#000000" d="M 408 674 L 408 804 L 480 804" stroke-miterlimit="10"/></g><g transform="translate(-78,-214) scale(1,1)"><path fill="none" stroke="#000000" d="M 469.83732514237585 808.209517756016 L 480 804 L 469.83732514237585 799.790482243984" stroke-miterlimit="10"/></g><g transform="translate(-78,-214) scale(1,1)"><path fill="none" stroke="#000000" d="M 547 868.5 C 547 861.59644 552.59644 856 559.5 856 C 566.40356 856 572 861.59644 572 868.5 C 572 875.40356 566.40356 881 559.5 881 C 552.59644 881 547 875.40356 547 868.5 Z" stroke-miterlimit="10"/></g><g transform="translate(-78,-214) scale(1,1)"><path fill="#000000" stroke="none" d="M 552 868.5 C 552 864.357864 555.357864 861 559.5 861 C 563.642136 861 567 864.357864 567 868.5 C 567 872.642136 563.642136 876 559.5 876 C 555.357864 876 552 872.642136 552 868.5 Z"/></g><g transform="translate(-78,-214) scale(1,1)"><path fill="none" stroke="#000000" d="M 559 825 L 559 855" stroke-miterlimit="10"/></g><g transform="translate(-78,-214) scale(1,1)"><path fill="none" stroke="#000000" d="M 554.790482243984 844.8373251423759 L 559 855 L 563.209517756016 844.8373251423759" stroke-miterlimit="10"/></g><g transform="translate(-78,-214) scale(1,1)"><rect fill="#ffffff" stroke="none" x="88" y="224" width="272" height="21"/></g><g transform="translate(-78,-214) scale(1,1)"><path fill="none" stroke="#000000" d="M 88 224 L 360 224 L 360 245 L 88 245 L 88 224 Z Z" stroke-miterlimit="10" stroke-width="2"/></g><g transform="translate(-78,-214) scale(1,1)"><path fill="none" stroke="#000000" d="M 88 944 L 88 224 L 360 224 L 360 944" stroke-miterlimit="10" stroke-width="2"/></g><g transform="translate(-78,-214) scale(1,1)"><g><path fill="none" stroke="none"/><text fill="#000000" stroke="none" font-family="Arial" font-size="13px" font-style="normal" font-weight="normal" text-decoration="none" x="197.984130859375" y="241">Benutzer</text></g></g><g transform="translate(-78,-214) scale(1,1)"><rect fill="#ffffff" stroke="none" x="360" y="224" width="536" height="21"/></g><g transform="translate(-78,-214) scale(1,1)"><path fill="none" stroke="#000000" d="M 360 224 L 896 224 L 896 245 L 360 245 L 360 224 Z Z" stroke-miterlimit="10" stroke-width="2"/></g><g transform="translate(-78,-214) scale(1,1)"><path fill="none" stroke="#000000" d="M 360 944 L 360 224 L 896 224 L 896 944" stroke-miterlimit="10" stroke-width="2"/></g><g transform="translate(-78,-214) scale(1,1)"><g><path fill="none" stroke="none"/><text fill="#000000" stroke="none" font-family="Arial" font-size="13px" font-style="normal" font-weight="normal" text-decoration="none" x="606.3291015625" y="241">System</text></g></g></g></svg>