<svg version="1.1" xmlns="http://www.w3.org/2000/svg" xmlns:xlink="http://www.w3.org/1999/xlink" width="692" height="588"><defs/><g><text fill="#eeeeee" stroke="none" font-family="Arial" font-size="24px" font-style="normal" font-weight="normal" text-decoration="none" x="0" y="0">UNREGISTERED</text><text fill="#eeeeee" stroke="none" font-family="Arial" font-size="24px" font-style="normal" font-weight="normal" text-decoration="none" x="0" y="30">UNREGISTERED</text><text fill="#eeeeee" stroke="none" font-family="Arial" font-size="24px" font-style="normal" font-weight="normal" text-decoration="none" x="0" y="60">UNREGISTERED</text><text fill="#eeeeee" stroke="none" font-family="Arial" font-size="24px" font-style="normal" font-weight="normal" text-decoration="none" x="0" y="90">UNREGISTERED</text><text fill="#eeeeee" stroke="none" font-family="Arial" font-size="24px" font-style="normal" font-weight="normal" text-decoration="none" x="0" y="120">UNREGISTERED</text><text fill="#eeeeee" stroke="none" font-family="Arial" font-size="24px" font-style="normal" font-weight="normal" text-decoration="none" x="0" y="150">UNREGISTERED</text><text fill="#eeeeee" stroke="none" font-family="Arial" font-size="24px" font-style="normal" font-weight="normal" text-decoration="none" x="0" y="180">UNREGISTERED</text><text fill="#eeeeee" stroke="none" font-family="Arial" font-size="24px" font-style="normal" font-weight="normal" text-decoration="none" x="0" y="210">UNREGISTERED</text><text fill="#eeeeee" stroke="none" font-family="Arial" font-size="24px" font-style="normal" font-weight="normal" text-decoration="none" x="0" y="240">UNREGISTERED</text><text fill="#eeeeee" stroke="none" font-family="Arial" font-size="24px" font-style="normal" font-weight="normal" text-decoration="none" x="0" y="270">UNREGISTERED</text><text fill="#eeeeee" stroke="none" font-family="Arial" font-size="24px" font-style="normal" font-weight="normal" text-decoration="none" x="0" y="300">UNREGISTERED</text><text fill="#eeeeee" stroke="none" font-family="Arial" font-size="24px" font-style="normal" font-weight="normal" text-decoration="none" x="0" y="330">UNREGISTERED</text><text fill="#eeeeee" stroke="none" font-family="Arial" font-size="24px" font-style="normal" font-weight="normal" text-decoration="none" x="0" y="360">UNREGISTERED</text><text fill="#eeeeee" stroke="none" font-family="Arial" font-size="24px" font-style="normal" font-weight="normal" text-decoration="none" x="0" y="390">UNREGISTERED</text><text fill="#eeeeee" stroke="none" font-family="Arial" font-size="24px" font-style="normal" font-weight="normal" text-decoration="none" x="0" y="420">UNREGISTERED</text><text fill="#eeeeee" stroke="none" font-family="Arial" font-size="24px" font-style="normal" font-weight="normal" text-decoration="none" x="0" y="450">UNREGISTERED</text><text fill="#eeeeee" stroke="none" font-family="Arial" font-size="24px" font-style="normal" font-weight="normal" text-decoration="none" x="0" y="480">UNREGISTERED</text><text fill="#eeeeee" stroke="none" font-family="Arial" font-size="24px" font-style="normal" font-weight="normal" text-decoration="none" x="0" y="510">UNREGISTERED</text><text fill="#eeeeee" stroke="none" font-family="Arial" font-size="24px" font-style="normal" font-weight="normal" text-decoration="none" x="0" y="540">UNREGISTERED</text><text fill="#eeeeee" stroke="none" font-family="Arial" font-size="24px" font-style="normal" font-weight="normal" text-decoration="none" x="0" y="570">UNREGISTERED</text><text fill="#eeeeee" stroke="none" font-family="Arial" font-size="24px" font-style="normal" font-weight="normal" text-decoration="none" x="200" y="0">UNREGISTERED</text><text fill="#eeeeee" stroke="none" font-family="Arial" font-size="24px" font-style="normal" font-weight="normal" text-decoration="none" x="200" y="30">UNREGISTERED</text><text fill="#eeeeee" stroke="none" font-family="Arial" font-size="24px" font-style="normal" font-weight="normal" text-decoration="none" x="200" y="60">UNREGISTERED</text><text fill="#eeeeee" stroke="none" font-family="Arial" font-size="24px" font-style="normal" font-weight="normal" text-decoration="none" x="200" y="90">UNREGISTERED</text><text fill="#eeeeee" stroke="none" font-family="Arial" font-size="24px" font-style="normal" font-weight="normal" text-decoration="none" x="200" y="120">UNREGISTERED</text><text fill="#eeeeee" stroke="none" font-family="Arial" font-size="24px" font-style="normal" font-weight="normal" text-decoration="none" x="200" y="150">UNREGISTERED</text><text fill="#eeeeee" stroke="none" font-family="Arial" font-size="24px" font-style="normal" font-weight="normal" text-decoration="none" x="200" y="180">UNREGISTERED</text><text fill="#eeeeee" stroke="none" font-family="Arial" font-size="24px" font-style="normal" font-weight="normal" text-decoration="none" x="200" y="210">UNREGISTERED</text><text fill="#eeeeee" stroke="none" font-family="Arial" font-size="24px" font-style="normal" font-weight="normal" text-decoration="none" x="200" y="240">UNREGISTERED</text><text fill="#eeeeee" stroke="none" font-family="Arial" font-size="24px" font-style="normal" font-weight="normal" text-decoration="none" x="200" y="270">UNREGISTERED</text><text fill="#eeeeee" stroke="none" font-family="Arial" font-size="24px" font-style="normal" font-weight="normal" text-decoration="none" x="200" y="300">UNREGISTERED</text><text fill="#eeeeee" stroke="none" font-family="Arial" font-size="24px" font-style="normal" font-weight="normal" text-decoration="none" x="200" y="330">UNREGISTERED</text><text fill="#eeeeee" stroke="none" font-family="Arial" font-size="24px" font-style="normal" font-weight="normal" text-decoration="none" x="200" y="360">UNREGISTERED</text><text fill="#eeeeee" stroke="none" font-family="Arial" font-size="24px" font-style="normal" font-weight="normal" text-decoration="none" x="200" y="390">UNREGISTERED</text><text fill="#eeeeee" stroke="none" font-family="Arial" font-size="24px" font-style="normal" font-weight="normal" text-decoration="none" x="200" y="420">UNREGISTERED</text><text fill="#eeeeee" stroke="none" font-family="Arial" font-size="24px" font-style="normal" font-weight="normal" text-decoration="none" x="200" y="450">UNREGISTERED</text><text fill="#eeeeee" stroke="none" font-family="Arial" font-size="24px" font-style="normal" font-weight="normal" text-decoration="none" x="200" y="480">UNREGISTERED</text><text fill="#eeeeee" stroke="none" font-family="Arial" font-size="24px" font-style="normal" font-weight="normal" text-decoration="none" x="200" y="510">UNREGISTERED</text><text fill="#eeeeee" stroke="none" font-family="Arial" font-size="24px" font-style="normal" font-weight="normal" text-decoration="none" x="200" y="540">UNREGISTERED</text><text fill="#eeeeee" stroke="none" font-family="Arial" font-size="24px" font-style="normal" font-weight="normal" text-decoration="none" x="200" y="570">UNREGISTERED</text><text fill="#eeeeee" stroke="none" font-family="Arial" font-size="24px" font-style="normal" font-weight="normal" text-decoration="none" x="400" y="0">UNREGISTERED</text><text fill="#eeeeee" stroke="none" font-family="Arial" font-size="24px" font-style="normal" font-weight="normal" text-decoration="none" x="400" y="30">UNREGISTERED</text><text fill="#eeeeee" stroke="none" font-family="Arial" font-size="24px" font-style="normal" font-weight="normal" text-decoration="none" x="400" y="60">UNREGISTERED</text><text fill="#eeeeee" stroke="none" font-family="Arial" font-size="24px" font-style="normal" font-weight="normal" text-decoration="none" x="400" y="90">UNREGISTERED</text><text fill="#eeeeee" stroke="none" font-family="Arial" font-size="24px" font-style="normal" font-weight="normal" text-decoration="none" x="400" y="120">UNREGISTERED</text><text fill="#eeeeee" stroke="none" font-family="Arial" font-size="24px" font-style="normal" font-weight="normal" text-decoration="none" x="400" y="150">UNREGISTERED</text><text fill="#eeeeee" stroke="none" font-family="Arial" font-size="24px" font-style="normal" font-weight="normal" text-decoration="none" x="400" y="180">UNREGISTERED</text><text fill="#eeeeee" stroke="none" font-family="Arial" font-size="24px" font-style="normal" font-weight="normal" text-decoration="none" x="400" y="210">UNREGISTERED</text><text fill="#eeeeee" stroke="none" font-family="Arial" font-size="24px" font-style="normal" font-weight="normal" text-decoration="none" x="400" y="240">UNREGISTERED</text><text fill="#eeeeee" stroke="none" font-family="Arial" font-size="24px" font-style="normal" font-weight="normal" text-decoration="none" x="400" y="270">UNREGISTERED</text><text fill="#eeeeee" stroke="none" font-family="Arial" font-size="24px" font-style="normal" font-weight="normal" text-decoration="none" x="400" y="300">UNREGISTERED</text><text fill="#eeeeee" stroke="none" font-family="Arial" font-size="24px" font-style="normal" font-weight="normal" text-decoration="none" x="400" y="330">UNREGISTERED</text><text fill="#eeeeee" stroke="none" font-family="Arial" font-size="24px" font-style="normal" font-weight="normal" text-decoration="none" x="400" y="360">UNREGISTERED</text><text fill="#eeeeee" stroke="none" font-family="Arial" font-size="24px" font-style="normal" font-weight="normal" text-decoration="none" x="400" y="390">UNREGISTERED</text><text fill="#eeeeee" stroke="none" font-family="Arial" font-size="24px" font-style="normal" font-weight="normal" text-decoration="none" x="400" y="420">UNREGISTERED</text><text fill="#eeeeee" stroke="none" font-family="Arial" font-size="24px" font-style="normal" font-weight="normal" text-decoration="none" x="400" y="450">UNREGISTERED</text><text fill="#eeeeee" stroke="none" font-family="Arial" font-size="24px" font-style="normal" font-weight="normal" text-decoration="none" x="400" y="480">UNREGISTERED</text><text fill="#eeeeee" stroke="none" font-family="Arial" font-size="24px" font-style="normal" font-weight="normal" text-decoration="none" x="400" y="510">UNREGISTERED</text><text fill="#eeeeee" stroke="none" font-family="Arial" font-size="24px" font-style="normal" font-weight="normal" text-decoration="none" x="400" y="540">UNREGISTERED</text><text fill="#eeeeee" stroke="none" font-family="Arial" font-size="24px" font-style="normal" font-weight="normal" text-decoration="none" x="400" y="570">UNREGISTERED</text><text fill="#eeeeee" stroke="none" font-family="Arial" font-size="24px" font-style="normal" font-weight="normal" text-decoration="none" x="600" y="0">UNREGISTERED</text><text fill="#eeeeee" stroke="none" font-family="Arial" font-size="24px" font-style="normal" font-weight="normal" text-decoration="none" x="600" y="30">UNREGISTERED</text><text fill="#eeeeee" stroke="none" font-family="Arial" font-size="24px" font-style="normal" font-weight="normal" text-decoration="none" x="600" y="60">UNREGISTERED</text><text fill="#eeeeee" stroke="none" font-family="Arial" font-size="24px" font-style="normal" font-weight="normal" text-decoration="none" x="600" y="90">UNREGISTERED</text><text fill="#eeeeee" stroke="none" font-family="Arial" font-size="24px" font-style="normal" font-weight="normal" text-decoration="none" x="600" y="120">UNREGISTERED</text><text fill="#eeeeee" stroke="none" font-family="Arial" font-size="24px" font-style="normal" font-weight="normal" text-decoration="none" x="600" y="150">UNREGISTERED</text><text fill="#eeeeee" stroke="none" font-family="Arial" font-size="24px" font-style="normal" font-weight="normal" text-decoration="none" x="600" y="180">UNREGISTERED</text><text fill="#eeeeee" stroke="none" font-family="Arial" font-size="24px" font-style="normal" font-weight="normal" text-decoration="none" x="600" y="210">UNREGISTERED</text><text fill="#eeeeee" stroke="none" font-family="Arial" font-size="24px" font-style="normal" font-weight="normal" text-decoration="none" x="600" y="240">UNREGISTERED</text><text fill="#eeeeee" stroke="none" font-family="Arial" font-size="24px" font-style="normal" font-weight="normal" text-decoration="none" x="600" y="270">UNREGISTERED</text><text fill="#eeeeee" stroke="none" font-family="Arial" font-size="24px" font-style="normal" font-weight="normal" text-decoration="none" x="600" y="300">UNREGISTERED</text><text fill="#eeeeee" stroke="none" font-family="Arial" font-size="24px" font-style="normal" font-weight="normal" text-decoration="none" x="600" y="330">UNREGISTERED</text><text fill="#eeeeee" stroke="none" font-family="Arial" font-size="24px" font-style="normal" font-weight="normal" text-decoration="none" x="600" y="360">UNREGISTERED</text><text fill="#eeeeee" stroke="none" font-family="Arial" font-size="24px" font-style="normal" font-weight="normal" text-decoration="none" x="600" y="390">UNREGISTERED</text><text fill="#eeeeee" stroke="none" font-family="Arial" font-size="24px" font-style="normal" font-weight="normal" text-decoration="none" x="600" y="420">UNREGISTERED</text><text fill="#eeeeee" stroke="none" font-family="Arial" font-size="24px" font-style="normal" font-weight="normal" text-decoration="none" x="600" y="450">UNREGISTERED</text><text fill="#eeeeee" stroke="none" font-family="Arial" font-size="24px" font-style="normal" font-weight="normal" text-decoration="none" x="600" y="480">UNREGISTERED</text><text fill="#eeeeee" stroke="none" font-family="Arial" font-size="24px" font-style="normal" font-weight="normal" text-decoration="none" x="600" y="510">UNREGISTERED</text><text fill="#eeeeee" stroke="none" font-family="Arial" font-size="24px" font-style="normal" font-weight="normal" text-decoration="none" x="600" y="540">UNREGISTERED</text><text fill="#eeeeee" stroke="none" font-family="Arial" font-size="24px" font-style="normal" font-weight="normal" text-decoration="none" x="600" y="570">UNREGISTERED</text><g transform="translate(-70,-270) scale(1,1)"><rect fill="#ffffff" stroke="none" x="528" y="280" width="224" height="21"/></g><g transform="translate(-70,-270) scale(1,1)"><path fill="none" stroke="#000000" d="M 528 280 L 752 280 L 752 301 L 528 301 L 528 280 Z Z" stroke-miterlimit="10" stroke-width="2"/></g><g transform="translate(-70,-270) scale(1,1)"><path fill="none" stroke="#000000" d="M 528 848 L 528 280 L 752 280 L 752 848" stroke-miterlimit="10" stroke-width="2"/></g><g transform="translate(-70,-270) scale(1,1)"><g><path fill="none" stroke="none"/><text fill="#000000" stroke="none" font-family="Arial" font-size="13px" font-style="normal" font-weight="normal" text-decoration="none" x="618.3291015625" y="297">System</text></g></g><g transform="translate(-70,-270) scale(1,1)"><rect fill="#ffffff" stroke="none" x="272" y="280" width="256" height="21"/></g><g transform="translate(-70,-270) scale(1,1)"><path fill="none" stroke="#000000" d="M 272 280 L 528 280 L 528 301 L 272 301 L 272 280 Z Z" stroke-miterlimit="10" stroke-width="2"/></g><g transform="translate(-70,-270) scale(1,1)"><path fill="none" stroke="#000000" d="M 272 848 L 272 280 L 528 280 L 528 848" stroke-miterlimit="10" stroke-width="2"/></g><g transform="translate(-70,-270) scale(1,1)"><g><path fill="none" stroke="none"/><text fill="#000000" stroke="none" font-family="Arial" font-size="13px" font-style="normal" font-weight="normal" text-decoration="none" x="361.7109375" y="297">Administrator</text></g></g><g transform="translate(-70,-270) scale(1,1)"><rect fill="#ffffff" stroke="none" x="80" y="280" width="192" height="21"/></g><g transform="translate(-70,-270) scale(1,1)"><path fill="none" stroke="#000000" d="M 80 280 L 272 280 L 272 301 L 80 301 L 80 280 Z Z" stroke-miterlimit="10" stroke-width="2"/></g><g transform="translate(-70,-270) scale(1,1)"><path fill="none" stroke="#000000" d="M 80 848 L 80 280 L 272 280 L 272 848" stroke-miterlimit="10" stroke-width="2"/></g><g transform="translate(-70,-270) scale(1,1)"><g><path fill="none" stroke="none"/><text fill="#000000" stroke="none" font-family="Arial" font-size="13px" font-style="normal" font-weight="normal" text-decoration="none" x="149.984130859375" y="297">Benutzer</text></g></g><g transform="translate(-70,-270) scale(1,1)"><path fill="#ffffff" stroke="none" d="M 106 435 L 227.9072265625 435 Q 237.9072265625 435 237.9072265625 445 L 237.9072265625 465 Q 237.9072265625 475 227.9072265625 475 L 106 475 Q 96 475 96 465 L 96 445 Q 96 435 106 435 Z"/></g><g transform="translate(-70,-270) scale(1,1)"><path fill="none" stroke="#000000" d="M 106 435 L 227.9072265625 435 Q 237.9072265625 435 237.9072265625 445 L 237.9072265625 465 Q 237.9072265625 475 227.9072265625 475 L 106 475 Q 96 475 96 465 L 96 445 Q 96 435 106 435 Z" stroke-miterlimit="10"/></g><g transform="translate(-70,-270) scale(1,1)"><g><path fill="none" stroke="none"/><text fill="#000000" stroke="none" font-family="Arial" font-size="13px" font-style="normal" font-weight="bold" text-decoration="none" x="104.81005859375" y="454.5">Medium zur체ckgeben</text></g></g><g transform="translate(-70,-270) scale(1,1)"><path fill="#000000" stroke="none" d="M 157 329.5 C 157 324.2532944 161.2532944 320 166.5 320 C 171.7467056 320 176 324.2532944 176 329.5 C 176 334.7467056 171.7467056 339 166.5 339 C 161.2532944 339 157 334.7467056 157 329.5 Z"/></g><g transform="translate(-70,-270) scale(1,1)"><path fill="none" stroke="#000000" d="M 166 340 L 166 434" stroke-miterlimit="10"/></g><g transform="translate(-70,-270) scale(1,1)"><path fill="none" stroke="#000000" d="M 161.790482243984 423.83732514237585 L 166 434 L 170.209517756016 423.83732514237585" stroke-miterlimit="10"/></g><g transform="translate(-70,-270) scale(1,1)"><path fill="#ffffff" stroke="none" d="M 369 435 L 477.18994140625 435 Q 487.18994140625 435 487.18994140625 445 L 487.18994140625 465 Q 487.18994140625 475 477.18994140625 475 L 369 475 Q 359 475 359 465 L 359 445 Q 359 435 369 435 Z"/></g><g transform="translate(-70,-270) scale(1,1)"><path fill="none" stroke="#000000" d="M 369 435 L 477.18994140625 435 Q 487.18994140625 435 487.18994140625 445 L 487.18994140625 465 Q 487.18994140625 475 477.18994140625 475 L 369 475 Q 359 475 359 465 L 359 445 Q 359 435 369 435 Z" stroke-miterlimit="10"/></g><g transform="translate(-70,-270) scale(1,1)"><g><path fill="none" stroke="none"/><text fill="#000000" stroke="none" font-family="Arial" font-size="13px" font-style="normal" font-weight="bold" text-decoration="none" x="367.0927734375" y="454.5">Medium ausw채hlen</text></g></g><g transform="translate(-70,-270) scale(1,1)"><path fill="none" stroke="#000000" d="M 239 455 L 358 455" stroke-miterlimit="10"/></g><g transform="translate(-70,-270) scale(1,1)"><path fill="none" stroke="#000000" d="M 347.83732514237585 459.209517756016 L 358 455 L 347.83732514237585 450.790482243984" stroke-miterlimit="10"/></g><g transform="translate(-70,-270) scale(1,1)"><path fill="#ffffff" stroke="none" d="M 386 600 L 461.68359375 600 Q 471.68359375 600 471.68359375 610 L 471.68359375 630 Q 471.68359375 640 461.68359375 640 L 386 640 Q 376 640 376 630 L 376 610 Q 376 600 386 600 Z"/></g><g transform="translate(-70,-270) scale(1,1)"><path fill="none" stroke="#000000" d="M 386 600 L 461.68359375 600 Q 471.68359375 600 471.68359375 610 L 471.68359375 630 Q 471.68359375 640 461.68359375 640 L 386 640 Q 376 640 376 630 L 376 610 Q 376 600 386 600 Z" stroke-miterlimit="10"/></g><g transform="translate(-70,-270) scale(1,1)"><g><path fill="none" stroke="none"/><text fill="#000000" stroke="none" font-family="Arial" font-size="13px" font-style="normal" font-weight="bold" text-decoration="none" x="383.369140625" y="619.5">Status 채ndern</text></g></g><g transform="translate(-70,-270) scale(1,1)"><path fill="#ffffff" stroke="none" d="M 613 600 L 688.68359375 600 Q 698.68359375 600 698.68359375 610 L 698.68359375 630 Q 698.68359375 640 688.68359375 640 L 613 640 Q 603 640 603 630 L 603 610 Q 603 600 613 600 Z"/></g><g transform="translate(-70,-270) scale(1,1)"><path fill="none" stroke="#000000" d="M 613 600 L 688.68359375 600 Q 698.68359375 600 698.68359375 610 L 698.68359375 630 Q 698.68359375 640 688.68359375 640 L 613 640 Q 603 640 603 630 L 603 610 Q 603 600 613 600 Z" stroke-miterlimit="10"/></g><g transform="translate(-70,-270) scale(1,1)"><g><path fill="none" stroke="none"/><text fill="#000000" stroke="none" font-family="Arial" font-size="13px" font-style="normal" font-weight="bold" text-decoration="none" x="610.369140625" y="619.5">Status 채ndern</text></g></g><g transform="translate(-70,-270) scale(1,1)"><path fill="none" stroke="#000000" d="M 423 476 L 423 599" stroke-miterlimit="10"/></g><g transform="translate(-70,-270) scale(1,1)"><path fill="none" stroke="#000000" d="M 418.790482243984 588.8373251423759 L 423 599 L 427.209517756016 588.8373251423759" stroke-miterlimit="10"/></g><g transform="translate(-70,-270) scale(1,1)"><path fill="none" stroke="#000000" d="M 473 620 L 602 620" stroke-miterlimit="10"/></g><g transform="translate(-70,-270) scale(1,1)"><path fill="none" stroke="#000000" d="M 591.8373251423759 624.209517756016 L 602 620 L 591.8373251423758 615.790482243984" stroke-miterlimit="10"/></g><g transform="translate(-70,-270) scale(1,1)"><path fill="none" stroke="#000000" d="M 638 716.5 C 638 709.59644 643.59644 704 650.5 704 C 657.40356 704 663 709.59644 663 716.5 C 663 723.40356 657.40356 729 650.5 729 C 643.59644 729 638 723.40356 638 716.5 Z" stroke-miterlimit="10"/></g><g transform="translate(-70,-270) scale(1,1)"><path fill="#000000" stroke="none" d="M 643 716.5 C 643 712.357864 646.357864 709 650.5 709 C 654.642136 709 658 712.357864 658 716.5 C 658 720.642136 654.642136 724 650.5 724 C 646.357864 724 643 720.642136 643 716.5 Z"/></g><g transform="translate(-70,-270) scale(1,1)"><path fill="none" stroke="#000000" d="M 650 641 L 650 703" stroke-miterlimit="10"/></g><g transform="translate(-70,-270) scale(1,1)"><path fill="none" stroke="#000000" d="M 645.790482243984 692.8373251423759 L 650 703 L 654.209517756016 692.8373251423759" stroke-miterlimit="10"/></g></g></svg>