<svg version="1.1" xmlns="http://www.w3.org/2000/svg" xmlns:xlink="http://www.w3.org/1999/xlink" width="863.75537109375" height="570"><defs/><g><text fill="#eeeeee" stroke="none" font-family="Arial" font-size="24px" font-style="normal" font-weight="normal" text-decoration="none" x="0" y="0">UNREGISTERED</text><text fill="#eeeeee" stroke="none" font-family="Arial" font-size="24px" font-style="normal" font-weight="normal" text-decoration="none" x="0" y="30">UNREGISTERED</text><text fill="#eeeeee" stroke="none" font-family="Arial" font-size="24px" font-style="normal" font-weight="normal" text-decoration="none" x="0" y="60">UNREGISTERED</text><text fill="#eeeeee" stroke="none" font-family="Arial" font-size="24px" font-style="normal" font-weight="normal" text-decoration="none" x="0" y="90">UNREGISTERED</text><text fill="#eeeeee" stroke="none" font-family="Arial" font-size="24px" font-style="normal" font-weight="normal" text-decoration="none" x="0" y="120">UNREGISTERED</text><text fill="#eeeeee" stroke="none" font-family="Arial" font-size="24px" font-style="normal" font-weight="normal" text-decoration="none" x="0" y="150">UNREGISTERED</text><text fill="#eeeeee" stroke="none" font-family="Arial" font-size="24px" font-style="normal" font-weight="normal" text-decoration="none" x="0" y="180">UNREGISTERED</text><text fill="#eeeeee" stroke="none" font-family="Arial" font-size="24px" font-style="normal" font-weight="normal" text-decoration="none" x="0" y="210">UNREGISTERED</text><text fill="#eeeeee" stroke="none" font-family="Arial" font-size="24px" font-style="normal" font-weight="normal" text-decoration="none" x="0" y="240">UNREGISTERED</text><text fill="#eeeeee" stroke="none" font-family="Arial" font-size="24px" font-style="normal" font-weight="normal" text-decoration="none" x="0" y="270">UNREGISTERED</text><text fill="#eeeeee" stroke="none" font-family="Arial" font-size="24px" font-style="normal" font-weight="normal" text-decoration="none" x="0" y="300">UNREGISTERED</text><text fill="#eeeeee" stroke="none" font-family="Arial" font-size="24px" font-style="normal" font-weight="normal" text-decoration="none" x="0" y="330">UNREGISTERED</text><text fill="#eeeeee" stroke="none" font-family="Arial" font-size="24px" font-style="normal" font-weight="normal" text-decoration="none" x="0" y="360">UNREGISTERED</text><text fill="#eeeeee" stroke="none" font-family="Arial" font-size="24px" font-style="normal" font-weight="normal" text-decoration="none" x="0" y="390">UNREGISTERED</text><text fill="#eeeeee" stroke="none" font-family="Arial" font-size="24px" font-style="normal" font-weight="normal" text-decoration="none" x="0" y="420">UNREGISTERED</text><text fill="#eeeeee" stroke="none" font-family="Arial" font-size="24px" font-style="normal" font-weight="normal" text-decoration="none" x="0" y="450">UNREGISTERED</text><text fill="#eeeeee" stroke="none" font-family="Arial" font-size="24px" font-style="normal" font-weight="normal" text-decoration="none" x="0" y="480">UNREGISTERED</text><text fill="#eeeeee" stroke="none" font-family="Arial" font-size="24px" font-style="normal" font-weight="normal" text-decoration="none" x="0" y="510">UNREGISTERED</text><text fill="#eeeeee" stroke="none" font-family="Arial" font-size="24px" font-style="normal" font-weight="normal" text-decoration="none" x="0" y="540">UNREGISTERED</text><text fill="#eeeeee" stroke="none" font-family="Arial" font-size="24px" font-style="normal" font-weight="normal" text-decoration="none" x="200" y="0">UNREGISTERED</text><text fill="#eeeeee" stroke="none" font-family="Arial" font-size="24px" font-style="normal" font-weight="normal" text-decoration="none" x="200" y="30">UNREGISTERED</text><text fill="#eeeeee" stroke="none" font-family="Arial" font-size="24px" font-style="normal" font-weight="normal" text-decoration="none" x="200" y="60">UNREGISTERED</text><text fill="#eeeeee" stroke="none" font-family="Arial" font-size="24px" font-style="normal" font-weight="normal" text-decoration="none" x="200" y="90">UNREGISTERED</text><text fill="#eeeeee" stroke="none" font-family="Arial" font-size="24px" font-style="normal" font-weight="normal" text-decoration="none" x="200" y="120">UNREGISTERED</text><text fill="#eeeeee" stroke="none" font-family="Arial" font-size="24px" font-style="normal" font-weight="normal" text-decoration="none" x="200" y="150">UNREGISTERED</text><text fill="#eeeeee" stroke="none" font-family="Arial" font-size="24px" font-style="normal" font-weight="normal" text-decoration="none" x="200" y="180">UNREGISTERED</text><text fill="#eeeeee" stroke="none" font-family="Arial" font-size="24px" font-style="normal" font-weight="normal" text-decoration="none" x="200" y="210">UNREGISTERED</text><text fill="#eeeeee" stroke="none" font-family="Arial" font-size="24px" font-style="normal" font-weight="normal" text-decoration="none" x="200" y="240">UNREGISTERED</text><text fill="#eeeeee" stroke="none" font-family="Arial" font-size="24px" font-style="normal" font-weight="normal" text-decoration="none" x="200" y="270">UNREGISTERED</text><text fill="#eeeeee" stroke="none" font-family="Arial" font-size="24px" font-style="normal" font-weight="normal" text-decoration="none" x="200" y="300">UNREGISTERED</text><text fill="#eeeeee" stroke="none" font-family="Arial" font-size="24px" font-style="normal" font-weight="normal" text-decoration="none" x="200" y="330">UNREGISTERED</text><text fill="#eeeeee" stroke="none" font-family="Arial" font-size="24px" font-style="normal" font-weight="normal" text-decoration="none" x="200" y="360">UNREGISTERED</text><text fill="#eeeeee" stroke="none" font-family="Arial" font-size="24px" font-style="normal" font-weight="normal" text-decoration="none" x="200" y="390">UNREGISTERED</text><text fill="#eeeeee" stroke="none" font-family="Arial" font-size="24px" font-style="normal" font-weight="normal" text-decoration="none" x="200" y="420">UNREGISTERED</text><text fill="#eeeeee" stroke="none" font-family="Arial" font-size="24px" font-style="normal" font-weight="normal" text-decoration="none" x="200" y="450">UNREGISTERED</text><text fill="#eeeeee" stroke="none" font-family="Arial" font-size="24px" font-style="normal" font-weight="normal" text-decoration="none" x="200" y="480">UNREGISTERED</text><text fill="#eeeeee" stroke="none" font-family="Arial" font-size="24px" font-style="normal" font-weight="normal" text-decoration="none" x="200" y="510">UNREGISTERED</text><text fill="#eeeeee" stroke="none" font-family="Arial" font-size="24px" font-style="normal" font-weight="normal" text-decoration="none" x="200" y="540">UNREGISTERED</text><text fill="#eeeeee" stroke="none" font-family="Arial" font-size="24px" font-style="normal" font-weight="normal" text-decoration="none" x="400" y="0">UNREGISTERED</text><text fill="#eeeeee" stroke="none" font-family="Arial" font-size="24px" font-style="normal" font-weight="normal" text-decoration="none" x="400" y="30">UNREGISTERED</text><text fill="#eeeeee" stroke="none" font-family="Arial" font-size="24px" font-style="normal" font-weight="normal" text-decoration="none" x="400" y="60">UNREGISTERED</text><text fill="#eeeeee" stroke="none" font-family="Arial" font-size="24px" font-style="normal" font-weight="normal" text-decoration="none" x="400" y="90">UNREGISTERED</text><text fill="#eeeeee" stroke="none" font-family="Arial" font-size="24px" font-style="normal" font-weight="normal" text-decoration="none" x="400" y="120">UNREGISTERED</text><text fill="#eeeeee" stroke="none" font-family="Arial" font-size="24px" font-style="normal" font-weight="normal" text-decoration="none" x="400" y="150">UNREGISTERED</text><text fill="#eeeeee" stroke="none" font-family="Arial" font-size="24px" font-style="normal" font-weight="normal" text-decoration="none" x="400" y="180">UNREGISTERED</text><text fill="#eeeeee" stroke="none" font-family="Arial" font-size="24px" font-style="normal" font-weight="normal" text-decoration="none" x="400" y="210">UNREGISTERED</text><text fill="#eeeeee" stroke="none" font-family="Arial" font-size="24px" font-style="normal" font-weight="normal" text-decoration="none" x="400" y="240">UNREGISTERED</text><text fill="#eeeeee" stroke="none" font-family="Arial" font-size="24px" font-style="normal" font-weight="normal" text-decoration="none" x="400" y="270">UNREGISTERED</text><text fill="#eeeeee" stroke="none" font-family="Arial" font-size="24px" font-style="normal" font-weight="normal" text-decoration="none" x="400" y="300">UNREGISTERED</text><text fill="#eeeeee" stroke="none" font-family="Arial" font-size="24px" font-style="normal" font-weight="normal" text-decoration="none" x="400" y="330">UNREGISTERED</text><text fill="#eeeeee" stroke="none" font-family="Arial" font-size="24px" font-style="normal" font-weight="normal" text-decoration="none" x="400" y="360">UNREGISTERED</text><text fill="#eeeeee" stroke="none" font-family="Arial" font-size="24px" font-style="normal" font-weight="normal" text-decoration="none" x="400" y="390">UNREGISTERED</text><text fill="#eeeeee" stroke="none" font-family="Arial" font-size="24px" font-style="normal" font-weight="normal" text-decoration="none" x="400" y="420">UNREGISTERED</text><text fill="#eeeeee" stroke="none" font-family="Arial" font-size="24px" font-style="normal" font-weight="normal" text-decoration="none" x="400" y="450">UNREGISTERED</text><text fill="#eeeeee" stroke="none" font-family="Arial" font-size="24px" font-style="normal" font-weight="normal" text-decoration="none" x="400" y="480">UNREGISTERED</text><text fill="#eeeeee" stroke="none" font-family="Arial" font-size="24px" font-style="normal" font-weight="normal" text-decoration="none" x="400" y="510">UNREGISTERED</text><text fill="#eeeeee" stroke="none" font-family="Arial" font-size="24px" font-style="normal" font-weight="normal" text-decoration="none" x="400" y="540">UNREGISTERED</text><text fill="#eeeeee" stroke="none" font-family="Arial" font-size="24px" font-style="normal" font-weight="normal" text-decoration="none" x="600" y="0">UNREGISTERED</text><text fill="#eeeeee" stroke="none" font-family="Arial" font-size="24px" font-style="normal" font-weight="normal" text-decoration="none" x="600" y="30">UNREGISTERED</text><text fill="#eeeeee" stroke="none" font-family="Arial" font-size="24px" font-style="normal" font-weight="normal" text-decoration="none" x="600" y="60">UNREGISTERED</text><text fill="#eeeeee" stroke="none" font-family="Arial" font-size="24px" font-style="normal" font-weight="normal" text-decoration="none" x="600" y="90">UNREGISTERED</text><text fill="#eeeeee" stroke="none" font-family="Arial" font-size="24px" font-style="normal" font-weight="normal" text-decoration="none" x="600" y="120">UNREGISTERED</text><text fill="#eeeeee" stroke="none" font-family="Arial" font-size="24px" font-style="normal" font-weight="normal" text-decoration="none" x="600" y="150">UNREGISTERED</text><text fill="#eeeeee" stroke="none" font-family="Arial" font-size="24px" font-style="normal" font-weight="normal" text-decoration="none" x="600" y="180">UNREGISTERED</text><text fill="#eeeeee" stroke="none" font-family="Arial" font-size="24px" font-style="normal" font-weight="normal" text-decoration="none" x="600" y="210">UNREGISTERED</text><text fill="#eeeeee" stroke="none" font-family="Arial" font-size="24px" font-style="normal" font-weight="normal" text-decoration="none" x="600" y="240">UNREGISTERED</text><text fill="#eeeeee" stroke="none" font-family="Arial" font-size="24px" font-style="normal" font-weight="normal" text-decoration="none" x="600" y="270">UNREGISTERED</text><text fill="#eeeeee" stroke="none" font-family="Arial" font-size="24px" font-style="normal" font-weight="normal" text-decoration="none" x="600" y="300">UNREGISTERED</text><text fill="#eeeeee" stroke="none" font-family="Arial" font-size="24px" font-style="normal" font-weight="normal" text-decoration="none" x="600" y="330">UNREGISTERED</text><text fill="#eeeeee" stroke="none" font-family="Arial" font-size="24px" font-style="normal" font-weight="normal" text-decoration="none" x="600" y="360">UNREGISTERED</text><text fill="#eeeeee" stroke="none" font-family="Arial" font-size="24px" font-style="normal" font-weight="normal" text-decoration="none" x="600" y="390">UNREGISTERED</text><text fill="#eeeeee" stroke="none" font-family="Arial" font-size="24px" font-style="normal" font-weight="normal" text-decoration="none" x="600" y="420">UNREGISTERED</text><text fill="#eeeeee" stroke="none" font-family="Arial" font-size="24px" font-style="normal" font-weight="normal" text-decoration="none" x="600" y="450">UNREGISTERED</text><text fill="#eeeeee" stroke="none" font-family="Arial" font-size="24px" font-style="normal" font-weight="normal" text-decoration="none" x="600" y="480">UNREGISTERED</text><text fill="#eeeeee" stroke="none" font-family="Arial" font-size="24px" font-style="normal" font-weight="normal" text-decoration="none" x="600" y="510">UNREGISTERED</text><text fill="#eeeeee" stroke="none" font-family="Arial" font-size="24px" font-style="normal" font-weight="normal" text-decoration="none" x="600" y="540">UNREGISTERED</text><text fill="#eeeeee" stroke="none" font-family="Arial" font-size="24px" font-style="normal" font-weight="normal" text-decoration="none" x="800" y="0">UNREGISTERED</text><text fill="#eeeeee" stroke="none" font-family="Arial" font-size="24px" font-style="normal" font-weight="normal" text-decoration="none" x="800" y="30">UNREGISTERED</text><text fill="#eeeeee" stroke="none" font-family="Arial" font-size="24px" font-style="normal" font-weight="normal" text-decoration="none" x="800" y="60">UNREGISTERED</text><text fill="#eeeeee" stroke="none" font-family="Arial" font-size="24px" font-style="normal" font-weight="normal" text-decoration="none" x="800" y="90">UNREGISTERED</text><text fill="#eeeeee" stroke="none" font-family="Arial" font-size="24px" font-style="normal" font-weight="normal" text-decoration="none" x="800" y="120">UNREGISTERED</text><text fill="#eeeeee" stroke="none" font-family="Arial" font-size="24px" font-style="normal" font-weight="normal" text-decoration="none" x="800" y="150">UNREGISTERED</text><text fill="#eeeeee" stroke="none" font-family="Arial" font-size="24px" font-style="normal" font-weight="normal" text-decoration="none" x="800" y="180">UNREGISTERED</text><text fill="#eeeeee" stroke="none" font-family="Arial" font-size="24px" font-style="normal" font-weight="normal" text-decoration="none" x="800" y="210">UNREGISTERED</text><text fill="#eeeeee" stroke="none" font-family="Arial" font-size="24px" font-style="normal" font-weight="normal" text-decoration="none" x="800" y="240">UNREGISTERED</text><text fill="#eeeeee" stroke="none" font-family="Arial" font-size="24px" font-style="normal" font-weight="normal" text-decoration="none" x="800" y="270">UNREGISTERED</text><text fill="#eeeeee" stroke="none" font-family="Arial" font-size="24px" font-style="normal" font-weight="normal" text-decoration="none" x="800" y="300">UNREGISTERED</text><text fill="#eeeeee" stroke="none" font-family="Arial" font-size="24px" font-style="normal" font-weight="normal" text-decoration="none" x="800" y="330">UNREGISTERED</text><text fill="#eeeeee" stroke="none" font-family="Arial" font-size="24px" font-style="normal" font-weight="normal" text-decoration="none" x="800" y="360">UNREGISTERED</text><text fill="#eeeeee" stroke="none" font-family="Arial" font-size="24px" font-style="normal" font-weight="normal" text-decoration="none" x="800" y="390">UNREGISTERED</text><text fill="#eeeeee" stroke="none" font-family="Arial" font-size="24px" font-style="normal" font-weight="normal" text-decoration="none" x="800" y="420">UNREGISTERED</text><text fill="#eeeeee" stroke="none" font-family="Arial" font-size="24px" font-style="normal" font-weight="normal" text-decoration="none" x="800" y="450">UNREGISTERED</text><text fill="#eeeeee" stroke="none" font-family="Arial" font-size="24px" font-style="normal" font-weight="normal" text-decoration="none" x="800" y="480">UNREGISTERED</text><text fill="#eeeeee" stroke="none" font-family="Arial" font-size="24px" font-style="normal" font-weight="normal" text-decoration="none" x="800" y="510">UNREGISTERED</text><text fill="#eeeeee" stroke="none" font-family="Arial" font-size="24px" font-style="normal" font-weight="normal" text-decoration="none" x="800" y="540">UNREGISTERED</text><g transform="translate(-78,-30) scale(1,1)"><rect fill="#C0C0C0" stroke="none" x="239" y="47" width="103.50634765625" height="39" opacity="0.2"/></g><g transform="translate(-78,-30) scale(1,1)"><rect fill="#ffffff" stroke="none" x="232" y="40" width="103.50634765625" height="39"/></g><g transform="translate(-78,-30) scale(1,1)"><path fill="none" stroke="#000000" d="M 232 40 L 335.50634765625 40 L 335.50634765625 79 L 232 79 L 232 40 Z Z" stroke-miterlimit="10"/></g><g transform="translate(-78,-30) scale(1,1)"><g><path fill="none" stroke="none"/><text fill="#000000" stroke="none" font-family="Arial" font-size="13px" font-style="normal" font-weight="bold" text-decoration="none" x="245.82275390625" y="59.5">bookList.fxml</text></g></g><g transform="translate(-78,-30) scale(1,1)"><path fill="none" stroke="#000000" d="M 284.5 80 L 284.5 590" stroke-miterlimit="10" stroke-dasharray="3"/></g><g transform="translate(-78,-30) scale(1,1)"><rect fill="#C0C0C0" stroke="none" x="423" y="47" width="164.919921875" height="39" opacity="0.2"/></g><g transform="translate(-78,-30) scale(1,1)"><rect fill="#ffffff" stroke="none" x="416" y="40" width="164.919921875" height="39"/></g><g transform="translate(-78,-30) scale(1,1)"><path fill="none" stroke="#000000" d="M 416 40 L 580.919921875 40 L 580.919921875 79 L 416 79 L 416 40 Z Z" stroke-miterlimit="10"/></g><g transform="translate(-78,-30) scale(1,1)"><g><path fill="none" stroke="none"/><text fill="#000000" stroke="none" font-family="Arial" font-size="13px" font-style="normal" font-weight="bold" text-decoration="none" x="431.98095703125" y="59.5">BookListController.java</text></g></g><g transform="translate(-78,-30) scale(1,1)"><path fill="none" stroke="#000000" d="M 499.5 80 L 499.5 590" stroke-miterlimit="10" stroke-dasharray="3"/></g><g transform="translate(-78,-30) scale(1,1)"><rect fill="#C0C0C0" stroke="none" x="631" y="47" width="146.8798828125" height="39" opacity="0.2"/></g><g transform="translate(-78,-30) scale(1,1)"><rect fill="#ffffff" stroke="none" x="624" y="40" width="146.8798828125" height="39"/></g><g transform="translate(-78,-30) scale(1,1)"><path fill="none" stroke="#000000" d="M 624 40 L 770.8798828125 40 L 770.8798828125 79 L 624 79 L 624 40 Z Z" stroke-miterlimit="10"/></g><g transform="translate(-78,-30) scale(1,1)"><g><path fill="none" stroke="none"/><text fill="#000000" stroke="none" font-family="Arial" font-size="13px" font-style="normal" font-weight="bold" text-decoration="none" x="638.19091796875" y="59.5">QueryController.java</text></g></g><g transform="translate(-78,-30) scale(1,1)"><path fill="none" stroke="#000000" d="M 698.5 80 L 698.5 502" stroke-miterlimit="10" stroke-dasharray="3"/></g><g transform="translate(-78,-30) scale(1,1)"><rect fill="#C0C0C0" stroke="none" x="815" y="47" width="123.75537109375" height="39" opacity="0.2"/></g><g transform="translate(-78,-30) scale(1,1)"><rect fill="#ffffff" stroke="none" x="808" y="40" width="123.75537109375" height="39"/></g><g transform="translate(-78,-30) scale(1,1)"><path fill="none" stroke="#000000" d="M 808 40 L 931.75537109375 40 L 931.75537109375 79 L 808 79 L 808 40 Z Z" stroke-miterlimit="10"/></g><g transform="translate(-78,-30) scale(1,1)"><g><path fill="none" stroke="none"/><text fill="#000000" stroke="none" font-family="Arial" font-size="13px" font-style="normal" font-weight="bold" text-decoration="none" x="819.655029296875" y="59.5">MySQL database</text></g></g><g transform="translate(-78,-30) scale(1,1)"><path fill="none" stroke="#000000" d="M 870.5 80 L 870.5 410" stroke-miterlimit="10" stroke-dasharray="3"/></g><g transform="translate(-78,-30) scale(1,1)"><path fill="none" stroke="#000000" d="M 284 96 L 314 96 L 314 116 L 290 116" stroke-miterlimit="10"/></g><g transform="translate(-78,-30) scale(1,1)"><path fill="#000000" stroke="none" d="M 300.16267485762415 111.79048224398402 L 290 116 L 300.16267485762415 120.20951775601598"/></g><g transform="translate(-78,-30) scale(1,1)"><path fill="none" stroke="#000000" d="M 300.16267485762415 111.79048224398402 L 290 116 L 300.16267485762415 120.20951775601598 L 300.16267485762415 111.79048224398402" stroke-miterlimit="10"/></g><g transform="translate(-78,-30) scale(1,1)"><g><path fill="none" stroke="none"/><text fill="#000000" stroke="none" font-family="Arial" font-size="13px" font-style="normal" font-weight="normal" text-decoration="none" x="339.4873046875" y="106.5">1 : select</text><text fill="#000000" stroke="none" font-family="Arial" font-size="13px" font-style="normal" font-weight="normal" text-decoration="none" x="326.484130859375" y="119.5">borrow status</text></g></g><g transform="translate(-78,-30) scale(1,1)"><rect fill="#ffffff" stroke="none" x="277" y="116" width="13" height="36"/></g><g transform="translate(-78,-30) scale(1,1)"><path fill="none" stroke="#000000" d="M 277 116 L 290 116 L 290 152 L 277 152 L 277 116 Z Z" stroke-miterlimit="10"/></g><g transform="translate(-78,-30) scale(1,1)"><path fill="none" stroke="#000000" d="M 290 144 L 492 144" stroke-miterlimit="10"/></g><g transform="translate(-78,-30) scale(1,1)"><path fill="#000000" stroke="none" d="M 481.83732514237585 148.209517756016 L 492 144 L 481.83732514237585 139.790482243984"/></g><g transform="translate(-78,-30) scale(1,1)"><path fill="none" stroke="#000000" d="M 481.83732514237585 148.209517756016 L 492 144 L 481.83732514237585 139.790482243984 L 481.83732514237585 148.209517756016" stroke-miterlimit="10"/></g><g transform="translate(-78,-30) scale(1,1)"><g><path fill="none" stroke="none"/><text fill="#000000" stroke="none" font-family="Arial" font-size="13px" font-style="normal" font-weight="normal" text-decoration="none" x="361.608642578125" y="140.5">2 : update</text></g></g><g transform="translate(-78,-30) scale(1,1)"><rect fill="#ffffff" stroke="none" x="492" y="144" width="13" height="424"/></g><g transform="translate(-78,-30) scale(1,1)"><path fill="none" stroke="#000000" d="M 492 144 L 505 144 L 505 568 L 492 568 L 492 144 Z Z" stroke-miterlimit="10"/></g><g transform="translate(-78,-30) scale(1,1)"><path fill="none" stroke="#000000" d="M 492 177 L 290 177" stroke-miterlimit="10"/></g><g transform="translate(-78,-30) scale(1,1)"><path fill="#000000" stroke="none" d="M 300.16267485762415 172.790482243984 L 290 177 L 300.16267485762415 181.209517756016"/></g><g transform="translate(-78,-30) scale(1,1)"><path fill="none" stroke="#000000" d="M 300.16267485762415 172.790482243984 L 290 177 L 300.16267485762415 181.209517756016 L 300.16267485762415 172.790482243984" stroke-miterlimit="10"/></g><g transform="translate(-78,-30) scale(1,1)"><g><path fill="none" stroke="none"/><text fill="#000000" stroke="none" font-family="Arial" font-size="13px" font-style="normal" font-weight="normal" text-decoration="none" x="324.958740234375" y="195.5">3 : fetch selected book</text><text fill="#000000" stroke="none" font-family="Arial" font-size="13px" font-style="normal" font-weight="normal" text-decoration="none" x="340.50732421875" y="208.5">set borrow status</text></g></g><g transform="translate(-78,-30) scale(1,1)"><rect fill="#ffffff" stroke="none" x="277" y="177" width="13" height="63"/></g><g transform="translate(-78,-30) scale(1,1)"><path fill="none" stroke="#000000" d="M 277 177 L 290 177 L 290 240 L 277 240 L 277 177 Z Z" stroke-miterlimit="10"/></g><g transform="translate(-78,-30) scale(1,1)"><path fill="none" stroke="#000000" d="M 290 232 L 492 232" stroke-miterlimit="10" stroke-dasharray="3"/></g><g transform="translate(-78,-30) scale(1,1)"><path fill="none" stroke="#000000" d="M 481.83732514237585 236.209517756016 L 492 232 L 481.83732514237585 227.790482243984" stroke-miterlimit="10"/></g><g transform="translate(-78,-30) scale(1,1)"><g><path fill="none" stroke="none"/><text fill="#000000" stroke="none" font-family="Arial" font-size="13px" font-style="normal" font-weight="normal" text-decoration="none" x="342.5" y="228.5">4 : borrow status</text></g></g><g transform="translate(-78,-30) scale(1,1)"><path fill="none" stroke="#000000" d="M 505 248 L 535 248 L 535 268 L 512 268" stroke-miterlimit="10"/></g><g transform="translate(-78,-30) scale(1,1)"><path fill="#000000" stroke="none" d="M 522.1626748576241 263.790482243984 L 512 268 L 522.1626748576241 272.209517756016"/></g><g transform="translate(-78,-30) scale(1,1)"><path fill="none" stroke="#000000" d="M 522.1626748576241 263.790482243984 L 512 268 L 522.1626748576241 272.209517756016 L 522.1626748576241 263.790482243984" stroke-miterlimit="10"/></g><g transform="translate(-78,-30) scale(1,1)"><g><path fill="none" stroke="none"/><text fill="#000000" stroke="none" font-family="Arial" font-size="13px" font-style="normal" font-weight="normal" text-decoration="none" x="552.464599609375" y="258.5">5 : book = from</text><text fill="#000000" stroke="none" font-family="Arial" font-size="13px" font-style="normal" font-weight="normal" text-decoration="none" x="572.155029296875" y="271.5">table list</text></g></g><g transform="translate(-78,-30) scale(1,1)"><rect fill="#ffffff" stroke="none" x="499" y="268" width="13" height="28"/></g><g transform="translate(-78,-30) scale(1,1)"><path fill="none" stroke="#000000" d="M 499 268 L 512 268 L 512 296 L 499 296 L 499 268 Z Z" stroke-miterlimit="10"/></g><g transform="translate(-78,-30) scale(1,1)"><path fill="none" stroke="#000000" d="M 505 328 L 691 328" stroke-miterlimit="10"/></g><g transform="translate(-78,-30) scale(1,1)"><path fill="#000000" stroke="none" d="M 680.8373251423759 332.209517756016 L 691 328 L 680.8373251423758 323.790482243984"/></g><g transform="translate(-78,-30) scale(1,1)"><path fill="none" stroke="#000000" d="M 680.8373251423759 332.209517756016 L 691 328 L 680.8373251423758 323.790482243984 L 680.8373251423759 332.209517756016" stroke-miterlimit="10"/></g><g transform="translate(-78,-30) scale(1,1)"><g><path fill="none" stroke="none"/><text fill="#000000" stroke="none" font-family="Arial" font-size="13px" font-style="normal" font-weight="normal" text-decoration="none" x="561.36962890625" y="307.5">6 : updated =</text><text fill="#000000" stroke="none" font-family="Arial" font-size="13px" font-style="normal" font-weight="normal" text-decoration="none" x="522.17919921875" y="320.5">updateBorrowStatus(book)</text></g></g><g transform="translate(-78,-30) scale(1,1)"><rect fill="#ffffff" stroke="none" x="691" y="328" width="13" height="152"/></g><g transform="translate(-78,-30) scale(1,1)"><path fill="none" stroke="#000000" d="M 691 328 L 704 328 L 704 480 L 691 480 L 691 328 Z Z" stroke-miterlimit="10"/></g><g transform="translate(-78,-30) scale(1,1)"><path fill="none" stroke="#000000" d="M 704 344 L 863 344" stroke-miterlimit="10"/></g><g transform="translate(-78,-30) scale(1,1)"><path fill="#000000" stroke="none" d="M 852.8373251423759 348.209517756016 L 863 344 L 852.8373251423758 339.790482243984"/></g><g transform="translate(-78,-30) scale(1,1)"><path fill="none" stroke="#000000" d="M 852.8373251423759 348.209517756016 L 863 344 L 852.8373251423758 339.790482243984 L 852.8373251423759 348.209517756016" stroke-miterlimit="10"/></g><g transform="translate(-78,-30) scale(1,1)"><g><path fill="none" stroke="none"/><text fill="#000000" stroke="none" font-family="Arial" font-size="13px" font-style="normal" font-weight="normal" text-decoration="none" x="747.60693359375" y="340.5">7 : UPDATE</text></g></g><g transform="translate(-78,-30) scale(1,1)"><rect fill="#ffffff" stroke="none" x="863" y="344" width="13" height="28"/></g><g transform="translate(-78,-30) scale(1,1)"><path fill="none" stroke="#000000" d="M 863 344 L 876 344 L 876 372 L 863 372 L 863 344 Z Z" stroke-miterlimit="10"/></g><g transform="translate(-78,-30) scale(1,1)"><path fill="none" stroke="#000000" d="M 863 362 L 704 362" stroke-miterlimit="10" stroke-dasharray="3"/></g><g transform="translate(-78,-30) scale(1,1)"><path fill="none" stroke="#000000" d="M 714.1626748576241 357.790482243984 L 704 362 L 714.1626748576241 366.209517756016" stroke-miterlimit="10"/></g><g transform="translate(-78,-30) scale(1,1)"><g><path fill="none" stroke="none"/><text fill="#000000" stroke="none" font-family="Arial" font-size="13px" font-style="normal" font-weight="normal" text-decoration="none" x="737.5" y="378.5">8 : confirmation</text></g></g><g transform="translate(-78,-30) scale(1,1)"><path fill="none" stroke="#000000" d="M 691 395 L 505 395" stroke-miterlimit="10" stroke-dasharray="3"/></g><g transform="translate(-78,-30) scale(1,1)"><path fill="none" stroke="#000000" d="M 515.1626748576241 390.790482243984 L 505 395 L 515.1626748576241 399.209517756016" stroke-miterlimit="10"/></g><g transform="translate(-78,-30) scale(1,1)"><g><path fill="none" stroke="none"/><text fill="#000000" stroke="none" font-family="Arial" font-size="13px" font-style="normal" font-weight="normal" text-decoration="none" x="574.5" y="411.5">9 : false</text></g></g><g transform="translate(-78,-30) scale(1,1)"><path fill="none" stroke="#000000" d="M 492 408 L 284 408" stroke-miterlimit="10" stroke-dasharray="3"/></g><g transform="translate(-78,-30) scale(1,1)"><path fill="none" stroke="#000000" d="M 294.16267485762415 403.790482243984 L 284 408 L 294.16267485762415 412.209517756016" stroke-miterlimit="10"/></g><g transform="translate(-78,-30) scale(1,1)"><g><path fill="none" stroke="none"/><text fill="#000000" stroke="none" font-family="Arial" font-size="13px" font-style="normal" font-weight="normal" text-decoration="none" x="301.5" y="424.5">10 : "Database update failed!"</text></g></g><g transform="translate(-78,-30) scale(1,1)"><path fill="none" stroke="#000000" d="M 691 472 L 505 472" stroke-miterlimit="10" stroke-dasharray="3"/></g><g transform="translate(-78,-30) scale(1,1)"><path fill="none" stroke="#000000" d="M 515.1626748576241 467.790482243984 L 505 472 L 515.1626748576241 476.209517756016" stroke-miterlimit="10"/></g><g transform="translate(-78,-30) scale(1,1)"><g><path fill="none" stroke="none"/><text fill="#000000" stroke="none" font-family="Arial" font-size="13px" font-style="normal" font-weight="normal" text-decoration="none" x="573.5" y="488.5">11 : true</text></g></g><g transform="translate(-78,-30) scale(1,1)"><path fill="none" stroke="#000000" d="M 505 504 L 535 504 L 535 524 L 512 524" stroke-miterlimit="10"/></g><g transform="translate(-78,-30) scale(1,1)"><path fill="#000000" stroke="none" d="M 522.1626748576241 519.790482243984 L 512 524 L 522.1626748576241 528.209517756016"/></g><g transform="translate(-78,-30) scale(1,1)"><path fill="none" stroke="#000000" d="M 522.1626748576241 519.790482243984 L 512 524 L 522.1626748576241 528.209517756016 L 522.1626748576241 519.790482243984" stroke-miterlimit="10"/></g><g transform="translate(-78,-30) scale(1,1)"><g><path fill="none" stroke="none"/><text fill="#000000" stroke="none" font-family="Arial" font-size="13px" font-style="normal" font-weight="normal" text-decoration="none" x="544.879638671875" y="515.5">12 : set updated</text><text fill="#000000" stroke="none" font-family="Arial" font-size="13px" font-style="normal" font-weight="normal" text-decoration="none" x="567.293212890625" y="528.5">status in</text><text fill="#000000" stroke="none" font-family="Arial" font-size="13px" font-style="normal" font-weight="normal" text-decoration="none" x="551.38916015625" y="541.5">selected book</text><text fill="#000000" stroke="none" font-family="Arial" font-size="13px" font-style="normal" font-weight="normal" text-decoration="none" x="552.84912109375" y="554.5">from table list</text></g></g><g transform="translate(-78,-30) scale(1,1)"><rect fill="#ffffff" stroke="none" x="499" y="524" width="13" height="28"/></g><g transform="translate(-78,-30) scale(1,1)"><path fill="none" stroke="#000000" d="M 499 524 L 512 524 L 512 552 L 499 552 L 499 524 Z Z" stroke-miterlimit="10"/></g><g transform="translate(-78,-30) scale(1,1)"><path fill="none" stroke="#000000" d="M 492 560 L 284 560" stroke-miterlimit="10" stroke-dasharray="3"/></g><g transform="translate(-78,-30) scale(1,1)"><path fill="none" stroke="#000000" d="M 294.16267485762415 555.790482243984 L 284 560 L 294.16267485762415 564.209517756016" stroke-miterlimit="10"/></g><g transform="translate(-78,-30) scale(1,1)"><g><path fill="none" stroke="none"/><text fill="#000000" stroke="none" font-family="Arial" font-size="13px" font-style="normal" font-weight="normal" text-decoration="none" x="302.5" y="576.5">13 : "Borrow status updated!"</text></g></g><g transform="translate(-78,-30) scale(1,1)"><path fill="none" stroke="#000000" d="M 88 384 L 720 384 L 720 456 L 88 456 L 88 384" stroke-miterlimit="10"/></g><g transform="translate(-78,-30) scale(1,1)"><path fill="#ffffff" stroke="none" d="M 88 384 L 88 406 L 261.28857421875 406 L 272.28857421875 395 L 272.28857421875 384 L 88 384"/></g><g transform="translate(-78,-30) scale(1,1)"><path fill="none" stroke="#000000" d="M 88 384 L 88 406 L 261.28857421875 406 L 272.28857421875 395 L 272.28857421875 384 L 88 384 L 88 384" stroke-miterlimit="10"/></g><g transform="translate(-78,-30) scale(1,1)"><g><path fill="none" stroke="none"/><text fill="#000000" stroke="none" font-family="Arial" font-size="13px" font-style="normal" font-weight="normal" text-decoration="none" x="112.72998046875" y="401.5">database UPDATE failed</text></g></g><g transform="translate(-78,-30) scale(1,1)"><g><path fill="none" stroke="none"/><text fill="#000000" stroke="none" font-family="Arial" font-size="13px" font-style="normal" font-weight="bold" text-decoration="none" x="93" y="401.5">alt</text></g></g></g></svg>