<svg version="1.1" xmlns="http://www.w3.org/2000/svg" xmlns:xlink="http://www.w3.org/1999/xlink" width="730.67529296875" height="334"><defs/><g><text fill="#eeeeee" stroke="none" font-family="Arial" font-size="24px" font-style="normal" font-weight="normal" text-decoration="none" x="0" y="0">UNREGISTERED</text><text fill="#eeeeee" stroke="none" font-family="Arial" font-size="24px" font-style="normal" font-weight="normal" text-decoration="none" x="0" y="30">UNREGISTERED</text><text fill="#eeeeee" stroke="none" font-family="Arial" font-size="24px" font-style="normal" font-weight="normal" text-decoration="none" x="0" y="60">UNREGISTERED</text><text fill="#eeeeee" stroke="none" font-family="Arial" font-size="24px" font-style="normal" font-weight="normal" text-decoration="none" x="0" y="90">UNREGISTERED</text><text fill="#eeeeee" stroke="none" font-family="Arial" font-size="24px" font-style="normal" font-weight="normal" text-decoration="none" x="0" y="120">UNREGISTERED</text><text fill="#eeeeee" stroke="none" font-family="Arial" font-size="24px" font-style="normal" font-weight="normal" text-decoration="none" x="0" y="150">UNREGISTERED</text><text fill="#eeeeee" stroke="none" font-family="Arial" font-size="24px" font-style="normal" font-weight="normal" text-decoration="none" x="0" y="180">UNREGISTERED</text><text fill="#eeeeee" stroke="none" font-family="Arial" font-size="24px" font-style="normal" font-weight="normal" text-decoration="none" x="0" y="210">UNREGISTERED</text><text fill="#eeeeee" stroke="none" font-family="Arial" font-size="24px" font-style="normal" font-weight="normal" text-decoration="none" x="0" y="240">UNREGISTERED</text><text fill="#eeeeee" stroke="none" font-family="Arial" font-size="24px" font-style="normal" font-weight="normal" text-decoration="none" x="0" y="270">UNREGISTERED</text><text fill="#eeeeee" stroke="none" font-family="Arial" font-size="24px" font-style="normal" font-weight="normal" text-decoration="none" x="0" y="300">UNREGISTERED</text><text fill="#eeeeee" stroke="none" font-family="Arial" font-size="24px" font-style="normal" font-weight="normal" text-decoration="none" x="0" y="330">UNREGISTERED</text><text fill="#eeeeee" stroke="none" font-family="Arial" font-size="24px" font-style="normal" font-weight="normal" text-decoration="none" x="200" y="0">UNREGISTERED</text><text fill="#eeeeee" stroke="none" font-family="Arial" font-size="24px" font-style="normal" font-weight="normal" text-decoration="none" x="200" y="30">UNREGISTERED</text><text fill="#eeeeee" stroke="none" font-family="Arial" font-size="24px" font-style="normal" font-weight="normal" text-decoration="none" x="200" y="60">UNREGISTERED</text><text fill="#eeeeee" stroke="none" font-family="Arial" font-size="24px" font-style="normal" font-weight="normal" text-decoration="none" x="200" y="90">UNREGISTERED</text><text fill="#eeeeee" stroke="none" font-family="Arial" font-size="24px" font-style="normal" font-weight="normal" text-decoration="none" x="200" y="120">UNREGISTERED</text><text fill="#eeeeee" stroke="none" font-family="Arial" font-size="24px" font-style="normal" font-weight="normal" text-decoration="none" x="200" y="150">UNREGISTERED</text><text fill="#eeeeee" stroke="none" font-family="Arial" font-size="24px" font-style="normal" font-weight="normal" text-decoration="none" x="200" y="180">UNREGISTERED</text><text fill="#eeeeee" stroke="none" font-family="Arial" font-size="24px" font-style="normal" font-weight="normal" text-decoration="none" x="200" y="210">UNREGISTERED</text><text fill="#eeeeee" stroke="none" font-family="Arial" font-size="24px" font-style="normal" font-weight="normal" text-decoration="none" x="200" y="240">UNREGISTERED</text><text fill="#eeeeee" stroke="none" font-family="Arial" font-size="24px" font-style="normal" font-weight="normal" text-decoration="none" x="200" y="270">UNREGISTERED</text><text fill="#eeeeee" stroke="none" font-family="Arial" font-size="24px" font-style="normal" font-weight="normal" text-decoration="none" x="200" y="300">UNREGISTERED</text><text fill="#eeeeee" stroke="none" font-family="Arial" font-size="24px" font-style="normal" font-weight="normal" text-decoration="none" x="200" y="330">UNREGISTERED</text><text fill="#eeeeee" stroke="none" font-family="Arial" font-size="24px" font-style="normal" font-weight="normal" text-decoration="none" x="400" y="0">UNREGISTERED</text><text fill="#eeeeee" stroke="none" font-family="Arial" font-size="24px" font-style="normal" font-weight="normal" text-decoration="none" x="400" y="30">UNREGISTERED</text><text fill="#eeeeee" stroke="none" font-family="Arial" font-size="24px" font-style="normal" font-weight="normal" text-decoration="none" x="400" y="60">UNREGISTERED</text><text fill="#eeeeee" stroke="none" font-family="Arial" font-size="24px" font-style="normal" font-weight="normal" text-decoration="none" x="400" y="90">UNREGISTERED</text><text fill="#eeeeee" stroke="none" font-family="Arial" font-size="24px" font-style="normal" font-weight="normal" text-decoration="none" x="400" y="120">UNREGISTERED</text><text fill="#eeeeee" stroke="none" font-family="Arial" font-size="24px" font-style="normal" font-weight="normal" text-decoration="none" x="400" y="150">UNREGISTERED</text><text fill="#eeeeee" stroke="none" font-family="Arial" font-size="24px" font-style="normal" font-weight="normal" text-decoration="none" x="400" y="180">UNREGISTERED</text><text fill="#eeeeee" stroke="none" font-family="Arial" font-size="24px" font-style="normal" font-weight="normal" text-decoration="none" x="400" y="210">UNREGISTERED</text><text fill="#eeeeee" stroke="none" font-family="Arial" font-size="24px" font-style="normal" font-weight="normal" text-decoration="none" x="400" y="240">UNREGISTERED</text><text fill="#eeeeee" stroke="none" font-family="Arial" font-size="24px" font-style="normal" font-weight="normal" text-decoration="none" x="400" y="270">UNREGISTERED</text><text fill="#eeeeee" stroke="none" font-family="Arial" font-size="24px" font-style="normal" font-weight="normal" text-decoration="none" x="400" y="300">UNREGISTERED</text><text fill="#eeeeee" stroke="none" font-family="Arial" font-size="24px" font-style="normal" font-weight="normal" text-decoration="none" x="400" y="330">UNREGISTERED</text><text fill="#eeeeee" stroke="none" font-family="Arial" font-size="24px" font-style="normal" font-weight="normal" text-decoration="none" x="600" y="0">UNREGISTERED</text><text fill="#eeeeee" stroke="none" font-family="Arial" font-size="24px" font-style="normal" font-weight="normal" text-decoration="none" x="600" y="30">UNREGISTERED</text><text fill="#eeeeee" stroke="none" font-family="Arial" font-size="24px" font-style="normal" font-weight="normal" text-decoration="none" x="600" y="60">UNREGISTERED</text><text fill="#eeeeee" stroke="none" font-family="Arial" font-size="24px" font-style="normal" font-weight="normal" text-decoration="none" x="600" y="90">UNREGISTERED</text><text fill="#eeeeee" stroke="none" font-family="Arial" font-size="24px" font-style="normal" font-weight="normal" text-decoration="none" x="600" y="120">UNREGISTERED</text><text fill="#eeeeee" stroke="none" font-family="Arial" font-size="24px" font-style="normal" font-weight="normal" text-decoration="none" x="600" y="150">UNREGISTERED</text><text fill="#eeeeee" stroke="none" font-family="Arial" font-size="24px" font-style="normal" font-weight="normal" text-decoration="none" x="600" y="180">UNREGISTERED</text><text fill="#eeeeee" stroke="none" font-family="Arial" font-size="24px" font-style="normal" font-weight="normal" text-decoration="none" x="600" y="210">UNREGISTERED</text><text fill="#eeeeee" stroke="none" font-family="Arial" font-size="24px" font-style="normal" font-weight="normal" text-decoration="none" x="600" y="240">UNREGISTERED</text><text fill="#eeeeee" stroke="none" font-family="Arial" font-size="24px" font-style="normal" font-weight="normal" text-decoration="none" x="600" y="270">UNREGISTERED</text><text fill="#eeeeee" stroke="none" font-family="Arial" font-size="24px" font-style="normal" font-weight="normal" text-decoration="none" x="600" y="300">UNREGISTERED</text><text fill="#eeeeee" stroke="none" font-family="Arial" font-size="24px" font-style="normal" font-weight="normal" text-decoration="none" x="600" y="330">UNREGISTERED</text><g transform="translate(-54,-30) scale(1,1)"><rect fill="#C0C0C0" stroke="none" x="263" y="47" width="92.43603515625" height="39" opacity="0.2"/></g><g transform="translate(-54,-30) scale(1,1)"><rect fill="#ffffff" stroke="none" x="256" y="40" width="92.43603515625" height="39"/></g><g transform="translate(-54,-30) scale(1,1)"><path fill="none" stroke="#000000" d="M 256 40 L 348.43603515625 40 L 348.43603515625 79 L 256 79 L 256 40 Z Z" stroke-miterlimit="10"/></g><g transform="translate(-54,-30) scale(1,1)"><g><path fill="none" stroke="none"/><text fill="#000000" stroke="none" font-family="Arial" font-size="13px" font-style="normal" font-weight="bold" text-decoration="none" x="268.385009765625" y="59.5">topNav.fxml</text></g></g><g transform="translate(-54,-30) scale(1,1)"><path fill="none" stroke="#000000" d="M 303.5 80 L 303.5 298" stroke-miterlimit="10" stroke-dasharray="3"/></g><g transform="translate(-54,-30) scale(1,1)"><rect fill="#C0C0C0" stroke="none" x="431" y="47" width="156.01416015625" height="39" opacity="0.2"/></g><g transform="translate(-54,-30) scale(1,1)"><rect fill="#ffffff" stroke="none" x="424" y="40" width="156.01416015625" height="39"/></g><g transform="translate(-54,-30) scale(1,1)"><path fill="none" stroke="#000000" d="M 424 40 L 580.01416015625 40 L 580.01416015625 79 L 424 79 L 424 40 Z Z" stroke-miterlimit="10"/></g><g transform="translate(-54,-30) scale(1,1)"><g><path fill="none" stroke="none"/><text fill="#000000" stroke="none" font-family="Arial" font-size="13px" font-style="normal" font-weight="bold" text-decoration="none" x="438.41943359375" y="59.5">TopNavController.java</text></g></g><g transform="translate(-54,-30) scale(1,1)"><path fill="none" stroke="#000000" d="M 503.5 80 L 503.5 354" stroke-miterlimit="10" stroke-dasharray="3"/></g><g transform="translate(-54,-30) scale(1,1)"><rect fill="#C0C0C0" stroke="none" x="655" y="47" width="126.67529296875" height="39" opacity="0.2"/></g><g transform="translate(-54,-30) scale(1,1)"><rect fill="#ffffff" stroke="none" x="648" y="40" width="126.67529296875" height="39"/></g><g transform="translate(-54,-30) scale(1,1)"><path fill="none" stroke="#000000" d="M 648 40 L 774.67529296875 40 L 774.67529296875 79 L 648 79 L 648 40 Z Z" stroke-miterlimit="10"/></g><g transform="translate(-54,-30) scale(1,1)"><g><path fill="none" stroke="none"/><text fill="#000000" stroke="none" font-family="Arial" font-size="13px" font-style="normal" font-weight="bold" text-decoration="none" x="660.759521484375" y="59.5">UserSession.java</text></g></g><g transform="translate(-54,-30) scale(1,1)"><path fill="none" stroke="#000000" d="M 712.5 80 L 712.5 239" stroke-miterlimit="10" stroke-dasharray="3"/></g><g transform="translate(-54,-30) scale(1,1)"><rect fill="#C0C0C0" stroke="none" x="71" y="47" width="94.8544921875" height="39" opacity="0.2"/></g><g transform="translate(-54,-30) scale(1,1)"><rect fill="#ffffff" stroke="none" x="64" y="40" width="94.8544921875" height="39"/></g><g transform="translate(-54,-30) scale(1,1)"><path fill="none" stroke="#000000" d="M 64 40 L 158.8544921875 40 L 158.8544921875 79 L 64 79 L 64 40 Z Z" stroke-miterlimit="10"/></g><g transform="translate(-54,-30) scale(1,1)"><g><path fill="none" stroke="none"/><text fill="#000000" stroke="none" font-family="Arial" font-size="13px" font-style="normal" font-weight="bold" text-decoration="none" x="76.746826171875" y="59.5">catalog.fxml</text></g></g><g transform="translate(-54,-30) scale(1,1)"><path fill="none" stroke="#000000" d="M 112.5 80 L 112.5 354" stroke-miterlimit="10" stroke-dasharray="3"/></g><g transform="translate(-54,-30) scale(1,1)"><path fill="none" stroke="#000000" d="M 303 144 L 496 144" stroke-miterlimit="10"/></g><g transform="translate(-54,-30) scale(1,1)"><path fill="#000000" stroke="none" d="M 485.83732514237585 148.209517756016 L 496 144 L 485.83732514237585 139.790482243984"/></g><g transform="translate(-54,-30) scale(1,1)"><path fill="none" stroke="#000000" d="M 485.83732514237585 148.209517756016 L 496 144 L 485.83732514237585 139.790482243984 L 485.83732514237585 148.209517756016" stroke-miterlimit="10"/></g><g transform="translate(-54,-30) scale(1,1)"><g><path fill="none" stroke="none"/><text fill="#000000" stroke="none" font-family="Arial" font-size="13px" font-style="normal" font-weight="normal" text-decoration="none" x="371.779541015625" y="140.5">1 : logout</text></g></g><g transform="translate(-54,-30) scale(1,1)"><rect fill="#ffffff" stroke="none" x="496" y="144" width="13" height="28"/></g><g transform="translate(-54,-30) scale(1,1)"><path fill="none" stroke="#000000" d="M 496 144 L 509 144 L 509 172 L 496 172 L 496 144 Z Z" stroke-miterlimit="10"/></g><g transform="translate(-54,-30) scale(1,1)"><path fill="none" stroke="#000000" d="M 509 162 L 705 162" stroke-miterlimit="10"/></g><g transform="translate(-54,-30) scale(1,1)"><path fill="none" stroke="#000000" d="M 694.8373251423759 166.209517756016 L 705 162 L 694.8373251423758 157.790482243984" stroke-miterlimit="10"/></g><g transform="translate(-54,-30) scale(1,1)"><g><path fill="none" stroke="none"/><text fill="#000000" stroke="none" font-family="Arial" font-size="13px" font-style="normal" font-weight="normal" text-decoration="none" x="553.5" y="158.5">2 : destroySession</text></g></g><g transform="translate(-54,-30) scale(1,1)"><rect fill="#ffffff" stroke="none" x="705" y="162" width="13" height="28"/></g><g transform="translate(-54,-30) scale(1,1)"><path fill="none" stroke="#000000" d="M 705 162 L 718 162 L 718 190 L 705 190 L 705 162 Z Z" stroke-miterlimit="10"/></g><g transform="translate(-54,-30) scale(1,1)"><path fill="none" stroke="#000000" d="M 503 193 L 303 193" stroke-miterlimit="10" stroke-dasharray="3"/></g><g transform="translate(-54,-30) scale(1,1)"><path fill="none" stroke="#000000" d="M 313.16267485762415 188.790482243984 L 303 193 L 313.16267485762415 197.209517756016" stroke-miterlimit="10"/></g><g transform="translate(-54,-30) scale(1,1)"><g><path fill="none" stroke="none"/><text fill="#000000" stroke="none" font-family="Arial" font-size="13px" font-style="normal" font-weight="normal" text-decoration="none" x="331.5" y="209.5">3 : remove logout button</text></g></g><g transform="translate(-54,-30) scale(1,1)"><path fill="none" stroke="#000000" d="M 503 224 L 303 224" stroke-miterlimit="10" stroke-dasharray="3"/></g><g transform="translate(-54,-30) scale(1,1)"><path fill="none" stroke="#000000" d="M 313.16267485762415 219.790482243984 L 303 224 L 313.16267485762415 228.209517756016" stroke-miterlimit="10"/></g><g transform="translate(-54,-30) scale(1,1)"><g><path fill="none" stroke="none"/><text fill="#000000" stroke="none" font-family="Arial" font-size="13px" font-style="normal" font-weight="normal" text-decoration="none" x="346.5" y="240.5">4 : add login button</text></g></g><g transform="translate(-54,-30) scale(1,1)"><path fill="none" stroke="#000000" d="M 503 256 L 303 256" stroke-miterlimit="10" stroke-dasharray="3"/></g><g transform="translate(-54,-30) scale(1,1)"><path fill="none" stroke="#000000" d="M 313.16267485762415 251.790482243984 L 303 256 L 313.16267485762415 260.209517756016" stroke-miterlimit="10"/></g><g transform="translate(-54,-30) scale(1,1)"><g><path fill="none" stroke="none"/><text fill="#000000" stroke="none" font-family="Arial" font-size="13px" font-style="normal" font-weight="normal" text-decoration="none" x="340.5" y="276.5">5 : "Welcome, guest!"</text></g></g><g transform="translate(-54,-30) scale(1,1)"><path fill="none" stroke="#000000" d="M 503 312 L 118 312" stroke-miterlimit="10"/></g><g transform="translate(-54,-30) scale(1,1)"><path fill="none" stroke="#000000" d="M 128.16267485762415 307.790482243984 L 118 312 L 128.16267485762415 316.209517756016" stroke-miterlimit="10"/></g><g transform="translate(-54,-30) scale(1,1)"><g><path fill="none" stroke="none"/><text fill="#000000" stroke="none" font-family="Arial" font-size="13px" font-style="normal" font-weight="normal" text-decoration="none" x="287.200439453125" y="328.5">6 : load</text></g></g><g transform="translate(-54,-30) scale(1,1)"><rect fill="#ffffff" stroke="none" x="105" y="312" width="13" height="28"/></g><g transform="translate(-54,-30) scale(1,1)"><path fill="none" stroke="#000000" d="M 105 312 L 118 312 L 118 340 L 105 340 L 105 312 Z Z" stroke-miterlimit="10"/></g></g></svg>