<svg version="1.1" xmlns="http://www.w3.org/2000/svg" xmlns:xlink="http://www.w3.org/1999/xlink" width="564" height="252"><defs/><g><text fill="#eeeeee" stroke="none" font-family="Arial" font-size="24px" font-style="normal" font-weight="normal" text-decoration="none" x="0" y="0">UNREGISTERED</text><text fill="#eeeeee" stroke="none" font-family="Arial" font-size="24px" font-style="normal" font-weight="normal" text-decoration="none" x="0" y="30">UNREGISTERED</text><text fill="#eeeeee" stroke="none" font-family="Arial" font-size="24px" font-style="normal" font-weight="normal" text-decoration="none" x="0" y="60">UNREGISTERED</text><text fill="#eeeeee" stroke="none" font-family="Arial" font-size="24px" font-style="normal" font-weight="normal" text-decoration="none" x="0" y="90">UNREGISTERED</text><text fill="#eeeeee" stroke="none" font-family="Arial" font-size="24px" font-style="normal" font-weight="normal" text-decoration="none" x="0" y="120">UNREGISTERED</text><text fill="#eeeeee" stroke="none" font-family="Arial" font-size="24px" font-style="normal" font-weight="normal" text-decoration="none" x="0" y="150">UNREGISTERED</text><text fill="#eeeeee" stroke="none" font-family="Arial" font-size="24px" font-style="normal" font-weight="normal" text-decoration="none" x="0" y="180">UNREGISTERED</text><text fill="#eeeeee" stroke="none" font-family="Arial" font-size="24px" font-style="normal" font-weight="normal" text-decoration="none" x="0" y="210">UNREGISTERED</text><text fill="#eeeeee" stroke="none" font-family="Arial" font-size="24px" font-style="normal" font-weight="normal" text-decoration="none" x="0" y="240">UNREGISTERED</text><text fill="#eeeeee" stroke="none" font-family="Arial" font-size="24px" font-style="normal" font-weight="normal" text-decoration="none" x="200" y="0">UNREGISTERED</text><text fill="#eeeeee" stroke="none" font-family="Arial" font-size="24px" font-style="normal" font-weight="normal" text-decoration="none" x="200" y="30">UNREGISTERED</text><text fill="#eeeeee" stroke="none" font-family="Arial" font-size="24px" font-style="normal" font-weight="normal" text-decoration="none" x="200" y="60">UNREGISTERED</text><text fill="#eeeeee" stroke="none" font-family="Arial" font-size="24px" font-style="normal" font-weight="normal" text-decoration="none" x="200" y="90">UNREGISTERED</text><text fill="#eeeeee" stroke="none" font-family="Arial" font-size="24px" font-style="normal" font-weight="normal" text-decoration="none" x="200" y="120">UNREGISTERED</text><text fill="#eeeeee" stroke="none" font-family="Arial" font-size="24px" font-style="normal" font-weight="normal" text-decoration="none" x="200" y="150">UNREGISTERED</text><text fill="#eeeeee" stroke="none" font-family="Arial" font-size="24px" font-style="normal" font-weight="normal" text-decoration="none" x="200" y="180">UNREGISTERED</text><text fill="#eeeeee" stroke="none" font-family="Arial" font-size="24px" font-style="normal" font-weight="normal" text-decoration="none" x="200" y="210">UNREGISTERED</text><text fill="#eeeeee" stroke="none" font-family="Arial" font-size="24px" font-style="normal" font-weight="normal" text-decoration="none" x="200" y="240">UNREGISTERED</text><text fill="#eeeeee" stroke="none" font-family="Arial" font-size="24px" font-style="normal" font-weight="normal" text-decoration="none" x="400" y="0">UNREGISTERED</text><text fill="#eeeeee" stroke="none" font-family="Arial" font-size="24px" font-style="normal" font-weight="normal" text-decoration="none" x="400" y="30">UNREGISTERED</text><text fill="#eeeeee" stroke="none" font-family="Arial" font-size="24px" font-style="normal" font-weight="normal" text-decoration="none" x="400" y="60">UNREGISTERED</text><text fill="#eeeeee" stroke="none" font-family="Arial" font-size="24px" font-style="normal" font-weight="normal" text-decoration="none" x="400" y="90">UNREGISTERED</text><text fill="#eeeeee" stroke="none" font-family="Arial" font-size="24px" font-style="normal" font-weight="normal" text-decoration="none" x="400" y="120">UNREGISTERED</text><text fill="#eeeeee" stroke="none" font-family="Arial" font-size="24px" font-style="normal" font-weight="normal" text-decoration="none" x="400" y="150">UNREGISTERED</text><text fill="#eeeeee" stroke="none" font-family="Arial" font-size="24px" font-style="normal" font-weight="normal" text-decoration="none" x="400" y="180">UNREGISTERED</text><text fill="#eeeeee" stroke="none" font-family="Arial" font-size="24px" font-style="normal" font-weight="normal" text-decoration="none" x="400" y="210">UNREGISTERED</text><text fill="#eeeeee" stroke="none" font-family="Arial" font-size="24px" font-style="normal" font-weight="normal" text-decoration="none" x="400" y="240">UNREGISTERED</text><g transform="translate(-1430,-326) scale(1,1)"><path fill="#ffffff" stroke="none" d="M 1440 346 L 1973 346 L 1973 567 L 1440 567"/></g><g transform="translate(-1430,-326) scale(1,1)"><path fill="#ffffff" stroke="none" d="M 1440 346 L 1450 336 L 1983 336 L 1973 346"/></g><g transform="translate(-1430,-326) scale(1,1)"><path fill="#ffffff" stroke="none" d="M 1983 336 L 1973 346 L 1973 567 L 1983 557"/></g><g transform="translate(-1430,-326) scale(1,1)"><path fill="none" stroke="#000000" d="M 1440 346 L 1973 346 L 1973 567 L 1440 567 L 1440 346" stroke-miterlimit="10"/></g><g transform="translate(-1430,-326) scale(1,1)"><path fill="none" stroke="#000000" d="M 1440 346 L 1450 336 L 1983 336 L 1973 346 L 1440 346" stroke-miterlimit="10"/></g><g transform="translate(-1430,-326) scale(1,1)"><path fill="none" stroke="#000000" d="M 1983 336 L 1973 346 L 1973 567 L 1983 557 L 1983 336" stroke-miterlimit="10"/></g><g transform="translate(-1430,-326) scale(1,1)"><g><path fill="none" stroke="none"/><text fill="#000000" stroke="none" font-family="Arial" font-size="13px" font-style="normal" font-weight="normal" text-decoration="none" x="1680.98095703125" y="363.5">«device»</text></g></g><g transform="translate(-1430,-326) scale(1,1)"><g><path fill="none" stroke="none"/><text fill="#000000" stroke="none" font-family="Arial" font-size="13px" font-style="normal" font-weight="bold" text-decoration="none" x="1697.970458984375" y="378.5">PC</text></g></g><g transform="translate(-1430,-326) scale(1,1)"><path fill="#ffffff" stroke="none" d="M 1456 402 L 1661 402 L 1661 551 L 1456 551"/></g><g transform="translate(-1430,-326) scale(1,1)"><path fill="#ffffff" stroke="none" d="M 1456 402 L 1466 392 L 1671 392 L 1661 402"/></g><g transform="translate(-1430,-326) scale(1,1)"><path fill="#ffffff" stroke="none" d="M 1671 392 L 1661 402 L 1661 551 L 1671 541"/></g><g transform="translate(-1430,-326) scale(1,1)"><path fill="none" stroke="#000000" d="M 1456 402 L 1661 402 L 1661 551 L 1456 551 L 1456 402" stroke-miterlimit="10"/></g><g transform="translate(-1430,-326) scale(1,1)"><path fill="none" stroke="#000000" d="M 1456 402 L 1466 392 L 1671 392 L 1661 402 L 1456 402" stroke-miterlimit="10"/></g><g transform="translate(-1430,-326) scale(1,1)"><path fill="none" stroke="#000000" d="M 1671 392 L 1661 402 L 1661 551 L 1671 541 L 1671 392" stroke-miterlimit="10"/></g><g transform="translate(-1430,-326) scale(1,1)"><g><path fill="none" stroke="none"/><text fill="#000000" stroke="none" font-family="Arial" font-size="13px" font-style="normal" font-weight="normal" text-decoration="none" x="1487.45556640625" y="419.5">«executionEnvironment»</text></g></g><g transform="translate(-1430,-326) scale(1,1)"><g><path fill="none" stroke="none"/><text fill="#000000" stroke="none" font-family="Arial" font-size="13px" font-style="normal" font-weight="bold" text-decoration="none" x="1545.27001953125" y="434.5">Java</text></g></g><g transform="translate(-1430,-326) scale(1,1)"><path fill="#ffffff" stroke="none" d="M 1760 402 L 1949 402 L 1949 543 L 1760 543"/></g><g transform="translate(-1430,-326) scale(1,1)"><path fill="#ffffff" stroke="none" d="M 1760 402 L 1770 392 L 1959 392 L 1949 402"/></g><g transform="translate(-1430,-326) scale(1,1)"><path fill="#ffffff" stroke="none" d="M 1959 392 L 1949 402 L 1949 543 L 1959 533"/></g><g transform="translate(-1430,-326) scale(1,1)"><path fill="none" stroke="#000000" d="M 1760 402 L 1949 402 L 1949 543 L 1760 543 L 1760 402" stroke-miterlimit="10"/></g><g transform="translate(-1430,-326) scale(1,1)"><path fill="none" stroke="#000000" d="M 1760 402 L 1770 392 L 1959 392 L 1949 402 L 1760 402" stroke-miterlimit="10"/></g><g transform="translate(-1430,-326) scale(1,1)"><path fill="none" stroke="#000000" d="M 1959 392 L 1949 402 L 1949 543 L 1959 533 L 1959 392" stroke-miterlimit="10"/></g><g transform="translate(-1430,-326) scale(1,1)"><path fill="none" stroke="#000000" d="M 1760 440 L 1950 440" stroke-miterlimit="10"/></g><g transform="translate(-1430,-326) scale(1,1)"><g><path fill="none" stroke="none"/><text fill="#000000" stroke="none" font-family="Arial" font-size="13px" font-style="normal" font-weight="normal" text-decoration="none" x="1821.024169921875" y="419.5">«database»</text></g></g><g transform="translate(-1430,-326) scale(1,1)"><g><path fill="none" stroke="none"/><text fill="#000000" stroke="none" font-family="Arial" font-size="13px" font-style="normal" font-weight="bold" text-decoration="none" x="1833.3291015625" y="434.5">MySQL</text></g></g><g transform="translate(-1430,-326) scale(1,1)"><path fill="#ffffff" stroke="none" d="M 1776 448 L 1837.47265625 448 L 1847.47265625 458 L 1847.47265625 486 L 1776 486 L 1776 448"/></g><g transform="translate(-1430,-326) scale(1,1)"><path fill="none" stroke="#000000" d="M 1776 448 L 1837.47265625 448 L 1847.47265625 458 L 1847.47265625 486 L 1776 486 L 1776 448 L 1776 448" stroke-miterlimit="10"/></g><g transform="translate(-1430,-326) scale(1,1)"><path fill="none" stroke="#000000" d="M 1837.47265625 448 L 1837.47265625 458 L 1847.47265625 458 L 1837.47265625 448" stroke-miterlimit="10"/></g><g transform="translate(-1430,-326) scale(1,1)"><g><path fill="none" stroke="none"/><text fill="#000000" stroke="none" font-family="Arial" font-size="13px" font-style="normal" font-weight="normal" text-decoration="none" x="1781" y="466">Accounts</text></g></g><g transform="translate(-1430,-326) scale(1,1)"><path fill="#ffffff" stroke="none" d="M 1864 448 L 1922 448 L 1932 458 L 1932 486 L 1864 486 L 1864 448"/></g><g transform="translate(-1430,-326) scale(1,1)"><path fill="none" stroke="#000000" d="M 1864 448 L 1922 448 L 1932 458 L 1932 486 L 1864 486 L 1864 448 L 1864 448" stroke-miterlimit="10"/></g><g transform="translate(-1430,-326) scale(1,1)"><path fill="none" stroke="#000000" d="M 1922 448 L 1922 458 L 1932 458 L 1922 448" stroke-miterlimit="10"/></g><g transform="translate(-1430,-326) scale(1,1)"><g><path fill="none" stroke="none"/><text fill="#000000" stroke="none" font-family="Arial" font-size="13px" font-style="normal" font-weight="normal" text-decoration="none" x="1869" y="466">Media</text></g></g><g transform="translate(-1430,-326) scale(1,1)"><path fill="none" stroke="#000000" d="M 1672 448 L 1760 448" stroke-miterlimit="10" stroke-dasharray="3"/></g><g transform="translate(-1430,-326) scale(1,1)"><path fill="none" stroke="#000000" d="M 1749.837325142376 452.209517756016 L 1760 448 L 1749.837325142376 443.790482243984" stroke-miterlimit="10"/></g><g transform="translate(-1430,-326) scale(1,1)"><g><path fill="none" stroke="none"/><text fill="#000000" stroke="none" font-family="Arial" font-size="13px" font-style="normal" font-weight="normal" text-decoration="none" x="1690.5" y="443.5">«JDBC»</text></g></g><g transform="translate(-1430,-326) scale(1,1)"><path fill="#ffffff" stroke="none" d="M 1540.4 456 L 1567.84 456 L 1579.6 467.75999999999993 L 1579.6 505 L 1540.4 505"/></g><g transform="translate(-1430,-326) scale(1,1)"><path fill="none" stroke="#000000" d="M 1540.4 456 L 1567.84 456 L 1579.6 467.75999999999993 L 1579.6 505 L 1540.4 505 L 1540.4 456" stroke-miterlimit="10"/></g><g transform="translate(-1430,-326) scale(1,1)"><path fill="none" stroke="#000000" d="M 1567.84 456 L 1567.84 467.75999999999993 L 1579.6 467.75999999999993 L 1567.84 456" stroke-miterlimit="10"/></g><g transform="translate(-1430,-326) scale(1,1)"><g><path fill="none" stroke="none"/><text fill="#000000" stroke="none" font-family="Arial" font-size="13px" font-style="normal" font-weight="bold" text-decoration="none" x="1524.5927734375" y="524.5">JavaFX App</text></g></g><g transform="translate(-1430,-326) scale(1,1)"><path fill="#ffffff" stroke="none" d="M 1776 496 L 1837.47265625 496 L 1847.47265625 506 L 1847.47265625 534 L 1776 534 L 1776 496"/></g><g transform="translate(-1430,-326) scale(1,1)"><path fill="none" stroke="#000000" d="M 1776 496 L 1837.47265625 496 L 1847.47265625 506 L 1847.47265625 534 L 1776 534 L 1776 496 L 1776 496" stroke-miterlimit="10"/></g><g transform="translate(-1430,-326) scale(1,1)"><path fill="none" stroke="#000000" d="M 1837.47265625 496 L 1837.47265625 506 L 1847.47265625 506 L 1837.47265625 496" stroke-miterlimit="10"/></g><g transform="translate(-1430,-326) scale(1,1)"><g><path fill="none" stroke="none"/><text fill="#000000" stroke="none" font-family="Arial" font-size="13px" font-style="normal" font-weight="normal" text-decoration="none" x="1781" y="514">...</text></g></g></g></svg>